{"glyphs":{"0":{"ha":926,"x_min":72,"x_max":854,"o":"m 72 450 q 83 565 72 508 q 116 674 94 623 q 171 771 138 726 q 248 848 204 815 q 466 918 342 918 q 756 770 648 918 q 854 450 854 637 q 756 127 854 258 q 466 -18 648 -18 q 247 52 340 -18 q 115 225 163 115 q 72 450 72 328 m 148 450 q 354 144 148 201 q 467 131 403 131 q 578 144 531 131 q 661 181 626 157 q 718 235 695 204 q 753 301 740 266 q 778 427 778 366 q 772 526 778 488 q 753 601 767 565 q 718 668 740 637 q 661 722 695 699 q 468 771 586 771 q 174 597 241 771 q 148 450 148 532 z "},"1":{"ha":695,"x_min":93,"x_max":602,"o":"m 93 68 q 226 83 198 73 q 267 110 254 94 q 279 154 279 126 l 279 730 q 273 785 279 765 q 247 817 267 806 q 93 833 216 833 l 93 900 l 414 900 l 414 154 q 463 85 414 103 q 602 68 500 71 l 602 0 l 93 0 l 93 68 z "},"2":{"ha":925,"x_min":103,"x_max":891,"o":"m 753 -53 q 696 0 743 0 l 123 0 l 107 28 l 300 191 q 568 484 495 359 q 609 616 609 552 q 509 787 609 743 q 416 802 472 802 q 268 753 328 802 q 170 608 209 703 l 103 608 l 188 947 l 263 947 q 288 895 260 902 q 303 893 296 893 q 320 895 310 893 l 342 900 q 465 916 413 916 q 570 897 517 916 q 663 842 623 878 q 754 643 754 764 q 661 416 754 526 q 500 262 598 343 l 318 117 l 634 117 q 755 151 713 117 q 825 260 794 181 l 891 260 l 819 -53 l 753 -53 z "},"3":{"ha":810,"x_min":60,"x_max":742,"o":"m 697 900 q 471 488 697 656 q 718 326 651 456 q 742 203 742 277 q 714 61 742 130 q 641 -63 686 -7 q 536 -163 595 -119 q 414 -240 477 -207 q 178 -332 302 -300 l 149 -273 q 426 -136 281 -242 q 583 47 535 -56 q 609 153 609 102 q 591 246 609 205 q 538 321 574 288 q 332 392 459 396 l 300 376 q 269 362 283 368 l 233 418 q 467 578 373 469 q 572 782 550 673 l 271 782 q 182 742 214 782 q 127 639 158 713 l 60 639 l 150 954 l 215 954 q 258 900 209 900 l 697 900 z "},"4":{"ha":1040,"x_min":51,"x_max":995,"o":"m 51 206 l 724 1116 l 701 255 l 787 255 q 872 289 842 255 q 928 398 897 316 l 995 398 l 935 104 l 870 104 q 852 142 866 127 q 819 157 838 157 l 699 157 l 686 -345 l 600 -345 l 589 157 l 67 157 l 51 206 m 587 255 l 576 745 l 176 255 l 587 255 z "},"5":{"ha":810,"x_min":63,"x_max":734,"o":"m 132 -274 q 388 -115 288 -214 q 505 58 465 -40 q 532 188 532 127 q 513 293 532 248 q 462 374 494 338 q 386 437 429 410 q 294 481 343 464 q 97 517 199 517 q 63 516 79 517 l 234 901 l 526 901 q 642 982 604 901 q 666 1038 654 1007 l 734 1038 l 660 782 l 275 782 l 201 626 q 504 537 379 618 q 639 368 598 476 q 661 242 659 313 q 570 -41 656 89 q 373 -232 496 -151 q 161 -332 267 -301 l 132 -274 z "},"6":{"ha":925,"x_min":93,"x_max":843,"o":"m 202 107 q 122 246 151 165 q 93 417 93 327 q 112 591 93 507 q 166 755 130 676 q 255 905 202 835 q 377 1032 308 976 q 710 1177 522 1150 l 730 1112 q 440 941 564 1079 q 275 620 322 809 q 437 707 326 684 q 516 713 471 713 q 610 698 562 713 q 696 657 659 683 q 762 597 734 631 q 807 525 789 563 q 843 371 843 451 q 817 218 843 290 q 743 94 791 146 q 474 -18 641 -18 q 202 107 310 -18 m 253 503 q 249 460 249 470 l 248 441 q 248 413 248 432 q 250 355 248 393 q 260 276 252 317 q 283 194 268 235 q 324 121 298 153 q 478 50 381 50 q 648 148 593 50 q 690 345 690 224 q 608 578 690 505 q 473 624 555 624 q 290 553 363 624 q 253 503 267 531 z "},"7":{"ha":813,"x_min":38,"x_max":751,"o":"m 566 793 l 256 793 q 130 713 168 793 l 105 658 l 38 658 l 114 910 l 726 910 l 751 876 l 334 -337 l 264 -320 l 566 793 z "},"8":{"ha":925,"x_min":100,"x_max":823,"o":"m 100 271 q 160 469 100 387 q 346 604 220 550 q 161 827 186 708 q 153 918 153 865 q 181 1020 153 971 q 254 1101 209 1068 q 467 1166 345 1166 q 704 1083 616 1166 q 782 904 782 1009 q 716 735 782 812 q 576 628 665 675 q 817 372 798 505 q 823 299 823 331 q 817 235 823 267 q 797 170 811 203 q 756 102 782 136 q 692 43 731 69 q 471 -16 605 -16 q 198 76 307 -16 q 125 169 151 117 q 100 271 100 220 m 518 661 q 595 749 574 710 q 638 913 638 826 q 598 1036 638 986 q 458 1097 549 1097 q 320 1051 370 1097 q 274 958 274 1010 q 295 866 274 907 q 349 789 315 826 q 518 661 410 724 m 266 401 q 252 306 252 357 q 268 212 252 255 q 315 134 284 168 q 490 56 383 56 q 637 110 576 56 q 696 234 696 161 q 543 469 696 358 q 474 517 502 500 l 402 565 q 266 401 301 515 z "},"9":{"ha":923,"x_min":93,"x_max":843,"o":"m 661 275 q 433 188 555 188 q 239 246 323 188 q 102 458 133 320 q 93 557 93 498 q 119 688 93 617 q 194 810 145 759 q 465 919 296 919 q 735 802 629 919 q 843 492 843 682 q 770 156 843 320 q 559 -127 694 -14 q 226 -276 412 -250 l 205 -208 q 495 -41 374 -176 q 661 275 612 87 m 392 283 q 464 271 425 271 q 535 280 503 271 q 597 308 568 290 q 683 398 655 343 q 688 465 688 429 q 687 537 688 501 q 680 613 686 572 q 660 697 673 654 q 621 773 646 739 q 460 850 564 850 q 290 753 345 850 q 246 556 246 677 q 292 370 246 450 q 392 283 326 310 z "},"\u0001":{"ha":0,"x_min":0,"x_max":0,"o":""},"\u0002":{"ha":0,"x_min":0,"x_max":0,"o":""},"\u0003":{"ha":0,"x_min":0,"x_max":0,"o":""},"\u0004":{"ha":0,"x_min":0,"x_max":0,"o":""},"\u0005":{"ha":0,"x_min":0,"x_max":0,"o":""},"\u0006":{"ha":0,"x_min":0,"x_max":0,"o":""},"\u0007":{"ha":0,"x_min":0,"x_max":0,"o":""},"\b":{"ha":0,"x_min":0,"x_max":0,"o":""},"\t":{"ha":0,"x_min":0,"x_max":0,"o":""},"\u0010":{"ha":0,"x_min":0,"x_max":0,"o":""},"\u0011":{"ha":0,"x_min":0,"x_max":0,"o":""},"\u0012":{"ha":0,"x_min":0,"x_max":0,"o":""},"\u0013":{"ha":0,"x_min":0,"x_max":0,"o":""},"\u0014":{"ha":0,"x_min":0,"x_max":0,"o":""},"\u0015":{"ha":0,"x_min":0,"x_max":0,"o":""},"\u0016":{"ha":0,"x_min":0,"x_max":0,"o":""},"\u0017":{"ha":0,"x_min":0,"x_max":0,"o":""},"\u0018":{"ha":0,"x_min":0,"x_max":0,"o":""},"\u0019":{"ha":0,"x_min":0,"x_max":0,"o":""}," ":{"ha":462,"x_min":0,"x_max":0,"o":""},"!":{"ha":347,"x_min":56,"x_max":304,"o":"m 149 277 q 86 937 143 692 q 56 1036 73 992 l 180 1157 l 301 1036 q 225 570 247 890 q 214 277 215 428 l 149 277 m 184 205 l 304 83 l 184 -39 l 60 83 l 184 205 z "},"\"":{"ha":695,"x_min":64,"x_max":639,"o":"m 639 1036 q 551 607 559 912 l 486 607 q 393 1036 478 910 l 517 1157 l 639 1036 m 310 1036 q 222 607 230 912 l 157 607 q 64 1036 149 910 l 189 1157 l 310 1036 z "},"#":{"ha":1044,"x_min":107,"x_max":937,"o":"m 274 267 l 107 267 l 134 380 l 283 380 l 305 637 l 123 637 l 150 751 l 315 751 l 337 1002 l 451 992 l 430 751 l 661 751 l 684 1002 l 798 992 l 777 751 l 937 751 l 909 637 l 767 637 l 745 380 l 913 380 l 886 267 l 735 267 l 712 -9 l 597 1 l 621 267 l 389 267 l 366 -9 l 252 1 l 274 267 m 630 380 l 652 637 l 420 637 l 398 380 l 630 380 z "},"$":{"ha":1035,"x_min":128,"x_max":906,"o":"m 236 47 q 158 118 187 77 q 128 205 128 159 q 146 281 128 252 q 189 332 163 311 q 292 382 237 371 l 328 338 l 312 319 q 289 246 289 290 q 301 172 289 202 q 336 117 313 141 q 482 56 389 64 l 482 485 q 250 631 323 564 q 168 795 168 708 q 264 972 168 901 q 482 1050 351 1037 l 482 1200 l 553 1200 l 553 1052 q 764 998 676 1048 q 856 873 856 946 q 783 766 856 812 q 724 741 758 751 l 673 774 l 688 791 q 711 866 711 819 q 668 943 711 913 q 553 977 625 972 l 553 587 l 585 571 q 799 446 744 492 q 880 357 854 400 q 906 255 906 314 q 878 146 906 196 q 802 62 850 96 q 553 -14 706 -4 l 553 -157 l 482 -157 l 482 -15 q 236 47 335 -11 m 482 977 q 332 888 368 964 q 319 829 319 862 q 330 768 319 795 q 360 718 340 741 q 482 626 397 674 l 482 977 m 553 56 q 698 107 646 64 q 750 231 750 151 q 628 405 750 331 q 553 448 593 427 l 553 56 z "},"%":{"ha":1506,"x_min":140,"x_max":1367,"o":"m 983 1046 l 1086 1046 l 526 -47 l 422 -47 l 983 1046 m 414 456 q 294 481 345 456 q 209 545 243 505 q 140 736 140 624 q 209 929 140 849 q 414 1017 285 1017 q 618 929 542 1017 q 688 736 688 849 q 618 543 688 622 q 414 456 542 456 m 296 604 q 307 583 296 604 q 345 543 317 562 q 415 523 372 523 q 486 542 458 523 q 529 592 513 562 q 557 736 557 646 q 486 933 557 882 q 416 952 458 952 q 274 736 274 952 q 296 604 274 646 m 819 243 q 836 345 819 294 q 888 435 853 395 q 1093 523 964 523 q 1297 435 1221 523 q 1367 242 1367 355 q 1297 50 1367 128 q 1093 -37 1221 -37 q 887 51 964 -37 q 819 243 819 130 m 952 242 q 974 110 952 152 q 1023 48 996 68 q 1094 28 1050 28 q 1164 47 1137 28 q 1207 98 1192 67 q 1235 242 1235 153 q 1164 438 1235 389 q 1094 458 1137 458 q 952 242 952 458 z "},"&":{"ha":1040,"x_min":104,"x_max":977,"o":"m 697 718 q 703 796 703 753 q 689 870 703 839 q 650 925 676 902 q 488 976 593 976 q 334 880 372 976 q 319 792 319 843 q 330 705 319 741 q 363 645 342 670 q 481 589 407 593 l 481 519 q 277 376 323 519 q 261 271 261 329 q 282 172 261 212 q 338 106 303 132 q 505 56 404 56 q 763 145 651 56 l 754 408 q 737 494 751 479 q 701 513 722 509 q 644 522 680 518 l 644 574 l 977 574 l 977 522 q 902 501 915 515 q 886 466 890 487 q 882 408 883 445 l 854 -363 l 781 -363 l 766 48 q 488 -18 671 -18 q 206 63 308 -18 q 104 289 104 144 q 176 468 104 394 q 343 559 241 534 q 171 715 208 600 q 161 794 161 747 q 181 889 161 842 q 241 971 201 937 q 488 1046 328 1046 q 644 1020 570 1046 q 711 1002 692 1002 q 785 1055 751 1002 l 850 1055 l 763 718 l 697 718 z "},"'":{"ha":347,"x_min":62,"x_max":312,"o":"m 157 607 q 92 979 151 840 q 62 1036 79 1011 l 189 1157 l 312 1036 q 222 607 232 916 l 157 607 z "},"(":{"ha":693,"x_min":136,"x_max":551,"o":"m 281 549 q 551 -197 281 28 l 511 -237 q 274 23 374 -136 q 136 538 136 244 q 355 1135 136 886 q 511 1270 431 1221 l 551 1229 q 285 650 305 1016 q 281 549 281 595 z "},")":{"ha":693,"x_min":142,"x_max":557,"o":"m 412 549 q 142 -197 412 28 l 182 -237 q 419 23 319 -136 q 557 538 557 244 q 338 1135 557 886 q 182 1270 262 1221 l 142 1229 q 408 650 388 1016 q 412 549 412 595 z "},"*":{"ha":810,"x_min":58,"x_max":752,"o":"m 436 878 q 505 632 452 708 l 405 534 l 306 632 q 372 878 356 707 l 321 840 q 194 696 227 764 l 58 734 l 93 868 q 341 934 185 863 q 92 998 184 1005 l 58 1135 l 193 1171 q 373 990 235 1086 q 304 1236 357 1158 l 406 1335 l 504 1236 q 437 990 452 1157 q 583 1121 526 1053 q 616 1172 604 1146 l 752 1134 l 717 1000 q 468 934 625 1004 q 718 870 625 863 l 752 733 l 617 697 q 487 839 583 763 l 436 878 z "},"+":{"ha":922,"x_min":67,"x_max":854,"o":"m 418 511 l 67 511 l 94 623 l 418 623 l 418 947 l 532 947 l 532 623 l 854 623 l 827 511 l 532 511 l 532 189 l 418 189 l 418 511 z "},",":{"ha":347,"x_min":52,"x_max":301,"o":"m 174 205 l 295 83 q 256 -109 301 7 q 117 -341 206 -241 l 65 -305 q 134 -133 117 -232 q 139 -80 139 -104 q 123 -5 139 -33 q 52 83 101 34 l 174 205 z "},"-":{"ha":922,"x_min":170,"x_max":751,"o":"m 198 623 l 751 623 l 722 511 l 170 511 l 198 623 z "},".":{"ha":347,"x_min":51,"x_max":295,"o":"m 174 205 l 295 83 l 174 -39 l 51 83 l 174 205 z "},"/":{"ha":575,"x_min":47,"x_max":528,"o":"m 425 1124 l 528 1124 l 151 -20 l 47 -20 l 425 1124 z "},":":{"ha":347,"x_min":52,"x_max":296,"o":"m 175 205 l 296 83 l 175 -39 l 52 83 l 175 205 m 175 806 l 296 685 l 175 562 l 52 685 l 175 806 z "},";":{"ha":347,"x_min":50,"x_max":300,"o":"m 175 806 l 296 685 l 175 562 l 52 685 l 175 806 m 173 205 l 294 83 q 255 -109 300 7 q 116 -341 205 -241 l 64 -305 q 133 -133 115 -232 q 138 -80 138 -104 q 122 -5 138 -33 q 50 83 100 34 l 173 205 z "},"<":{"ha":922,"x_min":96,"x_max":825,"o":"m 96 610 l 778 926 l 825 824 l 277 569 q 825 313 277 569 l 778 211 l 96 528 l 96 610 z "},"=":{"ha":922,"x_min":100,"x_max":822,"o":"m 127 776 l 822 776 l 794 663 l 100 663 l 127 776 m 127 469 l 822 469 l 794 356 l 100 356 l 127 469 z "},">":{"ha":922,"x_min":96,"x_max":825,"o":"m 96 313 l 644 569 q 96 824 644 569 l 144 926 l 825 610 l 825 528 l 144 211 l 96 313 z "},"?":{"ha":810,"x_min":56,"x_max":733,"o":"m 266 1137 l 399 1144 q 635 1069 543 1144 q 733 845 733 989 q 655 614 733 713 q 448 487 576 514 l 432 290 l 367 290 l 340 553 l 382 553 q 571 832 571 581 q 521 1002 571 937 q 383 1071 469 1071 q 232 1027 285 1071 q 132 851 176 981 l 56 851 l 138 1191 l 216 1191 q 232 1151 217 1166 q 266 1137 248 1137 m 399 205 l 520 83 l 399 -39 l 276 83 l 399 205 z "},"@":{"ha":1506,"x_min":115,"x_max":1404,"o":"m 1079 -134 l 1099 -194 q 840 -294 1010 -264 q 702 -304 787 -304 q 526 -278 618 -304 q 365 -209 434 -253 q 249 -107 296 -165 q 171 16 201 -49 q 115 270 115 139 q 141 502 115 400 q 216 688 168 604 q 331 837 264 772 q 478 947 397 902 q 842 1037 643 1037 q 1237 892 1076 1037 q 1383 659 1343 798 q 1404 520 1404 589 q 1389 390 1404 451 q 1348 272 1375 329 q 1282 166 1320 216 q 1197 79 1244 116 q 979 0 1094 0 q 864 76 894 0 q 852 122 856 98 q 711 11 796 44 q 641 0 682 0 q 562 22 600 0 q 499 83 524 45 q 450 270 450 156 q 559 593 450 447 q 730 726 629 687 q 828 746 780 746 q 915 736 877 746 q 985 709 953 726 q 1084 632 1051 677 l 982 186 q 970 110 970 132 q 1007 65 970 65 q 1150 134 1084 65 q 1274 404 1243 230 q 1282 513 1282 456 q 1270 627 1282 569 q 1232 738 1257 686 q 1170 833 1207 789 q 1084 909 1133 877 q 842 976 981 976 q 430 802 602 976 q 263 484 310 681 q 239 272 239 383 q 275 71 239 160 q 377 -84 311 -18 q 728 -227 519 -227 q 1079 -134 937 -227 m 964 640 q 857 678 925 678 q 713 609 783 678 q 614 452 653 549 q 581 285 576 359 q 601 159 581 201 q 641 100 621 117 q 689 83 662 83 q 744 96 716 83 q 797 137 772 110 q 877 296 852 197 l 964 640 z "},"A":{"ha":1040,"x_min":31,"x_max":1009,"o":"m 31 56 q 119 80 109 70 q 130 103 130 90 q 131 142 131 117 l 130 212 l 130 249 q 221 783 130 608 q 394 987 279 895 q 519 1078 450 1031 l 519 1078 q 742 891 671 977 q 865 644 828 789 q 903 250 903 496 l 903 212 l 903 144 q 905 104 903 118 q 917 81 907 90 q 1009 56 930 70 l 1009 0 l 637 0 l 637 56 q 743 85 726 66 q 759 132 758 101 q 761 193 761 163 l 761 357 l 273 357 l 273 193 q 276 124 273 149 q 290 86 278 99 q 328 67 302 73 q 398 56 353 62 l 398 0 l 31 0 l 31 56 m 760 433 q 711 722 758 608 q 519 982 661 842 q 385 825 423 886 q 329 722 347 764 q 300 634 311 680 q 275 433 281 554 l 760 433 z "},"B":{"ha":1038,"x_min":62,"x_max":967,"o":"m 62 56 q 156 80 140 63 q 176 116 172 96 q 179 169 179 136 l 179 869 q 164 949 179 934 q 125 970 149 964 q 62 979 102 975 l 62 1038 l 238 1038 q 338 1042 283 1038 q 518 1051 441 1051 q 669 1035 596 1051 q 789 989 743 1019 q 880 823 880 931 q 776 605 880 685 q 694 562 741 578 q 950 398 896 528 q 967 301 967 357 q 942 185 967 245 q 863 80 916 125 q 530 -20 745 -20 q 412 -14 477 -20 q 238 0 294 0 l 62 0 l 62 56 m 317 198 q 350 100 317 130 q 533 58 397 58 q 757 127 688 58 q 814 283 814 184 q 705 487 814 428 q 623 512 664 509 q 560 517 583 515 l 514 519 q 468 522 490 521 q 425 524 445 523 l 425 588 l 565 597 q 695 674 654 606 q 727 810 727 726 q 682 930 727 890 q 496 979 628 979 q 321 894 338 979 q 317 840 317 869 l 317 198 z "},"C":{"ha":1038,"x_min":81,"x_max":1025,"o":"m 871 694 q 874 758 874 734 q 864 845 874 809 q 827 904 853 880 q 765 945 800 928 q 615 978 692 978 q 484 959 538 978 q 390 906 431 939 q 321 827 350 873 q 275 730 293 782 q 241 507 241 630 q 332 217 241 339 q 507 96 396 132 q 623 78 563 78 q 727 85 684 78 q 808 107 770 92 q 948 198 884 136 l 982 153 q 834 29 930 75 q 605 -17 739 -17 q 213 144 357 -17 q 81 512 81 292 q 141 772 81 650 q 449 1031 237 968 q 581 1052 522 1052 q 668 1049 641 1052 q 718 1041 695 1046 q 758 1029 740 1036 l 793 1018 q 886 998 852 998 q 961 1053 920 998 l 1025 1053 l 936 694 l 871 694 z "},"D":{"ha":1042,"x_min":43,"x_max":1017,"o":"m 241 1038 l 295 1038 q 354 1039 326 1038 l 403 1042 q 504 1047 477 1047 q 871 929 736 1047 q 1017 554 1017 802 q 881 142 1017 296 q 492 -17 741 -17 q 376 -12 428 -17 l 290 -3 q 241 1 257 1 l 43 0 l 43 56 q 105 67 82 62 q 140 84 128 72 q 161 180 161 104 l 161 861 q 144 952 161 937 q 105 971 128 967 q 43 979 82 975 l 43 1038 l 241 1038 m 298 147 q 433 66 298 87 q 509 60 473 60 q 845 355 784 60 q 865 571 865 452 q 837 767 865 690 q 759 890 809 843 q 484 979 665 979 q 317 939 369 979 q 298 901 298 924 l 298 147 z "},"E":{"ha":1040,"x_min":73,"x_max":975,"o":"m 609 71 q 932 198 812 71 l 966 153 q 697 -5 876 30 q 581 -17 641 -17 q 369 24 463 -17 q 209 135 275 65 q 73 492 73 279 q 197 878 73 715 q 412 1031 280 987 q 535 1053 478 1053 q 620 1049 593 1053 q 669 1040 648 1046 q 708 1028 691 1035 q 746 1015 726 1022 q 836 996 802 996 q 909 1052 869 996 l 975 1052 l 884 692 l 820 692 q 823 766 823 745 q 813 845 823 810 q 777 903 802 879 q 718 945 752 928 q 565 979 648 979 q 423 945 482 979 q 323 854 363 912 q 231 554 246 744 l 669 554 l 650 477 l 229 477 q 334 201 236 319 q 609 71 441 71 z "},"F":{"ha":925,"x_min":58,"x_max":908,"o":"m 772 746 q 787 858 787 823 q 778 912 787 893 q 750 943 770 932 q 621 962 717 962 l 313 962 l 313 571 l 717 571 l 699 494 l 313 494 l 313 180 q 318 118 313 140 q 342 85 323 96 q 399 68 361 73 q 503 56 437 62 l 503 0 l 58 0 l 58 56 q 120 67 97 62 q 155 84 143 72 q 176 180 176 104 l 176 859 q 159 951 176 937 q 120 971 143 966 q 58 979 97 975 l 58 1038 l 908 1038 l 837 746 l 772 746 z "},"G":{"ha":1153,"x_min":65,"x_max":1079,"o":"m 873 39 q 599 -18 760 -18 q 199 148 345 -18 q 65 516 65 301 q 199 884 65 734 q 606 1052 347 1052 q 765 1029 690 1052 l 804 1018 q 902 998 868 998 q 977 1053 936 998 l 1042 1053 l 951 707 l 887 707 l 890 746 q 890 780 890 763 q 841 905 890 864 q 691 970 785 952 q 589 979 647 979 q 473 959 530 979 q 373 907 415 940 q 302 828 330 873 q 258 732 275 783 q 227 516 227 640 q 311 213 227 340 q 596 64 410 64 q 869 142 783 64 l 861 340 q 827 437 859 417 q 694 461 802 454 l 694 519 l 1079 519 l 1079 461 q 1045 453 1059 457 q 1023 437 1031 449 q 1004 340 1007 416 l 975 -263 l 890 -263 l 873 39 z "},"H":{"ha":1152,"x_min":71,"x_max":1080,"o":"m 76 56 q 137 67 115 62 q 170 84 159 72 q 184 118 181 96 q 186 180 186 140 l 186 859 q 171 951 186 936 q 132 971 155 966 q 71 979 109 975 l 71 1038 l 439 1038 l 439 979 q 377 971 400 975 q 342 956 354 967 q 322 859 322 938 l 322 576 l 827 576 l 827 859 q 811 951 827 937 q 772 971 795 966 q 711 979 749 975 l 711 1038 l 1080 1038 l 1080 979 q 1019 971 1042 975 q 984 956 996 967 q 964 859 964 937 l 964 180 q 967 118 964 140 q 982 85 970 96 q 1017 68 994 73 q 1080 56 1040 62 l 1080 0 l 711 0 l 711 56 q 772 67 749 62 q 807 84 795 72 q 827 180 827 104 l 827 499 l 322 499 l 322 180 q 337 88 322 103 q 376 68 353 73 q 439 56 399 62 l 439 0 l 76 0 l 76 56 z "},"I":{"ha":575,"x_min":104,"x_max":475,"o":"m 104 56 l 106 56 l 127 60 q 202 82 189 68 q 222 180 222 104 l 222 859 q 205 951 222 937 q 166 971 189 966 q 104 979 143 975 l 104 1038 l 475 1038 l 475 979 q 414 971 437 975 q 379 956 391 967 q 359 859 359 937 l 359 180 q 371 89 359 104 q 401 70 383 74 q 450 60 419 65 l 475 56 l 475 0 l 104 0 l 104 56 z "},"J":{"ha":463,"x_min":-28,"x_max":460,"o":"m 192 859 q 163 956 192 935 q 123 971 148 968 q 61 979 98 975 l 61 1038 l 460 1038 l 460 979 q 394 971 419 975 q 354 956 368 967 q 330 859 330 937 l 330 291 q 311 14 330 100 q 269 -122 292 -72 q 210 -217 245 -173 q 9 -383 142 -300 l -28 -337 q 105 -184 71 -241 q 155 -84 140 -127 q 178 11 170 -41 q 192 266 192 94 l 192 859 z "},"K":{"ha":1040,"x_min":69,"x_max":1097,"o":"m 619 979 l 619 1038 l 970 1038 l 970 979 q 865 929 909 971 q 834 896 850 915 l 559 536 l 1097 -165 l 1050 -204 l 394 491 l 672 861 q 720 947 720 916 q 619 979 720 979 m 69 56 l 93 60 q 167 82 155 68 q 183 118 180 96 q 186 180 186 140 l 186 859 q 171 951 186 937 q 131 971 155 966 q 69 979 108 975 l 69 1038 l 441 1038 l 441 979 q 379 971 402 975 q 343 956 355 968 q 328 922 331 945 q 324 859 324 900 l 324 180 q 338 89 324 104 q 372 70 352 74 q 427 60 392 65 l 456 56 l 456 0 l 69 0 l 69 56 z "},"L":{"ha":925,"x_min":50,"x_max":905,"o":"m 50 57 q 153 80 136 65 q 172 113 169 94 q 175 159 175 131 l 175 880 q 158 951 175 937 q 116 970 141 965 q 50 979 92 975 l 50 1038 l 446 1038 l 446 979 q 343 962 363 975 q 319 930 324 948 q 313 882 313 912 l 313 142 q 354 85 313 98 q 474 75 386 75 q 610 77 562 75 q 692 86 658 79 q 748 108 726 94 q 787 147 770 123 q 842 296 810 183 l 905 296 l 853 -53 l 795 -53 q 778 -14 793 -28 q 740 0 764 0 l 50 0 l 50 57 z "},"M":{"ha":1508,"x_min":21,"x_max":1487,"o":"m 21 56 q 98 72 82 65 q 130 113 124 84 l 328 1057 l 378 1057 l 753 229 l 1117 1057 l 1163 1057 l 1354 180 q 1394 81 1370 100 q 1430 65 1408 69 q 1487 56 1451 61 l 1487 0 l 1101 0 l 1101 56 q 1188 77 1173 68 q 1213 128 1213 90 q 1211 152 1213 138 l 1208 180 l 1099 749 l 753 -34 l 707 -34 l 355 749 l 238 138 q 236 114 236 125 q 242 92 236 102 q 263 75 248 81 q 367 56 292 62 l 367 0 l 21 0 l 21 56 z "},"N":{"ha":1155,"x_min":31,"x_max":1113,"o":"m 31 56 l 61 60 q 136 79 121 70 q 161 142 161 96 l 161 1057 l 219 1077 l 886 237 l 886 873 q 859 958 886 938 q 755 980 839 972 l 755 1038 l 1113 1038 l 1113 980 q 1053 972 1077 976 q 1015 958 1029 968 q 989 875 989 940 l 989 -16 l 937 -32 l 264 814 l 264 163 q 292 85 264 105 q 356 64 311 71 q 410 56 401 58 l 410 0 l 31 0 l 31 56 z "},"O":{"ha":1155,"x_min":81,"x_max":1074,"o":"m 81 513 q 94 645 81 579 q 135 771 108 711 q 204 882 163 831 q 300 971 245 933 q 577 1052 417 1052 q 951 882 814 1052 q 1074 513 1074 729 q 951 148 1074 294 q 577 -14 815 -14 q 203 149 338 -14 q 81 513 81 297 m 243 546 q 243 502 243 546 q 249 401 243 457 q 270 295 255 346 q 309 200 284 244 q 370 123 333 156 q 578 55 450 55 q 888 294 817 55 q 915 513 915 387 q 697 960 915 879 q 578 979 646 979 q 270 731 339 979 q 243 546 243 635 z "},"P":{"ha":923,"x_min":65,"x_max":855,"o":"m 419 439 q 496 434 448 434 q 586 454 545 434 q 652 511 627 475 q 702 711 702 582 q 670 895 702 835 q 497 979 625 979 q 324 902 340 979 q 319 850 319 878 l 319 179 q 323 118 319 140 q 341 85 328 96 q 381 69 355 73 q 451 60 407 64 l 488 56 l 488 0 l 65 0 l 65 56 q 75 57 68 57 q 99 60 82 58 q 135 67 117 62 q 164 84 153 72 q 182 179 182 105 l 182 866 q 167 947 182 932 q 129 969 152 963 q 65 979 105 975 l 65 1038 l 241 1038 q 373 1045 307 1038 q 525 1053 439 1053 q 678 1025 611 1053 q 785 951 745 998 q 855 719 855 869 q 775 472 855 567 q 503 363 683 363 q 408 376 462 363 l 419 439 z "},"Q":{"ha":1156,"x_min":80,"x_max":1191,"o":"m 821 39 q 577 -18 713 -18 q 202 147 337 -18 q 80 513 80 297 q 203 882 80 729 q 577 1052 340 1052 q 951 882 814 1052 q 1074 513 1074 729 q 1039 301 1074 402 q 931 123 1003 199 l 1191 -214 l 1150 -250 l 821 39 m 242 546 q 242 502 242 546 q 248 401 242 457 q 269 294 254 345 q 308 198 283 243 q 370 121 332 154 q 578 51 449 51 q 887 293 817 51 q 914 513 914 387 q 697 960 914 879 q 578 979 646 979 q 269 731 338 979 q 242 546 242 635 z "},"R":{"ha":1040,"x_min":62,"x_max":1090,"o":"m 726 751 q 505 979 726 979 q 322 892 341 979 q 317 839 317 867 l 317 180 q 321 118 317 140 q 338 85 325 96 q 378 69 352 73 q 448 60 404 64 l 485 56 l 485 -1 l 62 -1 l 62 56 l 85 59 q 133 67 115 63 q 161 84 151 72 q 179 180 179 104 l 179 866 q 164 948 179 932 q 125 970 149 964 q 62 979 102 976 l 62 1038 l 238 1038 q 340 1043 277 1038 q 533 1053 464 1053 q 674 1029 603 1053 q 791 966 745 1006 q 880 759 880 888 q 822 578 880 662 q 628 441 756 483 l 1090 -193 l 1039 -231 l 446 434 l 475 494 l 527 494 q 663 557 608 494 q 726 751 726 631 z "},"S":{"ha":925,"x_min":93,"x_max":861,"o":"m 634 773 q 665 853 665 815 q 650 912 665 890 q 608 949 634 935 q 465 980 553 980 q 334 937 386 980 q 281 825 281 894 q 349 691 281 747 q 433 636 383 663 q 671 510 617 541 q 768 444 726 480 q 861 269 861 366 q 748 49 861 123 q 477 -16 648 -16 q 225 42 342 -16 q 110 144 144 83 q 93 213 93 175 q 110 280 93 251 q 151 331 126 310 q 250 381 196 371 l 286 338 q 257 280 261 303 q 254 228 254 256 q 272 166 254 199 q 321 109 290 134 q 485 54 391 54 q 697 157 648 54 q 713 236 713 191 q 688 316 713 281 q 624 377 663 350 q 536 426 585 404 q 426 481 488 449 q 310 549 365 513 q 218 623 254 585 q 147 793 147 697 q 245 983 147 912 q 484 1052 338 1052 q 711 1008 619 1052 q 807 886 807 962 q 742 767 807 814 q 684 740 719 750 l 634 773 z "},"T":{"ha":1040,"x_min":34,"x_max":989,"o":"m 852 746 q 867 858 867 823 q 858 914 867 894 q 830 945 850 934 q 701 966 796 966 l 587 966 l 587 182 q 591 121 587 143 q 614 87 596 99 q 669 71 633 76 q 768 59 705 65 l 768 0 l 273 0 l 273 59 q 415 85 393 71 q 443 121 437 99 q 449 182 449 143 l 449 966 l 319 966 q 142 846 197 966 q 109 768 125 810 l 100 747 l 34 747 l 110 1038 l 989 1038 l 918 746 l 852 746 z "},"U":{"ha":1153,"x_min":37,"x_max":1115,"o":"m 584 -32 q 323 159 410 66 q 178 423 222 266 q 133 850 133 584 q 122 945 133 928 q 37 979 104 972 l 37 1038 l 385 1038 l 385 979 q 296 949 317 972 q 276 838 276 928 q 279 660 276 749 q 294 501 283 572 q 326 375 305 431 q 380 269 346 319 q 584 65 440 180 q 783 269 724 179 q 863 500 843 361 q 877 864 877 604 q 861 945 877 928 q 768 979 836 972 l 768 1038 l 1115 1038 l 1115 979 q 1034 948 1050 970 q 1020 822 1020 928 q 1009 611 1020 716 q 977 423 999 506 q 919 276 954 340 q 836 159 884 212 q 584 -32 753 67 z "},"V":{"ha":1038,"x_min":18,"x_max":1020,"o":"m 123 887 q 89 948 104 935 q 18 979 64 973 l 18 1038 l 358 1038 l 358 979 q 256 960 277 977 q 246 946 246 953 q 258 909 246 939 l 541 186 q 777 811 758 758 l 806 894 q 817 935 817 924 q 809 955 817 945 q 789 970 802 965 q 711 979 766 979 l 711 1038 l 1020 1038 l 1020 979 q 960 956 974 972 q 939 922 947 939 l 551 -40 l 503 -40 l 123 887 z "},"W":{"ha":1508,"x_min":56,"x_max":1451,"o":"m 481 42 q 620 250 578 156 q 680 639 676 376 q 682 805 682 726 q 679 908 682 883 q 666 948 676 934 q 576 979 648 972 l 576 1038 l 931 1038 l 931 979 q 873 968 895 974 q 841 947 852 962 q 825 822 825 925 q 826 628 825 720 q 835 467 828 537 q 854 341 842 396 q 890 239 867 287 q 1026 42 929 155 q 1156 253 1118 159 q 1209 653 1207 384 q 1210 820 1210 744 q 1208 918 1210 897 q 1196 951 1206 939 q 1104 979 1178 972 l 1104 1038 l 1451 1038 l 1451 979 q 1364 950 1380 973 q 1352 822 1352 930 q 1345 606 1352 713 q 1322 415 1338 500 q 1282 263 1307 330 q 1221 141 1257 196 q 1026 -54 1154 39 q 754 334 821 125 q 481 -54 677 108 q 286 141 351 42 q 161 606 181 300 q 155 800 155 713 q 153 911 155 887 q 141 948 151 935 q 56 979 125 969 l 56 1038 l 404 1038 l 404 979 q 311 951 330 972 q 298 918 300 939 q 296 820 296 897 q 297 653 296 744 q 303 490 298 562 q 319 361 308 418 q 351 253 330 304 q 481 42 387 161 z "},"X":{"ha":1040,"x_min":37,"x_max":1002,"o":"m 37 57 q 114 73 100 62 q 133 97 127 83 q 143 129 138 111 q 154 171 147 146 q 173 225 160 195 q 207 293 186 256 q 259 369 228 330 q 437 527 332 458 q 179 807 246 637 q 152 905 160 855 q 124 960 140 950 q 37 979 102 974 l 37 1038 l 393 1038 l 393 979 q 314 972 328 979 q 298 957 300 964 q 296 940 296 949 q 299 908 296 930 q 311 855 302 886 q 335 787 319 824 q 374 713 350 751 q 512 572 429 626 q 731 854 668 671 q 749 929 749 909 q 746 957 749 949 q 732 969 742 964 q 660 979 711 979 l 660 1038 l 994 1038 l 994 979 q 911 964 926 974 q 891 941 897 954 q 881 907 886 927 l 869 863 q 690 598 832 717 q 588 528 646 562 q 865 224 789 405 q 884 170 878 193 l 894 133 q 905 94 900 108 q 920 73 909 80 q 1002 57 935 62 l 1002 0 l 645 0 l 645 57 q 725 67 711 61 q 741 80 739 73 q 743 97 743 87 q 700 254 743 155 q 512 488 641 392 q 293 184 355 371 q 274 97 274 129 q 276 80 274 87 q 290 69 279 73 q 393 57 312 61 l 393 0 l 37 0 l 37 57 z "},"Y":{"ha":1038,"x_min":52,"x_max":985,"o":"m 890 851 q 587 347 890 484 l 587 180 q 591 118 587 140 q 609 85 595 96 q 651 68 623 73 q 727 56 679 62 l 727 0 l 311 0 l 311 56 q 424 82 406 67 q 447 118 442 96 q 451 180 451 140 l 451 347 q 147 851 147 481 q 146 909 147 886 q 136 947 144 932 q 52 979 119 972 l 52 1038 l 399 1038 l 399 979 q 306 949 329 972 q 283 870 283 926 q 286 767 283 813 q 295 680 288 722 q 318 602 303 639 q 359 530 334 564 q 519 406 414 460 q 720 602 673 486 q 751 743 748 672 q 754 854 754 813 q 749 916 754 895 q 731 949 744 936 q 639 979 708 972 l 639 1038 l 985 1038 l 985 979 q 905 948 921 970 q 890 851 890 928 z "},"Z":{"ha":925,"x_min":41,"x_max":898,"o":"m 691 956 l 308 956 q 184 913 223 956 q 152 860 165 891 q 124 787 139 829 l 109 747 l 41 747 l 132 1093 l 195 1093 q 204 1051 193 1064 q 237 1038 216 1038 l 873 1038 l 888 998 l 264 83 l 623 83 q 776 133 735 83 q 809 200 798 159 q 832 299 821 241 l 898 299 l 855 -53 l 789 -53 q 760 -3 789 -16 q 743 0 751 0 l 74 0 l 58 41 l 691 956 z "},"[":{"ha":575,"x_min":136,"x_max":449,"o":"m 259 43 q 328 -29 259 -29 l 449 -29 l 449 -102 l 136 -102 l 136 1232 l 449 1232 l 449 1162 l 323 1162 q 277 1145 294 1162 q 259 1099 259 1128 l 259 43 z "},"\\":{"ha":575,"x_min":47,"x_max":528,"o":"m 47 1124 l 151 1124 l 528 -20 l 425 -20 l 47 1124 z "},"]":{"ha":575,"x_min":126,"x_max":439,"o":"m 316 43 q 248 -29 316 -29 l 126 -29 l 126 -102 l 439 -102 l 439 1232 l 126 1232 l 126 1162 l 252 1162 q 298 1145 281 1162 q 316 1099 316 1128 l 316 43 z "},"^":{"ha":922,"x_min":93,"x_max":836,"o":"m 93 441 l 423 1121 l 505 1121 l 836 441 l 739 393 l 471 893 l 464 893 l 189 393 l 93 441 z "},"_":{"ha":806,"x_min":-8,"x_max":814,"o":"m 814 -132 l 814 -212 l -8 -212 l -8 -132 l 814 -132 z "},"`":{"ha":576,"x_min":123,"x_max":431,"o":"m 123 1177 l 260 1268 l 431 952 l 371 915 l 123 1177 z "},"a":{"ha":922,"x_min":115,"x_max":882,"o":"m 302 693 q 291 645 291 672 q 317 578 291 617 l 271 551 q 155 618 191 564 q 142 665 142 636 q 165 726 142 694 q 232 781 189 758 q 468 833 326 833 q 756 699 700 833 q 774 606 774 656 l 774 180 q 789 86 774 102 q 825 65 804 70 q 882 57 846 60 l 882 0 l 714 0 q 600 -5 664 0 q 396 -18 467 -18 q 271 1 325 -18 q 182 52 216 20 q 115 205 115 112 q 232 392 115 307 q 637 502 373 496 l 637 621 q 449 762 637 762 q 302 693 342 762 m 637 431 l 638 431 l 637 432 l 637 431 m 637 431 q 270 205 270 410 q 379 66 270 98 q 464 56 413 56 q 550 62 515 56 q 605 83 586 68 q 631 124 625 98 q 637 191 637 150 l 637 431 z "},"b":{"ha":924,"x_min":68,"x_max":899,"o":"m 68 56 q 163 80 146 63 q 182 116 179 96 q 186 169 186 136 l 186 1000 q 161 1084 186 1065 q 68 1103 145 1096 l 68 1160 l 441 1160 l 441 1103 q 350 1085 365 1096 q 324 1000 324 1067 l 324 749 q 491 838 387 816 q 568 844 524 844 q 659 828 612 844 q 743 782 705 811 q 810 713 781 753 q 859 627 840 673 q 899 421 899 530 q 802 118 899 245 q 632 -3 735 32 q 532 -20 580 -20 q 401 -14 469 -20 q 245 0 275 0 l 68 0 l 68 56 m 324 199 q 361 100 324 134 q 521 58 408 58 q 693 168 633 58 q 746 421 746 263 q 644 734 746 650 q 556 765 606 765 q 465 750 506 765 q 393 709 425 735 q 324 576 324 653 l 324 199 z "},"c":{"ha":810,"x_min":58,"x_max":743,"o":"m 456 71 q 704 158 591 71 l 743 121 q 522 -7 663 24 q 433 -16 477 -16 q 153 114 257 -16 q 58 412 58 235 q 155 716 58 596 q 435 844 259 844 q 603 810 522 844 q 621 804 615 804 q 673 859 665 815 l 726 859 l 726 568 l 670 568 q 446 772 633 772 q 264 661 325 772 q 212 411 212 566 q 373 84 212 146 q 456 71 409 71 z "},"d":{"ha":924,"x_min":83,"x_max":836,"o":"m 633 783 q 212 1165 528 1095 l 227 1225 q 695 962 538 1179 q 836 477 836 766 q 732 116 836 249 q 454 -16 629 -16 q 182 118 288 -16 q 83 411 83 241 q 175 705 83 583 q 450 839 276 839 q 633 783 558 839 m 682 460 q 463 766 682 766 q 285 655 340 766 q 239 409 239 566 q 351 91 239 177 q 460 59 393 59 q 571 90 527 59 q 640 174 615 120 q 682 460 682 267 z "},"e":{"ha":810,"x_min":68,"x_max":724,"o":"m 724 101 q 446 -14 631 -14 q 165 102 267 -14 q 68 398 68 214 q 176 711 68 587 q 451 833 283 833 q 651 779 579 833 q 720 639 720 728 q 608 446 720 524 q 216 352 479 354 q 467 75 240 75 q 686 140 610 75 l 724 101 m 214 425 q 541 539 456 429 q 572 640 572 580 q 505 749 572 719 q 439 760 478 760 q 369 746 399 760 q 314 708 338 732 q 271 652 290 684 q 241 583 253 620 q 214 425 216 506 z "},"f":{"ha":579,"x_min":66,"x_max":606,"o":"m 66 58 q 160 77 143 63 q 181 110 177 92 q 185 157 185 128 l 185 736 l 72 736 l 72 800 q 160 822 142 809 q 182 847 178 834 q 186 878 186 859 l 186 916 q 274 1164 186 1090 q 521 1231 353 1231 l 600 1231 l 606 1158 l 524 1147 q 370 1090 415 1133 q 321 947 321 1045 l 321 819 l 551 819 l 551 736 l 323 736 l 323 171 q 328 115 323 136 q 351 83 334 94 q 491 58 378 66 l 491 0 l 66 0 l 66 58 z "},"g":{"ha":925,"x_min":67,"x_max":886,"o":"m 631 77 q 419 -16 543 -16 q 153 111 248 -16 q 67 399 67 224 q 161 699 67 577 q 457 833 266 833 q 570 829 511 833 q 711 820 683 820 l 886 820 l 886 762 q 793 740 809 757 q 773 703 777 724 q 770 650 770 682 l 770 35 q 673 -264 770 -142 q 390 -398 568 -398 q 218 -357 301 -398 l 245 -284 q 376 -307 303 -307 q 498 -278 448 -307 q 578 -201 548 -248 q 631 33 631 -113 l 631 77 m 221 399 q 425 59 221 59 q 572 116 513 59 q 631 252 631 172 l 631 621 q 609 713 631 690 q 454 760 566 760 q 221 399 221 760 z "},"h":{"ha":1041,"x_min":102,"x_max":1000,"o":"m 357 678 q 583 882 418 798 q 762 744 701 819 q 883 388 862 622 q 890 230 890 306 q 892 127 890 154 q 903 86 895 100 q 929 68 912 73 q 962 61 945 64 q 986 58 979 58 q 1000 56 993 58 l 1000 0 l 631 0 l 631 56 q 693 65 670 61 q 728 82 716 70 q 748 191 748 102 l 748 271 q 741 485 748 425 q 722 585 733 546 q 692 658 711 623 q 577 786 656 722 q 427 659 476 724 q 357 428 357 566 l 357 198 q 360 125 357 151 q 375 85 363 99 q 410 67 387 72 q 475 56 433 62 l 475 0 l 102 0 l 102 56 l 104 56 q 167 66 144 61 q 201 83 190 71 q 219 177 219 102 l 219 999 q 203 1089 219 1074 q 164 1108 187 1104 q 102 1116 141 1113 l 102 1173 l 475 1173 l 475 1116 q 414 1108 437 1112 q 378 1093 391 1104 q 357 999 357 1076 l 357 678 z "},"i":{"ha":461,"x_min":58,"x_max":429,"o":"m 114 1090 l 237 1211 l 358 1090 l 237 967 l 114 1090 m 58 56 l 81 60 q 129 68 111 64 q 157 84 147 73 q 175 180 175 105 l 175 640 q 159 733 175 718 q 119 753 142 749 q 58 761 96 758 l 58 819 l 429 819 l 429 761 q 367 753 390 757 q 332 737 344 749 q 312 640 312 719 l 312 180 q 324 89 312 103 q 354 70 336 75 q 402 60 372 65 l 429 56 l 429 0 l 58 0 l 58 56 z "},"j":{"ha":461,"x_min":-37,"x_max":437,"o":"m 122 1090 l 245 1211 l 366 1090 l 245 967 l 122 1090 m 183 655 q 161 739 183 721 q 66 761 143 753 l 66 819 l 437 819 l 437 761 q 376 753 399 757 q 340 737 353 749 q 320 640 320 718 l 320 210 q 301 -49 320 24 q 259 -162 282 -122 q 201 -239 236 -203 q 0 -383 146 -293 l -37 -337 l -7 -309 q 28 -274 6 -295 q 76 -227 51 -253 q 119 -175 100 -201 q 149 -120 137 -149 q 170 -52 161 -90 q 183 157 183 18 l 183 655 z "},"k":{"ha":925,"x_min":54,"x_max":943,"o":"m 54 56 l 77 60 q 152 82 139 68 q 171 180 171 104 l 171 982 q 155 1074 171 1059 q 116 1094 139 1090 q 54 1102 93 1099 l 54 1160 l 426 1160 l 426 1102 q 364 1094 387 1098 q 329 1078 341 1090 q 309 982 309 1060 l 309 180 q 321 89 309 103 q 352 70 334 74 q 400 60 370 65 l 426 56 l 426 0 l 54 0 l 54 56 m 356 441 l 576 654 l 594 670 q 611 686 603 678 l 626 703 q 641 729 641 719 q 634 746 641 740 q 615 755 627 753 q 562 761 596 761 l 562 820 l 922 820 l 922 765 q 734 677 809 753 l 527 467 l 943 -112 l 897 -151 l 356 441 z "},"l":{"ha":465,"x_min":60,"x_max":452,"o":"m 60 56 l 84 60 q 132 68 113 64 q 160 84 150 73 q 178 180 178 105 l 178 996 q 161 1088 178 1073 q 122 1108 145 1103 q 60 1116 99 1112 l 60 1173 l 315 1173 l 315 180 q 338 87 315 109 q 419 61 355 70 l 452 56 l 452 0 l 60 0 l 60 56 z "},"m":{"ha":1501,"x_min":100,"x_max":1478,"o":"m 100 56 l 119 59 q 195 81 182 68 q 212 116 208 95 q 215 176 215 138 l 215 660 q 199 735 215 722 q 161 754 184 749 q 100 761 138 758 l 100 819 l 353 819 l 353 678 q 418 777 382 741 q 560 882 479 840 q 688 790 646 833 q 793 635 759 717 q 959 827 846 744 q 1040 883 996 855 q 1234 736 1168 812 q 1358 387 1338 618 q 1364 231 1364 306 q 1368 129 1364 156 q 1382 87 1372 102 q 1409 68 1392 73 q 1453 60 1426 64 l 1478 56 l 1478 0 l 1107 0 l 1107 56 q 1169 65 1146 61 q 1204 82 1192 70 q 1225 191 1225 102 l 1225 294 q 1192 582 1227 487 q 1040 787 1156 684 q 918 644 956 717 q 870 486 880 570 q 856 251 856 366 q 860 116 856 136 q 875 84 864 95 q 955 59 891 68 l 973 56 l 973 0 l 602 0 l 602 56 q 663 65 640 61 q 699 81 686 69 q 718 187 718 100 l 718 269 q 696 565 718 488 q 641 691 674 643 q 553 786 608 739 q 414 654 461 727 q 353 428 353 559 l 353 198 q 366 91 353 109 q 399 68 379 73 q 452 58 418 63 l 470 56 l 470 0 l 100 0 l 100 56 z "},"n":{"ha":1043,"x_min":103,"x_max":998,"o":"m 357 678 q 578 882 418 801 q 758 745 695 819 q 879 388 858 625 q 886 231 886 307 q 888 127 886 155 q 900 86 891 100 q 926 68 909 73 q 960 61 943 64 q 984 58 977 58 q 998 56 991 58 l 998 0 l 627 0 l 627 56 q 689 65 666 61 q 724 82 712 70 q 744 191 744 102 l 744 270 q 736 485 744 425 q 718 584 729 545 q 688 658 707 623 q 571 786 650 723 q 357 428 357 654 l 357 198 q 370 91 357 109 q 403 68 383 73 q 456 58 422 63 l 474 56 l 474 0 l 103 0 l 103 56 q 114 58 107 58 q 137 61 120 58 q 173 68 155 63 q 202 84 192 73 q 219 176 219 102 l 219 660 q 203 735 219 722 q 165 754 188 749 q 103 761 142 758 l 103 819 l 357 819 l 357 678 z "},"o":{"ha":925,"x_min":82,"x_max":842,"o":"m 82 414 q 93 519 82 467 q 124 618 103 571 q 178 704 146 665 q 252 772 210 743 q 461 833 342 833 q 746 704 642 833 q 842 413 842 586 q 746 117 842 239 q 461 -16 642 -16 q 176 119 281 -16 q 82 414 82 241 m 382 74 q 462 59 416 59 q 543 74 508 59 q 602 114 577 88 q 644 174 627 140 q 671 248 661 208 q 689 387 689 318 q 685 498 689 456 q 671 579 681 541 q 644 650 661 617 q 602 708 627 684 q 463 760 548 760 q 255 575 302 760 q 237 413 237 505 q 382 74 237 136 z "},"p":{"ha":925,"x_min":45,"x_max":864,"o":"m 513 -16 q 300 75 387 -16 l 300 -224 q 328 -308 300 -291 q 432 -328 348 -320 l 432 -384 l 52 -384 l 52 -328 l 54 -328 q 137 -310 122 -321 q 162 -224 162 -290 l 162 650 q 147 732 162 717 q 108 754 132 748 q 45 763 85 760 l 45 819 l 221 819 q 316 823 263 819 q 483 833 425 833 q 596 816 541 833 q 694 770 651 800 q 770 700 738 741 q 823 612 802 660 q 864 420 864 518 q 843 247 864 322 q 779 113 822 171 q 513 -16 684 -16 m 711 403 q 477 761 711 761 q 305 674 320 761 q 300 621 300 649 l 300 248 q 359 114 300 168 q 496 59 420 59 q 611 90 572 59 q 673 170 651 121 q 711 403 711 255 z "},"q":{"ha":925,"x_min":87,"x_max":924,"o":"m 127 209 q 117 233 127 209 q 97 310 107 257 q 87 431 87 363 q 111 573 87 498 q 182 705 134 648 q 466 833 286 833 q 721 732 629 833 q 807 484 807 637 l 807 -237 q 823 -300 807 -288 q 924 -326 848 -319 l 924 -384 l 553 -384 l 553 -327 l 554 -326 q 645 -307 629 -319 q 665 -277 661 -294 q 669 -229 669 -259 l 669 79 q 583 10 637 37 q 459 -17 528 -17 q 340 0 391 -17 q 249 48 290 18 q 178 119 209 78 q 127 209 148 161 m 381 77 q 454 63 415 63 q 530 74 493 63 q 597 109 566 85 q 669 256 669 162 l 669 459 q 566 734 669 667 q 474 760 527 760 q 387 746 422 760 q 328 708 353 732 q 286 650 302 683 q 259 578 269 616 q 241 415 241 508 q 381 77 241 138 z "},"r":{"ha":810,"x_min":95,"x_max":743,"o":"m 568 573 q 606 684 606 610 q 571 742 606 721 q 482 759 542 759 q 353 675 353 759 l 353 159 q 359 111 353 130 q 385 81 365 92 q 548 56 420 60 l 548 0 l 95 0 l 95 56 l 96 56 q 192 79 176 64 q 212 113 208 94 q 216 165 216 132 l 216 635 q 201 726 216 709 q 165 751 186 744 q 110 762 144 758 l 110 819 l 250 819 q 369 823 334 819 q 425 827 404 826 q 524 833 486 833 q 603 827 562 833 q 675 806 644 821 q 743 705 743 773 q 699 602 743 650 q 605 543 656 557 l 568 573 z "},"s":{"ha":807,"x_min":109,"x_max":750,"o":"m 549 606 q 575 679 575 646 q 537 735 575 711 q 446 760 498 760 q 364 751 393 760 q 316 724 336 741 q 277 635 277 691 q 390 511 277 568 q 445 484 422 494 q 663 370 616 407 q 729 299 709 333 q 750 215 750 265 q 722 121 750 165 q 648 46 694 77 q 423 -16 555 -16 q 209 34 300 -16 q 111 170 109 87 q 153 258 113 219 q 241 304 190 292 l 271 269 q 245 184 245 237 q 294 100 245 137 q 432 59 348 59 q 565 97 517 59 q 614 199 614 135 q 489 330 614 273 q 428 357 452 347 q 398 370 404 367 q 365 385 392 372 q 293 422 337 397 q 216 477 250 448 q 145 620 145 541 q 232 777 145 718 q 452 833 315 833 q 626 791 557 833 q 695 686 695 749 q 658 614 695 647 q 588 578 625 587 l 549 606 z "},"t":{"ha":581,"x_min":82,"x_max":580,"o":"m 108 56 q 156 68 138 63 q 183 85 174 73 q 198 187 198 105 l 198 736 l 82 736 l 82 799 q 196 828 181 813 l 195 828 q 222 919 210 848 q 236 1023 233 989 l 334 1063 l 334 819 l 580 819 l 580 736 l 334 736 l 334 189 q 343 109 334 126 q 366 83 353 92 q 403 71 380 75 q 539 63 440 64 l 539 0 l 108 0 l 108 56 z "},"u":{"ha":923,"x_min":39,"x_max":882,"o":"m 461 -35 q 271 109 332 42 q 142 449 164 226 q 134 598 134 529 q 133 691 134 668 q 122 729 132 715 q 39 761 106 755 l 39 819 l 373 819 l 373 761 q 286 731 306 754 q 271 636 271 711 q 273 496 271 561 q 282 379 275 431 q 302 287 289 328 q 336 209 315 245 q 461 61 376 141 q 578 194 549 143 q 621 287 608 245 q 640 379 633 328 q 652 572 652 467 q 649 698 652 677 q 636 731 646 718 q 550 761 616 754 l 550 819 l 882 819 l 882 761 q 804 734 816 751 q 790 694 793 717 q 788 600 788 671 q 780 449 788 529 q 756 307 772 369 q 713 196 739 244 q 651 109 688 149 q 461 -35 590 42 z "},"v":{"ha":808,"x_min":-8,"x_max":817,"o":"m 117 647 q 75 728 92 711 q -8 762 48 754 l -8 819 l 323 819 l 323 761 q 262 755 275 759 q 236 722 236 747 q 244 685 236 707 l 424 205 l 587 635 q 606 707 606 686 q 599 737 606 728 q 581 752 592 747 q 519 761 562 761 l 519 819 l 817 819 l 817 762 q 711 661 750 762 l 435 -31 l 385 -31 l 117 647 z "},"w":{"ha":1390,"x_min":43,"x_max":1347,"o":"m 452 41 q 564 176 537 125 q 602 269 591 228 q 618 361 613 311 q 627 551 627 436 q 625 692 627 666 q 611 733 622 718 q 579 753 601 747 q 522 762 558 759 l 522 819 l 869 819 l 869 762 q 811 752 833 758 q 779 734 790 747 q 762 623 762 713 q 764 466 762 533 q 773 348 766 399 q 792 256 780 296 q 823 180 804 216 q 939 41 858 119 q 1057 194 1021 123 q 1101 347 1093 268 q 1114 568 1114 457 q 1112 700 1114 678 q 1099 734 1109 721 q 1007 762 1081 755 l 1007 819 l 1347 819 l 1347 762 q 1264 736 1280 753 q 1248 621 1248 716 q 1241 445 1248 526 q 1220 300 1235 364 q 1182 185 1205 236 q 1124 94 1158 135 q 939 -55 1062 19 q 804 53 849 4 q 696 217 729 136 q 614 83 658 130 q 452 -55 541 2 q 267 94 328 19 q 149 445 168 213 q 142 598 142 526 q 140 693 142 669 q 128 731 138 718 q 43 762 113 753 l 43 819 l 383 819 l 383 762 q 290 731 309 756 q 276 636 276 712 q 278 493 276 559 q 285 372 279 426 q 302 276 291 319 q 334 194 314 233 q 452 41 370 122 z "},"x":{"ha":925,"x_min":68,"x_max":908,"o":"m 68 56 q 142 72 129 61 q 160 96 155 82 q 172 132 165 110 l 176 146 q 404 422 231 311 q 210 606 261 505 q 185 669 193 638 q 170 717 176 701 q 152 743 163 734 q 68 764 136 757 l 68 819 l 425 819 l 425 764 q 343 750 357 759 q 329 732 330 741 q 328 713 328 724 q 335 675 328 702 q 361 613 342 648 q 486 470 407 526 q 633 613 581 526 q 671 712 671 676 q 661 745 671 738 q 581 764 642 759 l 581 819 l 901 819 l 901 764 q 825 745 840 757 q 803 721 809 734 q 791 688 797 707 l 786 673 q 726 555 760 598 q 571 423 665 479 q 801 146 758 311 q 827 78 814 89 q 908 56 844 62 l 908 0 l 552 0 l 552 56 q 631 70 616 60 q 648 87 646 79 q 650 107 650 96 q 643 149 650 118 q 618 218 636 179 q 486 379 571 317 q 332 218 389 317 q 291 107 291 146 q 305 74 291 81 q 410 56 331 60 l 410 0 l 68 0 l 68 56 z "},"y":{"ha":923,"x_min":34,"x_max":882,"o":"m 647 124 q 434 -62 570 5 q 254 75 317 0 q 133 431 154 195 q 126 587 126 513 q 123 688 126 661 q 110 731 119 716 q 82 752 100 747 q 34 761 64 758 l 34 819 l 376 819 l 376 761 l 359 759 q 310 750 328 755 q 283 734 292 746 q 268 628 268 713 l 268 549 q 272 370 268 446 q 294 235 277 294 q 440 33 328 122 q 648 392 648 161 l 648 621 q 636 729 648 713 q 605 750 623 745 q 557 759 587 755 l 541 761 l 541 819 l 882 819 l 882 762 l 880 761 q 807 736 821 755 q 786 616 786 705 l 786 313 q 700 -155 786 9 q 330 -398 595 -356 l 315 -327 q 555 -179 478 -287 q 647 124 631 -75 z "},"z":{"ha":809,"x_min":75,"x_max":785,"o":"m 682 -35 q 633 0 677 0 l 90 0 l 75 43 l 579 736 l 333 736 q 213 694 252 736 q 180 646 194 675 l 153 583 l 85 583 l 156 854 l 220 854 q 276 819 227 819 l 754 819 l 769 777 l 271 83 l 524 83 q 662 119 622 83 q 720 233 692 146 l 785 233 l 749 -35 l 682 -35 z "},"{":{"ha":693,"x_min":97,"x_max":589,"o":"m 420 861 q 239 567 420 618 q 420 273 420 515 l 419 149 q 456 7 419 50 q 589 -50 493 -37 l 588 -113 q 372 -47 445 -113 q 287 203 287 29 l 287 319 q 180 509 287 468 q 97 526 144 522 l 97 608 q 275 726 241 621 q 287 814 287 763 l 287 931 q 467 1232 287 1183 q 588 1246 522 1246 l 589 1184 q 457 1128 494 1171 q 419 985 419 1084 l 420 861 z "},"|":{"ha":346,"x_min":123,"x_max":222,"o":"m 123 1295 l 222 1295 l 222 -131 l 123 -131 l 123 1295 z "},"}":{"ha":693,"x_min":104,"x_max":596,"o":"m 273 861 q 454 567 273 618 q 273 273 273 515 l 274 149 q 237 7 274 50 q 104 -50 200 -37 l 105 -113 q 321 -47 248 -113 q 406 203 406 29 l 406 319 q 513 509 406 468 q 596 526 549 522 l 596 608 q 418 726 452 621 q 406 814 406 763 l 406 931 q 227 1232 406 1183 q 105 1246 171 1246 l 104 1184 q 236 1128 199 1171 q 274 985 274 1084 l 273 861 z "},"~":{"ha":929,"x_min":89,"x_max":840,"o":"m 619 574 q 791 673 722 574 l 840 637 q 753 525 795 558 q 583 460 675 460 q 497 475 536 460 q 423 508 458 491 l 376 530 q 290 551 334 551 q 137 458 203 551 l 89 495 q 345 661 182 661 q 475 625 399 661 l 545 594 q 619 574 591 574 z "}," ":{"ha":321,"x_min":0,"x_max":0,"o":""},"¡":{"ha":347,"x_min":67,"x_max":315,"o":"m 67 1044 l 189 1166 l 311 1044 l 189 923 l 67 1044 m 71 92 q 147 557 125 239 q 159 850 157 699 l 224 850 q 315 92 231 307 l 192 -30 l 71 92 z "},"¢":{"ha":922,"x_min":123,"x_max":808,"o":"m 522 71 q 769 159 656 71 l 808 121 q 593 -4 732 29 q 506 -16 549 -15 l 488 -200 l 410 -195 l 428 -9 q 201 140 286 15 q 123 413 123 254 q 220 717 123 597 q 500 845 324 845 l 511 845 l 528 1016 l 607 1010 l 589 836 q 655 816 627 827 q 686 804 684 804 q 738 859 730 816 l 791 859 l 791 569 l 735 569 q 583 764 709 732 l 514 71 l 522 71 m 505 773 q 298 585 350 768 q 277 434 277 509 q 285 309 277 360 q 312 214 293 258 q 437 85 353 117 l 505 773 z "},"£":{"ha":1037,"x_min":86,"x_max":966,"o":"m 774 1014 q 836 1058 816 1014 l 906 1058 l 825 699 l 753 699 q 755 725 754 711 l 755 747 q 756 778 756 756 q 750 839 756 800 q 725 911 743 878 q 589 985 684 985 q 453 917 494 985 q 422 782 422 865 q 431 639 422 719 q 444 524 440 559 l 726 524 l 707 447 l 449 447 q 451 360 451 411 q 447 268 451 309 q 438 199 443 226 q 430 155 434 172 q 426 123 426 138 q 434 97 426 107 q 461 81 443 87 q 555 75 487 75 q 663 76 624 75 q 733 85 702 78 q 789 105 764 92 q 833 144 813 119 q 897 296 871 193 l 966 296 l 923 0 l 86 0 l 86 56 q 264 152 220 79 q 302 373 302 214 q 298 447 302 401 l 139 447 l 157 524 l 290 524 q 275 717 275 648 q 297 849 275 785 q 361 960 319 913 q 596 1058 449 1058 q 688 1043 648 1058 l 745 1021 q 774 1014 762 1014 z "},"¤":{"ha":1039,"x_min":134,"x_max":904,"o":"m 519 227 q 345 282 416 227 l 189 120 l 134 174 l 296 332 q 241 505 241 410 q 296 679 241 600 l 134 835 l 189 889 l 346 728 q 519 783 418 783 q 692 728 621 783 l 850 889 l 904 835 l 742 679 q 799 507 799 602 q 743 331 799 411 l 904 174 l 850 120 l 694 281 q 519 227 623 227 m 393 381 q 405 362 393 381 q 446 323 416 342 q 520 305 475 305 q 596 323 566 305 q 642 370 625 342 q 672 505 672 421 q 595 688 672 642 q 521 706 566 706 q 400 640 439 706 q 370 505 370 588 q 393 381 370 421 z "},"¥":{"ha":1154,"x_min":95,"x_max":1055,"o":"m 960 852 q 730 510 960 629 l 962 510 l 943 433 l 644 433 l 644 306 l 962 306 l 943 229 l 644 229 l 644 180 q 647 119 644 141 q 665 85 651 97 q 707 68 680 74 q 783 57 735 63 l 783 1 l 368 1 l 368 57 q 480 82 462 68 q 503 119 498 97 q 507 180 507 141 l 507 229 l 177 229 l 195 306 l 507 306 l 507 433 l 177 433 l 195 510 l 419 510 q 190 852 190 626 q 189 910 190 887 q 178 947 187 933 q 95 979 161 973 l 95 1038 l 442 1038 l 442 979 q 349 949 372 972 q 326 866 326 927 q 340 754 326 805 q 384 662 353 703 q 576 544 446 576 q 814 754 781 590 q 824 850 824 805 q 819 916 824 896 q 801 949 814 937 q 709 979 778 972 l 709 1038 l 1055 1038 l 1055 979 q 975 949 991 971 q 960 852 960 929 z "},"¦":{"ha":346,"x_min":123,"x_max":222,"o":"m 123 1296 l 222 1296 l 222 691 l 123 691 l 123 1296 m 123 473 l 222 473 l 222 -130 l 123 -130 l 123 473 z "},"§":{"ha":806,"x_min":109,"x_max":707,"o":"m 497 873 q 543 971 543 920 q 504 1065 543 1029 q 395 1101 463 1101 q 269 1034 302 1101 q 258 985 258 1013 q 272 931 258 957 q 307 884 286 906 q 353 844 328 863 l 401 806 l 533 696 q 644 585 612 630 q 707 425 707 498 q 653 275 707 334 q 511 215 598 215 q 488 217 496 215 l 519 187 q 573 139 545 163 q 627 90 602 115 q 683 -28 683 30 q 660 -124 683 -86 q 599 -189 637 -162 q 398 -241 520 -241 q 204 -191 283 -241 q 119 -43 119 -136 q 244 132 119 48 l 312 178 l 271 212 q 122 406 160 304 q 109 485 109 444 q 124 564 109 526 q 168 630 140 602 q 313 690 228 690 q 326 689 321 690 q 336 687 332 688 q 261 748 298 720 q 196 806 224 777 q 134 951 134 871 q 212 1101 134 1044 q 413 1158 290 1158 q 596 1107 523 1158 q 670 981 670 1057 q 558 854 670 904 l 497 873 m 331 351 q 490 275 417 275 q 563 305 534 275 q 593 373 593 336 q 493 541 593 446 q 321 630 393 630 q 251 601 281 630 q 221 538 221 572 q 228 482 221 504 q 247 441 234 460 q 331 351 269 406 m 255 19 q 245 -33 245 -5 q 254 -91 245 -61 q 282 -142 262 -120 q 399 -188 323 -188 q 517 -157 475 -188 q 558 -68 558 -126 q 444 84 558 6 l 389 121 q 374 132 381 127 l 359 143 q 255 19 288 94 z "},"¨":{"ha":692,"x_min":64,"x_max":628,"o":"m 382 1093 l 507 1215 l 628 1093 l 507 971 l 382 1093 m 64 1093 l 188 1215 l 309 1093 l 188 971 l 64 1093 z "},"©":{"ha":1268,"x_min":50,"x_max":1156,"o":"m 50 458 q 210 853 50 690 q 456 997 312 957 q 605 1017 527 1017 q 753 997 682 1017 q 886 941 825 977 q 997 853 947 905 q 1082 741 1047 802 q 1156 458 1156 610 q 1082 176 1156 306 q 886 -23 1010 51 q 605 -98 758 -98 q 210 64 372 -98 q 69 309 108 167 q 50 458 50 380 m 124 458 q 190 213 124 329 q 362 33 254 100 q 591 -37 475 -37 q 795 1 708 -37 q 946 107 882 40 q 1081 458 1081 248 q 950 806 1081 662 q 739 936 865 899 q 606 954 676 954 q 472 936 535 954 q 356 884 409 918 q 259 805 302 851 q 186 704 216 759 q 124 458 124 589 m 772 566 q 773 598 773 576 q 762 650 773 621 q 731 701 751 680 q 627 747 688 747 q 528 720 565 747 q 468 649 491 692 q 425 448 425 568 q 533 196 425 267 q 627 171 572 171 q 730 200 682 171 q 826 281 777 229 l 860 243 q 683 119 799 149 q 588 109 646 109 q 469 137 530 109 q 368 213 409 165 q 286 450 286 308 q 370 694 286 593 q 610 804 462 804 q 703 791 666 804 q 774 770 762 770 q 792 773 785 770 q 806 780 799 775 q 830 804 823 791 l 869 804 l 810 566 l 772 566 z "},"ª":{"ha":806,"x_min":110,"x_max":696,"o":"m 383 1098 q 305 1078 336 1098 q 275 1031 275 1059 q 298 975 275 1004 l 254 943 q 170 1000 196 957 q 160 1039 160 1015 q 178 1087 160 1063 q 227 1128 195 1112 q 405 1166 295 1166 q 567 1121 515 1166 q 618 998 618 1076 l 618 679 q 629 623 618 632 q 696 605 645 609 l 696 536 l 562 536 q 510 534 536 536 l 459 530 q 343 524 401 524 q 240 539 286 524 q 165 578 195 553 q 110 697 110 625 q 130 765 110 728 q 196 835 151 802 q 492 918 303 911 l 492 1008 q 383 1098 492 1098 m 492 850 q 249 697 249 832 q 287 625 249 656 q 375 593 328 593 q 443 598 422 593 q 475 613 463 602 q 492 687 492 631 l 492 850 m 427 393 l 547 272 l 427 149 l 303 272 l 427 393 z "},"«":{"ha":1040,"x_min":102,"x_max":951,"o":"m 900 820 l 951 784 l 709 441 l 951 100 l 900 64 l 485 441 l 900 820 m 517 820 l 568 784 l 326 441 l 568 100 l 517 64 l 102 441 l 517 820 z "},"¬":{"ha":922,"x_min":97,"x_max":825,"o":"m 124 736 l 825 736 l 825 321 l 711 321 l 711 622 l 97 622 l 124 736 z "},"­":{"ha":922,"x_min":170,"x_max":751,"o":"m 198 623 l 751 623 l 722 511 l 170 511 l 198 623 z "},"®":{"ha":1268,"x_min":50,"x_max":1156,"o":"m 50 458 q 210 853 50 690 q 456 997 312 957 q 605 1017 527 1017 q 753 997 682 1017 q 886 941 825 977 q 997 853 947 905 q 1082 741 1047 802 q 1156 458 1156 610 q 1082 176 1156 306 q 886 -23 1010 51 q 605 -98 758 -98 q 210 64 372 -98 q 69 309 108 167 q 50 458 50 380 m 124 458 q 190 213 124 329 q 362 33 254 100 q 591 -37 475 -37 q 795 1 708 -37 q 946 107 882 40 q 1081 458 1081 248 q 950 806 1081 662 q 739 936 865 899 q 606 954 676 954 q 472 936 535 954 q 356 884 409 918 q 259 805 302 851 q 186 704 216 759 q 124 458 124 589 m 593 429 l 547 430 q 531 431 541 431 l 531 251 q 543 195 531 207 q 611 172 562 177 l 611 138 l 329 138 l 329 169 l 330 170 q 392 192 379 178 q 413 262 413 214 l 413 675 q 399 730 413 718 q 329 756 377 749 l 329 789 l 627 789 q 844 696 791 789 q 863 614 863 663 q 722 443 863 481 l 924 127 l 885 96 l 603 429 l 593 429 m 531 711 l 531 482 q 676 499 642 482 q 725 542 710 515 q 739 607 739 568 q 730 669 739 646 q 703 707 720 692 q 600 735 668 735 q 531 711 531 735 z "},"¯":{"ha":806,"x_min":176,"x_max":630,"o":"m 176 1157 l 630 1177 l 630 1053 l 176 1068 l 176 1157 z "},"°":{"ha":695,"x_min":94,"x_max":602,"o":"m 347 640 q 248 659 294 640 q 167 713 201 679 q 94 893 94 785 q 167 1073 94 999 q 348 1146 241 1146 q 528 1073 453 1146 q 602 893 602 1000 q 528 713 602 785 q 347 640 453 640 m 347 720 q 412 734 382 720 q 464 772 441 748 q 511 893 511 825 q 464 1013 511 961 q 348 1066 416 1066 q 232 1013 279 1066 q 184 893 184 962 q 232 772 184 823 q 347 720 279 720 z "},"±":{"ha":922,"x_min":67,"x_max":855,"o":"m 418 629 l 67 629 l 94 742 l 418 742 l 418 991 l 532 991 l 532 742 l 855 742 l 827 629 l 532 629 l 532 414 l 418 414 l 418 629 m 94 304 l 855 304 l 827 191 l 67 191 l 94 304 z "},"²":{"ha":838,"x_min":77,"x_max":791,"o":"m 382 1172 q 136 957 224 1172 l 77 957 l 175 1297 l 229 1297 q 240 1257 229 1271 q 264 1242 252 1242 q 286 1244 276 1242 l 308 1249 q 428 1265 379 1265 q 523 1251 476 1265 q 606 1208 570 1236 q 686 1051 686 1147 q 606 876 686 962 q 321 646 535 800 l 541 646 q 663 678 621 646 q 732 789 703 711 l 791 789 l 719 476 l 660 476 q 640 515 655 501 q 604 529 625 529 l 103 529 l 96 564 l 201 640 q 541 1024 541 886 q 458 1158 541 1120 q 382 1172 427 1172 z "},"³":{"ha":804,"x_min":102,"x_max":736,"o":"m 692 1219 q 537 928 692 1060 q 662 868 599 920 q 736 712 736 807 q 631 497 736 574 q 399 430 538 430 q 170 484 276 430 q 115 518 138 500 l 142 579 q 309 512 204 530 q 381 507 342 507 q 460 517 419 507 q 533 551 502 528 q 603 680 603 599 q 547 785 603 738 q 391 836 484 839 q 356 819 374 827 l 322 805 l 296 864 q 480 983 407 907 q 564 1130 547 1052 l 306 1130 q 217 1090 250 1130 q 163 988 193 1061 l 102 988 l 192 1303 l 250 1303 q 249 1297 249 1299 l 249 1291 q 292 1249 249 1249 l 692 1249 l 692 1219 z "},"´":{"ha":576,"x_min":222,"x_max":536,"o":"m 222 959 l 394 1275 l 536 1184 l 289 922 l 222 959 z "},"µ":{"ha":1153,"x_min":111,"x_max":1041,"o":"m 221 616 q 207 727 221 707 q 173 753 192 747 q 125 762 155 759 l 125 820 l 467 820 l 467 762 l 448 759 q 384 741 396 751 q 359 665 362 721 l 359 363 q 497 88 370 194 q 573 34 534 58 q 787 392 787 162 l 787 621 q 774 728 787 710 q 744 751 762 746 q 697 760 726 755 l 680 762 l 680 820 l 1021 820 l 1021 762 l 1020 762 q 946 736 960 756 q 928 689 932 717 q 924 616 924 662 l 924 160 q 940 84 924 98 q 979 65 956 70 q 1041 58 1002 61 l 1041 0 l 787 0 l 787 142 q 573 -61 722 14 q 359 125 432 7 l 359 -223 q 387 -308 359 -290 q 492 -328 406 -320 l 492 -384 l 111 -384 l 111 -328 q 196 -310 181 -321 q 221 -223 221 -290 l 221 616 z "},"¶":{"ha":1155,"x_min":56,"x_max":1035,"o":"m 574 237 q 557 237 565 237 q 541 237 549 237 q 176 373 308 237 q 56 690 56 499 q 183 1020 56 893 q 583 1160 323 1160 q 721 1152 644 1160 q 876 1139 844 1139 l 1035 1139 l 1035 1083 q 941 1060 958 1076 q 921 1024 924 1044 q 917 972 918 1004 l 882 -383 l 802 -383 l 779 1071 l 693 1071 l 669 -383 l 591 -383 l 574 237 m 552 1070 q 283 680 283 1052 q 357 414 283 509 q 572 315 431 317 l 552 1070 z "},"·":{"ha":347,"x_min":51,"x_max":295,"o":"m 51 468 l 174 589 l 295 468 l 174 345 l 51 468 z "},"¸":{"ha":633,"x_min":182,"x_max":465,"o":"m 324 -238 q 182 -149 324 -149 l 241 1 l 321 1 l 288 -86 q 410 -119 359 -85 q 465 -216 465 -155 q 422 -311 465 -266 q 277 -390 370 -366 q 230 -398 251 -397 l 191 -342 q 289 -300 253 -327 q 324 -238 324 -273 z "},"¹":{"ha":667,"x_min":94,"x_max":573,"o":"m 94 581 q 216 596 189 585 q 253 624 242 608 q 264 668 264 640 l 264 1099 q 259 1156 264 1134 q 235 1191 253 1178 q 94 1212 203 1212 l 94 1269 l 400 1269 l 400 668 q 445 599 400 617 q 573 581 477 586 l 573 526 l 94 526 l 94 581 z "},"º":{"ha":806,"x_min":102,"x_max":704,"o":"m 403 524 q 271 551 328 524 q 178 625 215 579 q 102 844 102 715 q 178 1065 102 975 q 403 1166 262 1166 q 628 1065 545 1166 q 704 844 704 975 q 628 623 704 713 q 403 524 545 524 m 322 616 q 404 593 354 593 q 485 616 454 593 q 535 675 517 639 q 568 844 568 739 q 486 1076 568 1016 q 404 1098 454 1098 q 322 1075 354 1098 q 272 1015 290 1051 q 240 844 240 951 q 322 616 240 675 m 401 393 l 522 272 l 401 149 l 278 272 l 401 393 z "},"»":{"ha":1040,"x_min":108,"x_max":957,"o":"m 734 441 l 491 784 l 542 820 l 957 441 l 542 64 l 491 100 l 734 441 m 351 441 l 108 784 l 159 820 l 574 441 l 159 64 l 108 100 l 351 441 z "},"¼":{"ha":1827,"x_min":109,"x_max":1716,"o":"m 1008 1337 l 1110 1337 l 593 -239 l 488 -239 l 1008 1337 m 1485 983 l 1459 235 l 1474 235 q 1590 269 1550 235 q 1656 379 1627 301 l 1716 379 l 1649 85 l 1590 85 q 1572 123 1586 109 q 1539 138 1558 138 l 1456 138 l 1447 -130 l 1369 -130 l 1360 138 l 930 138 l 913 188 l 1485 983 m 1356 235 l 1344 611 l 1060 235 l 1356 235 m 109 581 q 231 597 205 586 q 269 625 258 608 q 280 669 280 641 l 280 1099 q 274 1157 280 1135 q 250 1191 269 1179 q 109 1213 219 1213 l 109 1270 l 416 1270 l 416 669 q 460 600 416 618 q 589 582 492 587 l 589 527 l 109 527 l 109 581 z "},"½":{"ha":1796,"x_min":109,"x_max":1687,"o":"m 981 1336 l 1084 1336 l 566 -240 l 462 -240 l 981 1336 m 109 581 q 231 597 204 586 q 268 625 257 608 q 279 669 279 641 l 279 1099 q 274 1157 279 1135 q 250 1191 268 1179 q 109 1213 218 1213 l 109 1270 l 415 1270 l 415 669 q 460 600 415 618 q 588 582 492 587 l 588 527 l 109 527 l 109 581 m 1278 644 q 1031 429 1120 644 l 972 429 l 1070 769 l 1124 769 q 1136 729 1124 743 q 1159 715 1147 715 q 1181 717 1171 715 l 1203 722 q 1323 738 1274 738 q 1418 723 1371 738 q 1501 680 1465 708 q 1581 524 1581 619 q 1501 348 1581 434 q 1217 118 1430 272 l 1436 118 q 1558 151 1516 118 q 1627 261 1598 183 l 1687 261 l 1614 -52 l 1555 -52 q 1535 -13 1550 -26 q 1499 1 1520 1 l 998 1 l 991 37 l 1096 112 q 1436 496 1436 359 q 1353 631 1436 592 q 1278 644 1322 644 z "},"¾":{"ha":1943,"x_min":109,"x_max":1832,"o":"m 1121 1336 l 1224 1336 l 706 -240 l 602 -240 l 1121 1336 m 1602 983 l 1575 235 l 1590 235 q 1706 269 1665 235 q 1773 379 1744 301 l 1832 379 l 1765 85 l 1706 85 q 1688 123 1702 109 q 1655 138 1674 138 l 1572 138 l 1563 -130 l 1485 -130 l 1476 138 l 1046 138 l 1029 188 l 1602 983 m 1472 235 l 1460 611 l 1175 235 l 1472 235 m 699 1220 q 544 928 699 1061 q 669 869 606 921 q 743 713 743 808 q 637 498 743 575 q 406 431 545 431 q 176 484 283 431 q 122 519 144 500 l 149 580 q 316 513 211 530 q 388 507 349 507 q 467 518 426 507 q 540 551 509 529 q 610 681 610 600 q 554 786 610 739 q 398 837 491 840 q 363 820 380 827 l 329 806 l 302 865 q 487 983 414 907 q 571 1131 554 1053 l 313 1131 q 224 1090 257 1131 q 170 989 200 1062 l 109 989 l 199 1303 l 256 1303 q 256 1297 256 1300 l 256 1291 q 299 1249 256 1249 l 699 1249 l 699 1220 z "},"¿":{"ha":810,"x_min":77,"x_max":755,"o":"m 545 16 l 412 9 q 176 83 268 9 q 77 308 77 164 q 155 538 77 440 q 363 666 235 639 l 378 863 l 444 863 l 471 600 l 428 600 q 239 321 239 572 q 290 151 239 216 q 427 82 341 82 q 578 125 526 82 q 678 302 635 172 l 755 302 l 673 -38 l 595 -38 q 578 2 593 -13 q 545 16 563 16 m 411 948 l 290 1069 l 411 1192 l 534 1069 l 411 948 z "},"À":{"ha":1040,"x_min":31,"x_max":1009,"o":"m 31 56 q 119 80 109 70 q 130 103 130 90 q 131 142 131 117 l 130 212 l 130 249 q 221 783 130 608 q 394 987 279 895 q 519 1078 450 1031 l 519 1078 q 742 891 671 977 q 865 644 828 789 q 903 250 903 496 l 903 212 l 903 144 q 905 104 903 118 q 917 81 907 90 q 1009 56 930 70 l 1009 0 l 637 0 l 637 56 q 743 85 726 66 q 759 132 758 101 q 761 193 761 163 l 761 357 l 273 357 l 273 193 q 276 124 273 149 q 290 86 278 99 q 328 67 302 73 q 398 56 353 62 l 398 0 l 31 0 l 31 56 m 760 433 q 711 722 758 608 q 519 982 661 842 q 385 825 423 886 q 329 722 347 764 q 300 634 311 680 q 275 433 281 554 l 760 433 m 327 1188 l 404 1336 l 711 1147 l 689 1086 l 327 1188 z "},"Á":{"ha":1040,"x_min":31,"x_max":1009,"o":"m 31 56 q 119 80 109 70 q 130 103 130 90 q 131 142 131 117 l 130 212 l 130 249 q 221 783 130 608 q 394 987 279 895 q 519 1078 450 1031 l 519 1078 q 742 891 671 977 q 865 644 828 789 q 903 250 903 496 l 903 212 l 903 144 q 905 104 903 118 q 917 81 907 90 q 1009 56 930 70 l 1009 0 l 637 0 l 637 56 q 743 85 726 66 q 759 132 758 101 q 761 193 761 163 l 761 357 l 273 357 l 273 193 q 276 124 273 149 q 290 86 278 99 q 328 67 302 73 q 398 56 353 62 l 398 0 l 31 0 l 31 56 m 760 433 q 711 722 758 608 q 519 982 661 842 q 385 825 423 886 q 329 722 347 764 q 300 634 311 680 q 275 433 281 554 l 760 433 m 327 1147 l 633 1336 l 711 1188 l 349 1086 l 327 1147 z "},"Â":{"ha":1040,"x_min":31,"x_max":1009,"o":"m 31 56 q 119 80 109 70 q 130 103 130 90 q 131 142 131 117 l 130 212 l 130 249 q 221 783 130 608 q 394 987 279 895 q 519 1078 450 1031 l 519 1078 q 742 891 671 977 q 865 644 828 789 q 903 250 903 496 l 903 212 l 903 144 q 905 104 903 118 q 917 81 907 90 q 1009 56 930 70 l 1009 0 l 637 0 l 637 56 q 743 85 726 66 q 759 132 758 101 q 761 193 761 163 l 761 357 l 273 357 l 273 193 q 276 124 273 149 q 290 86 278 99 q 328 67 302 73 q 398 56 353 62 l 398 0 l 31 0 l 31 56 m 760 433 q 711 722 758 608 q 519 982 661 842 q 385 825 423 886 q 329 722 347 764 q 300 634 311 680 q 275 433 281 554 l 760 433 m 292 1146 l 456 1337 l 582 1337 l 746 1146 l 703 1103 l 519 1219 l 335 1103 l 292 1146 z "},"Ã":{"ha":1040,"x_min":31,"x_max":1009,"o":"m 31 56 q 119 80 109 70 q 130 103 130 90 q 131 142 131 117 l 130 212 l 130 249 q 221 783 130 608 q 394 987 279 895 q 519 1078 450 1031 l 519 1078 q 742 891 671 977 q 865 644 828 789 q 903 250 903 496 l 903 212 l 903 144 q 905 104 903 118 q 917 81 907 90 q 1009 56 930 70 l 1009 0 l 637 0 l 637 56 q 743 85 726 66 q 759 132 758 101 q 761 193 761 163 l 761 357 l 273 357 l 273 193 q 276 124 273 149 q 290 86 278 99 q 328 67 302 73 q 398 56 353 62 l 398 0 l 31 0 l 31 56 m 760 433 q 711 722 758 608 q 519 982 661 842 q 385 825 423 886 q 329 722 347 764 q 300 634 311 680 q 275 433 281 554 l 760 433 m 408 1223 q 343 1164 354 1223 l 280 1164 q 334 1291 284 1242 q 443 1337 382 1337 q 550 1299 484 1337 q 630 1267 604 1267 q 694 1327 684 1267 l 758 1327 q 703 1200 753 1251 q 595 1154 656 1154 q 491 1192 556 1154 l 448 1213 q 408 1223 427 1223 z "},"Ä":{"ha":1040,"x_min":31,"x_max":1009,"o":"m 31 56 q 119 80 109 70 q 130 103 130 90 q 131 142 131 117 l 130 212 l 130 249 q 221 783 130 608 q 394 987 279 895 q 519 1078 450 1031 l 519 1078 q 742 891 671 977 q 865 644 828 789 q 903 250 903 496 l 903 212 l 903 144 q 905 104 903 118 q 917 81 907 90 q 1009 56 930 70 l 1009 0 l 637 0 l 637 56 q 743 85 726 66 q 759 132 758 101 q 761 193 761 163 l 761 357 l 273 357 l 273 193 q 276 124 273 149 q 290 86 278 99 q 328 67 302 73 q 398 56 353 62 l 398 0 l 31 0 l 31 56 m 760 433 q 711 722 758 608 q 519 982 661 842 q 385 825 423 886 q 329 722 347 764 q 300 634 311 680 q 275 433 281 554 l 760 433 m 555 1216 l 680 1337 l 801 1216 l 680 1093 l 555 1216 m 237 1216 l 361 1337 l 482 1216 l 361 1093 l 237 1216 z "},"Å":{"ha":1040,"x_min":31,"x_max":1009,"o":"m 31 56 q 119 80 109 70 q 130 103 130 90 q 131 142 131 117 l 130 212 l 130 249 q 221 783 130 608 q 394 987 279 895 q 519 1078 450 1031 l 519 1078 q 742 891 671 977 q 865 644 828 789 q 903 250 903 496 l 903 212 l 903 144 q 905 104 903 118 q 917 81 907 90 q 1009 56 930 70 l 1009 0 l 637 0 l 637 56 q 743 85 726 66 q 759 132 758 101 q 761 193 761 163 l 761 357 l 273 357 l 273 193 q 276 124 273 149 q 290 86 278 99 q 328 67 302 73 q 398 56 353 62 l 398 0 l 31 0 l 31 56 m 760 433 q 711 722 758 608 q 519 982 661 842 q 385 825 423 886 q 329 722 347 764 q 300 634 311 680 q 275 433 281 554 l 760 433 m 519 1004 q 389 1050 442 1004 q 334 1169 334 1097 q 389 1289 334 1241 q 519 1337 442 1337 q 650 1289 596 1337 q 705 1169 705 1241 q 650 1050 705 1097 q 519 1004 596 1004 m 453 1105 q 460 1100 453 1105 q 483 1089 466 1095 q 519 1083 500 1083 q 555 1089 538 1083 q 585 1105 572 1095 q 612 1158 612 1128 q 605 1202 612 1187 q 585 1229 598 1218 q 529 1253 558 1253 q 483 1246 500 1253 q 454 1229 466 1240 q 426 1176 426 1204 q 433 1132 426 1148 q 453 1105 441 1116 z "},"Æ":{"ha":1505,"x_min":66,"x_max":1501,"o":"m 925 528 q 941 212 941 382 l 941 76 l 1130 76 q 1263 86 1225 76 q 1323 110 1301 96 q 1366 147 1346 123 q 1437 288 1403 193 l 1501 288 l 1452 0 l 681 0 l 681 56 q 788 85 770 66 q 803 132 802 101 q 805 193 805 163 l 805 330 l 312 330 l 312 193 q 317 112 312 130 q 329 86 321 94 q 351 72 337 77 q 437 56 376 63 l 437 0 l 66 0 l 66 56 l 113 66 q 162 87 152 74 q 176 116 172 100 q 181 238 181 141 q 190 435 181 335 q 219 618 199 536 q 270 767 239 701 q 344 888 300 833 q 571 1078 426 993 l 572 1078 q 630 1038 614 1049 l 1473 1038 l 1402 746 l 1337 746 q 1351 858 1351 823 q 1342 912 1351 893 q 1314 943 1334 932 q 1185 962 1281 962 l 718 962 q 886 715 836 871 q 915 606 902 665 l 1290 606 l 1272 528 l 925 528 m 804 406 q 758 733 802 614 q 572 983 707 869 q 374 735 430 865 q 313 406 321 612 l 804 406 z "},"Ç":{"ha":1038,"x_min":81,"x_max":1025,"o":"m 625 -238 q 482 -149 625 -149 l 535 -13 q 196 165 321 9 q 81 512 81 308 q 141 772 81 650 q 449 1031 237 968 q 581 1052 522 1052 q 668 1049 641 1052 q 718 1041 695 1046 q 758 1029 740 1036 l 793 1018 q 886 998 852 998 q 961 1053 920 998 l 1025 1053 l 936 694 l 871 694 q 874 758 874 734 q 864 845 874 809 q 827 904 853 880 q 765 945 800 928 q 615 978 692 978 q 484 959 538 978 q 390 906 431 939 q 321 827 350 873 q 275 730 293 782 q 241 507 241 630 q 332 217 241 339 q 507 96 396 132 q 623 78 563 78 q 727 85 684 78 q 808 107 770 92 q 948 198 884 136 l 982 153 q 838 31 931 76 q 614 -17 745 -15 l 589 -86 q 711 -119 660 -85 q 765 -216 765 -155 q 723 -311 765 -266 q 577 -390 671 -366 q 530 -398 551 -397 l 492 -342 q 589 -300 553 -327 q 625 -238 625 -273 z "},"È":{"ha":1040,"x_min":73,"x_max":975,"o":"m 609 71 q 932 198 812 71 l 966 153 q 697 -5 876 30 q 581 -17 641 -17 q 369 24 463 -17 q 209 135 275 65 q 73 492 73 279 q 197 878 73 715 q 412 1031 280 987 q 535 1053 478 1053 q 620 1049 593 1053 q 669 1040 648 1046 q 708 1028 691 1035 q 746 1015 726 1022 q 836 996 802 996 q 909 1052 869 996 l 975 1052 l 884 692 l 820 692 q 823 766 823 745 q 813 845 823 810 q 777 903 802 879 q 718 945 752 928 q 565 979 648 979 q 423 945 482 979 q 323 854 363 912 q 231 554 246 744 l 669 554 l 650 477 l 229 477 q 334 201 236 319 q 609 71 441 71 m 359 1188 l 436 1336 l 743 1147 l 721 1086 l 359 1188 z "},"É":{"ha":1040,"x_min":73,"x_max":975,"o":"m 609 71 q 932 198 812 71 l 966 153 q 697 -5 876 30 q 581 -17 641 -17 q 369 24 463 -17 q 209 135 275 65 q 73 492 73 279 q 197 878 73 715 q 412 1031 280 987 q 535 1053 478 1053 q 620 1049 593 1053 q 669 1040 648 1046 q 708 1028 691 1035 q 746 1015 726 1022 q 836 996 802 996 q 909 1052 869 996 l 975 1052 l 884 692 l 820 692 q 823 766 823 745 q 813 845 823 810 q 777 903 802 879 q 718 945 752 928 q 565 979 648 979 q 423 945 482 979 q 323 854 363 912 q 231 554 246 744 l 669 554 l 650 477 l 229 477 q 334 201 236 319 q 609 71 441 71 m 359 1147 l 665 1336 l 743 1188 l 380 1086 l 359 1147 z "},"Ê":{"ha":1040,"x_min":73,"x_max":975,"o":"m 609 71 q 932 198 812 71 l 966 153 q 697 -5 876 30 q 581 -17 641 -17 q 369 24 463 -17 q 209 135 275 65 q 73 492 73 279 q 197 878 73 715 q 412 1031 280 987 q 535 1053 478 1053 q 620 1049 593 1053 q 669 1040 648 1046 q 708 1028 691 1035 q 746 1015 726 1022 q 836 996 802 996 q 909 1052 869 996 l 975 1052 l 884 692 l 820 692 q 823 766 823 745 q 813 845 823 810 q 777 903 802 879 q 718 945 752 928 q 565 979 648 979 q 423 945 482 979 q 323 854 363 912 q 231 554 246 744 l 669 554 l 650 477 l 229 477 q 334 201 236 319 q 609 71 441 71 m 323 1146 l 488 1337 l 614 1337 l 778 1146 l 734 1103 l 551 1219 l 367 1103 l 323 1146 z "},"Ë":{"ha":1040,"x_min":73,"x_max":975,"o":"m 609 71 q 932 198 812 71 l 966 153 q 697 -5 876 30 q 581 -17 641 -17 q 369 24 463 -17 q 209 135 275 65 q 73 492 73 279 q 197 878 73 715 q 412 1031 280 987 q 535 1053 478 1053 q 620 1049 593 1053 q 669 1040 648 1046 q 708 1028 691 1035 q 746 1015 726 1022 q 836 996 802 996 q 909 1052 869 996 l 975 1052 l 884 692 l 820 692 q 823 766 823 745 q 813 845 823 810 q 777 903 802 879 q 718 945 752 928 q 565 979 648 979 q 423 945 482 979 q 323 854 363 912 q 231 554 246 744 l 669 554 l 650 477 l 229 477 q 334 201 236 319 q 609 71 441 71 m 587 1216 l 711 1337 l 833 1216 l 711 1093 l 587 1216 m 269 1216 l 393 1337 l 514 1216 l 393 1093 l 269 1216 z "},"Ì":{"ha":575,"x_min":98,"x_max":481,"o":"m 104 56 l 106 56 l 127 60 q 202 82 189 68 q 222 180 222 104 l 222 859 q 205 951 222 937 q 166 971 189 966 q 104 979 143 975 l 104 1038 l 475 1038 l 475 979 q 414 971 437 975 q 379 956 391 967 q 359 859 359 937 l 359 180 q 371 89 359 104 q 401 70 383 74 q 450 60 419 65 l 475 56 l 475 0 l 104 0 l 104 56 m 98 1188 l 175 1336 l 481 1147 l 460 1086 l 98 1188 z "},"Í":{"ha":575,"x_min":98,"x_max":481,"o":"m 104 56 l 106 56 l 127 60 q 202 82 189 68 q 222 180 222 104 l 222 859 q 205 951 222 937 q 166 971 189 966 q 104 979 143 975 l 104 1038 l 475 1038 l 475 979 q 414 971 437 975 q 379 956 391 967 q 359 859 359 937 l 359 180 q 371 89 359 104 q 401 70 383 74 q 450 60 419 65 l 475 56 l 475 0 l 104 0 l 104 56 m 98 1147 l 404 1336 l 481 1188 l 119 1086 l 98 1147 z "},"Î":{"ha":575,"x_min":63,"x_max":517,"o":"m 104 56 l 106 56 l 127 60 q 202 82 189 68 q 222 180 222 104 l 222 859 q 205 951 222 937 q 166 971 189 966 q 104 979 143 975 l 104 1038 l 475 1038 l 475 979 q 414 971 437 975 q 379 956 391 967 q 359 859 359 937 l 359 180 q 371 89 359 104 q 401 70 383 74 q 450 60 419 65 l 475 56 l 475 0 l 104 0 l 104 56 m 63 1146 l 227 1337 l 353 1337 l 517 1146 l 474 1103 l 290 1219 l 106 1103 l 63 1146 z "},"Ï":{"ha":575,"x_min":8,"x_max":572,"o":"m 104 56 l 106 56 l 127 60 q 202 82 189 68 q 222 180 222 104 l 222 859 q 205 951 222 937 q 166 971 189 966 q 104 979 143 975 l 104 1038 l 475 1038 l 475 979 q 414 971 437 975 q 379 956 391 967 q 359 859 359 937 l 359 180 q 371 89 359 104 q 401 70 383 74 q 450 60 419 65 l 475 56 l 475 0 l 104 0 l 104 56 m 327 1216 l 451 1337 l 572 1216 l 451 1093 l 327 1216 m 8 1216 l 132 1337 l 254 1216 l 132 1093 l 8 1216 z "},"Ð":{"ha":1040,"x_min":5,"x_max":1030,"o":"m 241 1039 l 295 1038 q 354 1040 326 1038 l 403 1043 q 504 1048 477 1048 q 880 930 742 1048 q 1030 555 1030 802 q 891 142 1030 295 q 492 -16 747 -16 q 376 -11 428 -16 l 290 -2 q 241 1 257 1 l 43 1 l 43 57 q 105 67 82 62 q 140 84 128 73 q 161 180 161 104 l 161 519 l 5 519 l 24 604 l 161 604 l 161 861 q 144 953 161 938 q 105 972 128 968 q 43 979 82 976 l 43 1039 l 241 1039 m 298 148 q 433 66 298 88 q 509 60 473 60 q 857 355 795 60 q 878 572 878 452 q 849 767 878 691 q 769 891 821 844 q 484 979 671 979 q 317 940 369 979 q 298 902 298 925 l 298 604 l 530 604 l 510 519 l 298 519 l 298 148 z "},"Ñ":{"ha":1155,"x_min":31,"x_max":1113,"o":"m 31 56 l 61 60 q 136 79 121 70 q 161 142 161 96 l 161 1057 l 219 1077 l 886 237 l 886 873 q 859 958 886 938 q 755 980 839 972 l 755 1038 l 1113 1038 l 1113 980 q 1053 972 1077 976 q 1015 958 1029 968 q 989 875 989 940 l 989 -16 l 937 -32 l 264 814 l 264 163 q 292 85 264 105 q 356 64 311 71 q 410 56 401 58 l 410 0 l 31 0 l 31 56 m 460 1223 q 396 1164 407 1223 l 333 1164 q 387 1291 337 1242 q 496 1337 435 1337 q 603 1299 536 1337 q 683 1267 656 1267 q 747 1327 736 1267 l 810 1327 q 756 1200 806 1251 q 648 1154 709 1154 q 544 1192 609 1154 l 501 1213 q 460 1223 480 1223 z "},"Ò":{"ha":1155,"x_min":81,"x_max":1074,"o":"m 81 513 q 94 645 81 579 q 135 771 108 711 q 204 882 163 831 q 300 971 245 933 q 577 1052 417 1052 q 951 882 814 1052 q 1074 513 1074 729 q 951 148 1074 294 q 577 -14 815 -14 q 203 149 338 -14 q 81 513 81 297 m 243 546 q 243 502 243 546 q 249 401 243 457 q 270 295 255 346 q 309 200 284 244 q 370 123 333 156 q 578 55 450 55 q 888 294 817 55 q 915 513 915 387 q 697 960 915 879 q 578 979 646 979 q 270 731 339 979 q 243 546 243 635 m 385 1188 l 463 1336 l 769 1147 l 747 1086 l 385 1188 z "},"Ó":{"ha":1155,"x_min":81,"x_max":1074,"o":"m 81 513 q 94 645 81 579 q 135 771 108 711 q 204 882 163 831 q 300 971 245 933 q 577 1052 417 1052 q 951 882 814 1052 q 1074 513 1074 729 q 951 148 1074 294 q 577 -14 815 -14 q 203 149 338 -14 q 81 513 81 297 m 243 546 q 243 502 243 546 q 249 401 243 457 q 270 295 255 346 q 309 200 284 244 q 370 123 333 156 q 578 55 450 55 q 888 294 817 55 q 915 513 915 387 q 697 960 915 879 q 578 979 646 979 q 270 731 339 979 q 243 546 243 635 m 385 1147 l 692 1336 l 769 1188 l 407 1086 l 385 1147 z "},"Ô":{"ha":1155,"x_min":81,"x_max":1074,"o":"m 81 513 q 94 645 81 579 q 135 771 108 711 q 204 882 163 831 q 300 971 245 933 q 577 1052 417 1052 q 951 882 814 1052 q 1074 513 1074 729 q 951 148 1074 294 q 577 -14 815 -14 q 203 149 338 -14 q 81 513 81 297 m 243 546 q 243 502 243 546 q 249 401 243 457 q 270 295 255 346 q 309 200 284 244 q 370 123 333 156 q 578 55 450 55 q 888 294 817 55 q 915 513 915 387 q 697 960 915 879 q 578 979 646 979 q 270 731 339 979 q 243 546 243 635 m 350 1146 l 514 1337 l 640 1337 l 804 1146 l 761 1103 l 577 1219 l 393 1103 l 350 1146 z "},"Õ":{"ha":1155,"x_min":81,"x_max":1074,"o":"m 81 513 q 94 645 81 579 q 135 771 108 711 q 204 882 163 831 q 300 971 245 933 q 577 1052 417 1052 q 951 882 814 1052 q 1074 513 1074 729 q 951 148 1074 294 q 577 -14 815 -14 q 203 149 338 -14 q 81 513 81 297 m 243 546 q 243 502 243 546 q 249 401 243 457 q 270 295 255 346 q 309 200 284 244 q 370 123 333 156 q 578 55 450 55 q 888 294 817 55 q 915 513 915 387 q 697 960 915 879 q 578 979 646 979 q 270 731 339 979 q 243 546 243 635 m 466 1223 q 401 1164 412 1223 l 338 1164 q 393 1291 342 1242 q 501 1337 440 1337 q 608 1299 542 1337 q 688 1267 662 1267 q 753 1327 742 1267 l 816 1327 q 762 1200 812 1251 q 653 1154 714 1154 q 549 1192 614 1154 l 507 1213 q 466 1223 486 1223 z "},"Ö":{"ha":1155,"x_min":81,"x_max":1074,"o":"m 81 513 q 94 645 81 579 q 135 771 108 711 q 204 882 163 831 q 300 971 245 933 q 577 1052 417 1052 q 951 882 814 1052 q 1074 513 1074 729 q 951 148 1074 294 q 577 -14 815 -14 q 203 149 338 -14 q 81 513 81 297 m 243 546 q 243 502 243 546 q 249 401 243 457 q 270 295 255 346 q 309 200 284 244 q 370 123 333 156 q 578 55 450 55 q 888 294 817 55 q 915 513 915 387 q 697 960 915 879 q 578 979 646 979 q 270 731 339 979 q 243 546 243 635 m 614 1216 l 738 1337 l 859 1216 l 738 1093 l 614 1216 m 295 1216 l 419 1337 l 541 1216 l 419 1093 l 295 1216 z "},"×":{"ha":922,"x_min":115,"x_max":808,"o":"m 115 302 l 380 568 l 115 833 l 195 914 l 461 648 l 726 914 l 807 833 l 542 568 l 808 302 l 727 222 l 461 487 l 195 221 l 115 302 z "},"Ø":{"ha":1155,"x_min":81,"x_max":1074,"o":"m 319 51 l 250 -62 l 184 -20 l 256 96 q 92 394 127 205 q 81 516 81 452 q 94 645 81 579 q 135 771 108 711 q 204 882 163 831 q 300 971 245 933 q 562 1052 417 1052 q 814 996 707 1052 l 878 1099 l 943 1058 l 878 953 q 1062 637 1023 839 q 1074 510 1074 575 q 1061 379 1074 444 q 1020 255 1047 313 q 951 148 992 197 q 854 62 909 98 q 584 -14 737 -14 q 319 51 431 -14 m 768 922 q 578 979 692 979 q 270 731 339 979 q 243 513 243 635 q 315 191 243 306 l 768 922 m 367 127 q 578 55 446 55 q 888 294 817 55 q 915 513 915 387 q 825 866 915 747 l 367 127 z "},"Ù":{"ha":1153,"x_min":37,"x_max":1115,"o":"m 584 -32 q 323 159 410 66 q 178 423 222 266 q 133 850 133 584 q 122 945 133 928 q 37 979 104 972 l 37 1038 l 385 1038 l 385 979 q 296 949 317 972 q 276 838 276 928 q 279 660 276 749 q 294 501 283 572 q 326 375 305 431 q 380 269 346 319 q 584 65 440 180 q 783 269 724 179 q 863 500 843 361 q 877 864 877 604 q 861 945 877 928 q 768 979 836 972 l 768 1038 l 1115 1038 l 1115 979 q 1034 948 1050 970 q 1020 822 1020 928 q 1009 611 1020 716 q 977 423 999 506 q 919 276 954 340 q 836 159 884 212 q 584 -32 753 67 m 393 1188 l 470 1336 l 777 1147 l 755 1086 l 393 1188 z "},"Ú":{"ha":1153,"x_min":37,"x_max":1115,"o":"m 584 -32 q 323 159 410 66 q 178 423 222 266 q 133 850 133 584 q 122 945 133 928 q 37 979 104 972 l 37 1038 l 385 1038 l 385 979 q 296 949 317 972 q 276 838 276 928 q 279 660 276 749 q 294 501 283 572 q 326 375 305 431 q 380 269 346 319 q 584 65 440 180 q 783 269 724 179 q 863 500 843 361 q 877 864 877 604 q 861 945 877 928 q 768 979 836 972 l 768 1038 l 1115 1038 l 1115 979 q 1034 948 1050 970 q 1020 822 1020 928 q 1009 611 1020 716 q 977 423 999 506 q 919 276 954 340 q 836 159 884 212 q 584 -32 753 67 m 393 1147 l 699 1336 l 777 1188 l 414 1086 l 393 1147 z "},"Û":{"ha":1153,"x_min":37,"x_max":1115,"o":"m 584 -32 q 323 159 410 66 q 178 423 222 266 q 133 850 133 584 q 122 945 133 928 q 37 979 104 972 l 37 1038 l 385 1038 l 385 979 q 296 949 317 972 q 276 838 276 928 q 279 660 276 749 q 294 501 283 572 q 326 375 305 431 q 380 269 346 319 q 584 65 440 180 q 783 269 724 179 q 863 500 843 361 q 877 864 877 604 q 861 945 877 928 q 768 979 836 972 l 768 1038 l 1115 1038 l 1115 979 q 1034 948 1050 970 q 1020 822 1020 928 q 1009 611 1020 716 q 977 423 999 506 q 919 276 954 340 q 836 159 884 212 q 584 -32 753 67 m 357 1146 l 522 1337 l 648 1337 l 812 1146 l 768 1103 l 585 1219 l 401 1103 l 357 1146 z "},"Ü":{"ha":1153,"x_min":37,"x_max":1115,"o":"m 584 -32 q 323 159 410 66 q 178 423 222 266 q 133 850 133 584 q 122 945 133 928 q 37 979 104 972 l 37 1038 l 385 1038 l 385 979 q 296 949 317 972 q 276 838 276 928 q 279 660 276 749 q 294 501 283 572 q 326 375 305 431 q 380 269 346 319 q 584 65 440 180 q 783 269 724 179 q 863 500 843 361 q 877 864 877 604 q 861 945 877 928 q 768 979 836 972 l 768 1038 l 1115 1038 l 1115 979 q 1034 948 1050 970 q 1020 822 1020 928 q 1009 611 1020 716 q 977 423 999 506 q 919 276 954 340 q 836 159 884 212 q 584 -32 753 67 m 621 1216 l 745 1337 l 867 1216 l 745 1093 l 621 1216 m 302 1216 l 427 1337 l 548 1216 l 427 1093 l 302 1216 z "},"Ý":{"ha":1038,"x_min":52,"x_max":985,"o":"m 890 851 q 587 347 890 484 l 587 180 q 591 118 587 140 q 609 85 595 96 q 651 68 623 73 q 727 56 679 62 l 727 0 l 311 0 l 311 56 q 424 82 406 67 q 447 118 442 96 q 451 180 451 140 l 451 347 q 147 851 147 481 q 146 909 147 886 q 136 947 144 932 q 52 979 119 972 l 52 1038 l 399 1038 l 399 979 q 306 949 329 972 q 283 870 283 926 q 286 767 283 813 q 295 680 288 722 q 318 602 303 639 q 359 530 334 564 q 519 406 414 460 q 720 602 673 486 q 751 743 748 672 q 754 854 754 813 q 749 916 754 895 q 731 949 744 936 q 639 979 708 972 l 639 1038 l 985 1038 l 985 979 q 905 948 921 970 q 890 851 890 928 m 327 1147 l 633 1336 l 711 1188 l 349 1086 l 327 1147 z "},"Þ":{"ha":923,"x_min":58,"x_max":853,"o":"m 427 322 q 506 317 463 317 q 584 333 548 317 q 644 380 621 350 q 692 547 692 440 q 659 694 692 644 q 497 763 614 763 q 319 667 338 763 q 313 609 313 640 l 313 179 q 317 118 313 140 q 334 85 321 96 q 374 69 348 73 q 444 60 400 64 l 481 56 l 481 -1 l 58 -1 l 58 56 l 82 59 q 130 67 111 63 q 158 84 148 72 q 176 179 176 104 l 176 859 q 159 952 176 937 q 120 972 143 968 q 58 980 97 977 l 58 1038 l 430 1038 l 430 980 q 368 972 391 976 q 333 956 345 968 q 313 859 313 937 l 313 812 q 484 834 397 834 q 624 822 570 834 q 716 790 677 810 q 781 742 755 770 q 823 684 808 715 q 853 562 853 627 q 834 441 853 497 q 774 343 816 386 q 511 247 682 247 q 416 259 465 247 l 427 322 z "},"ß":{"ha":1037,"x_min":60,"x_max":963,"o":"m 494 1086 q 319 836 319 1086 l 319 0 l 60 0 l 60 57 q 154 77 136 62 q 176 109 172 91 q 180 156 180 127 l 180 804 q 272 1087 180 999 q 492 1160 349 1160 q 755 1040 683 1160 q 781 956 781 997 q 770 884 781 915 q 742 827 759 852 q 705 780 725 801 q 668 740 705 780 q 629 670 629 696 q 638 628 629 644 q 663 597 648 612 q 697 568 678 583 q 826 473 783 507 q 899 403 869 439 q 963 228 963 326 q 877 45 963 113 q 677 -16 798 -16 q 505 31 572 -16 q 441 139 441 75 q 477 219 441 182 q 547 261 510 252 l 582 220 q 559 144 559 199 q 599 84 559 111 q 683 56 640 56 q 752 64 726 56 q 795 90 777 73 q 833 198 833 125 q 769 332 833 273 q 702 385 740 359 q 631 436 663 411 q 578 481 599 461 q 543 525 557 502 q 509 624 509 576 q 519 696 509 672 q 545 737 530 720 q 578 769 561 754 q 612 803 596 783 q 648 927 648 849 q 607 1040 648 995 q 494 1086 564 1086 z "},"à":{"ha":922,"x_min":115,"x_max":882,"o":"m 302 693 q 291 645 291 672 q 317 578 291 617 l 271 551 q 155 618 191 564 q 142 665 142 636 q 165 726 142 694 q 232 781 189 758 q 468 833 326 833 q 756 699 700 833 q 774 606 774 656 l 774 180 q 789 86 774 102 q 825 65 804 70 q 882 57 846 60 l 882 0 l 714 0 q 600 -5 664 0 q 396 -18 467 -18 q 271 1 325 -18 q 182 52 216 20 q 115 205 115 112 q 232 392 115 307 q 637 502 373 496 l 637 621 q 449 762 637 762 q 302 693 342 762 m 637 431 l 638 431 l 637 432 l 637 431 m 637 431 q 270 205 270 410 q 379 66 270 98 q 464 56 413 56 q 550 62 515 56 q 605 83 586 68 q 631 124 625 98 q 637 191 637 150 l 637 431 m 264 1177 l 400 1268 l 572 952 l 511 915 l 264 1177 z "},"á":{"ha":922,"x_min":115,"x_max":882,"o":"m 302 693 q 291 645 291 672 q 317 578 291 617 l 271 551 q 155 618 191 564 q 142 665 142 636 q 165 726 142 694 q 232 781 189 758 q 468 833 326 833 q 756 699 700 833 q 774 606 774 656 l 774 180 q 789 86 774 102 q 825 65 804 70 q 882 57 846 60 l 882 0 l 714 0 q 600 -5 664 0 q 396 -18 467 -18 q 271 1 325 -18 q 182 52 216 20 q 115 205 115 112 q 232 392 115 307 q 637 502 373 496 l 637 621 q 449 762 637 762 q 302 693 342 762 m 637 431 l 638 431 l 637 432 l 637 431 m 637 431 q 270 205 270 410 q 379 66 270 98 q 464 56 413 56 q 550 62 515 56 q 605 83 586 68 q 631 124 625 98 q 637 191 637 150 l 637 431 m 362 959 l 534 1275 l 676 1184 l 429 922 l 362 959 z "},"â":{"ha":922,"x_min":115,"x_max":882,"o":"m 302 693 q 291 645 291 672 q 317 578 291 617 l 271 551 q 155 618 191 564 q 142 665 142 636 q 165 726 142 694 q 232 781 189 758 q 468 833 326 833 q 756 699 700 833 q 774 606 774 656 l 774 180 q 789 86 774 102 q 825 65 804 70 q 882 57 846 60 l 882 0 l 714 0 q 600 -5 664 0 q 396 -18 467 -18 q 271 1 325 -18 q 182 52 216 20 q 115 205 115 112 q 232 392 115 307 q 637 502 373 496 l 637 621 q 449 762 637 762 q 302 693 342 762 m 637 431 l 638 431 l 637 432 l 637 431 m 637 431 q 270 205 270 410 q 379 66 270 98 q 464 56 413 56 q 550 62 515 56 q 605 83 586 68 q 631 124 625 98 q 637 191 637 150 l 637 431 m 227 954 l 381 1261 l 555 1261 l 708 954 l 650 925 l 467 1157 l 284 925 l 227 954 z "},"ã":{"ha":922,"x_min":115,"x_max":882,"o":"m 302 693 q 291 645 291 672 q 317 578 291 617 l 271 551 q 155 618 191 564 q 142 665 142 636 q 165 726 142 694 q 232 781 189 758 q 468 833 326 833 q 756 699 700 833 q 774 606 774 656 l 774 180 q 789 86 774 102 q 825 65 804 70 q 882 57 846 60 l 882 0 l 714 0 q 600 -5 664 0 q 396 -18 467 -18 q 271 1 325 -18 q 182 52 216 20 q 115 205 115 112 q 232 392 115 307 q 637 502 373 496 l 637 621 q 449 762 637 762 q 302 693 342 762 m 637 431 l 638 431 l 637 432 l 637 431 m 637 431 q 270 205 270 410 q 379 66 270 98 q 464 56 413 56 q 550 62 515 56 q 605 83 586 68 q 631 124 625 98 q 637 191 637 150 l 637 431 m 201 975 q 198 1020 198 997 q 212 1073 198 1043 q 249 1124 226 1102 q 365 1170 298 1170 q 486 1118 425 1170 q 585 1067 548 1067 q 632 1082 617 1067 q 656 1147 661 1112 l 733 1147 q 736 1102 736 1124 q 723 1049 736 1079 q 685 998 709 1020 q 569 952 635 952 q 496 971 524 952 q 454 1003 469 990 q 424 1028 439 1017 q 366 1055 390 1055 q 327 1049 341 1055 q 300 1034 312 1044 q 278 975 274 1009 l 201 975 z "},"ä":{"ha":922,"x_min":115,"x_max":882,"o":"m 302 693 q 291 645 291 672 q 317 578 291 617 l 271 551 q 155 618 191 564 q 142 665 142 636 q 165 726 142 694 q 232 781 189 758 q 468 833 326 833 q 756 699 700 833 q 774 606 774 656 l 774 180 q 789 86 774 102 q 825 65 804 70 q 882 57 846 60 l 882 0 l 714 0 q 600 -5 664 0 q 396 -18 467 -18 q 271 1 325 -18 q 182 52 216 20 q 115 205 115 112 q 232 392 115 307 q 637 502 373 496 l 637 621 q 449 762 637 762 q 302 693 342 762 m 637 431 l 638 431 l 637 432 l 637 431 m 637 431 q 270 205 270 410 q 379 66 270 98 q 464 56 413 56 q 550 62 515 56 q 605 83 586 68 q 631 124 625 98 q 637 191 637 150 l 637 431 m 504 1093 l 628 1215 l 749 1093 l 628 971 l 504 1093 m 185 1093 l 309 1215 l 431 1093 l 309 971 l 185 1093 z "},"å":{"ha":922,"x_min":115,"x_max":882,"o":"m 302 693 q 291 645 291 672 q 317 578 291 617 l 271 551 q 155 618 191 564 q 142 665 142 636 q 165 726 142 694 q 232 781 189 758 q 468 833 326 833 q 756 699 700 833 q 774 606 774 656 l 774 180 q 789 86 774 102 q 825 65 804 70 q 882 57 846 60 l 882 0 l 714 0 q 600 -5 664 0 q 396 -18 467 -18 q 271 1 325 -18 q 182 52 216 20 q 115 205 115 112 q 232 392 115 307 q 637 502 373 496 l 637 621 q 449 762 637 762 q 302 693 342 762 m 637 431 l 638 431 l 637 432 l 637 431 m 637 431 q 270 205 270 410 q 379 66 270 98 q 464 56 413 56 q 550 62 515 56 q 605 83 586 68 q 631 124 625 98 q 637 191 637 150 l 637 431 m 467 922 q 332 966 385 922 q 272 1097 272 1015 q 332 1226 272 1179 q 467 1270 387 1270 q 604 1226 548 1270 q 663 1097 663 1180 q 604 966 663 1015 q 467 922 549 922 m 467 989 q 537 1009 514 989 q 579 1094 579 1045 q 545 1172 579 1142 q 467 1198 514 1198 q 365 1139 393 1198 q 356 1094 356 1120 q 365 1048 356 1067 q 389 1016 374 1029 q 467 989 420 989 z "},"æ":{"ha":1388,"x_min":96,"x_max":1301,"o":"m 1301 96 q 1019 -14 1213 -14 q 726 125 825 -14 q 575 18 680 56 q 397 -14 488 -14 q 251 6 305 -14 q 162 57 197 25 q 96 212 96 118 q 216 396 96 313 q 635 502 361 496 l 635 621 q 588 728 635 688 q 436 767 541 767 q 290 694 329 767 q 278 645 278 672 q 304 578 278 617 l 258 551 q 142 618 179 564 q 130 665 130 636 q 153 726 130 694 q 220 781 177 758 q 456 833 313 833 q 741 713 669 833 q 866 801 790 770 q 1018 833 943 833 q 1141 820 1093 833 q 1223 782 1189 806 q 1297 646 1297 730 q 1185 449 1297 530 q 789 352 1054 354 q 849 171 789 259 q 1050 61 922 61 q 1263 134 1177 61 l 1301 96 m 789 425 q 1118 550 1029 429 q 1149 654 1149 593 q 1076 755 1149 726 q 1004 766 1050 766 q 915 738 957 766 q 844 662 872 709 q 789 425 789 568 m 283 313 q 250 224 250 273 q 263 146 250 176 q 301 97 277 117 q 436 54 353 54 q 576 107 519 54 q 635 244 635 161 l 635 431 q 283 313 366 416 z "},"ç":{"ha":810,"x_min":58,"x_max":743,"o":"m 459 -238 q 317 -149 459 -149 l 370 -12 q 137 136 223 12 q 58 412 58 251 q 155 716 58 596 q 435 844 259 844 q 603 810 522 844 q 621 804 615 804 q 673 859 665 815 l 726 859 l 726 568 l 670 568 q 446 772 633 772 q 264 661 325 772 q 212 411 212 566 q 373 84 212 146 q 456 71 409 71 q 704 158 591 71 l 743 121 q 534 -3 669 31 q 450 -16 492 -14 l 423 -86 q 545 -119 494 -85 q 600 -216 600 -155 q 557 -311 600 -266 q 412 -390 505 -366 q 365 -398 386 -397 l 326 -342 q 424 -300 388 -327 q 459 -238 459 -273 z "},"è":{"ha":810,"x_min":68,"x_max":724,"o":"m 724 101 q 446 -14 631 -14 q 165 102 267 -14 q 68 398 68 214 q 176 711 68 587 q 451 833 283 833 q 651 779 579 833 q 720 639 720 728 q 608 446 720 524 q 216 352 479 354 q 467 75 240 75 q 686 140 610 75 l 724 101 m 214 425 q 541 539 456 429 q 572 640 572 580 q 505 749 572 719 q 439 760 478 760 q 369 746 399 760 q 314 708 338 732 q 271 652 290 684 q 241 583 253 620 q 214 425 216 506 m 243 1177 l 379 1268 l 551 952 l 490 915 l 243 1177 z "},"é":{"ha":810,"x_min":68,"x_max":724,"o":"m 724 101 q 446 -14 631 -14 q 165 102 267 -14 q 68 398 68 214 q 176 711 68 587 q 451 833 283 833 q 651 779 579 833 q 720 639 720 728 q 608 446 720 524 q 216 352 479 354 q 467 75 240 75 q 686 140 610 75 l 724 101 m 214 425 q 541 539 456 429 q 572 640 572 580 q 505 749 572 719 q 439 760 478 760 q 369 746 399 760 q 314 708 338 732 q 271 652 290 684 q 241 583 253 620 q 214 425 216 506 m 341 959 l 513 1275 l 655 1184 l 408 922 l 341 959 z "},"ê":{"ha":810,"x_min":68,"x_max":724,"o":"m 724 101 q 446 -14 631 -14 q 165 102 267 -14 q 68 398 68 214 q 176 711 68 587 q 451 833 283 833 q 651 779 579 833 q 720 639 720 728 q 608 446 720 524 q 216 352 479 354 q 467 75 240 75 q 686 140 610 75 l 724 101 m 214 425 q 541 539 456 429 q 572 640 572 580 q 505 749 572 719 q 439 760 478 760 q 369 746 399 760 q 314 708 338 732 q 271 652 290 684 q 241 583 253 620 q 214 425 216 506 m 205 954 l 360 1261 l 534 1261 l 687 954 l 629 925 l 446 1157 l 263 925 l 205 954 z "},"ë":{"ha":810,"x_min":68,"x_max":728,"o":"m 724 101 q 446 -14 631 -14 q 165 102 267 -14 q 68 398 68 214 q 176 711 68 587 q 451 833 283 833 q 651 779 579 833 q 720 639 720 728 q 608 446 720 524 q 216 352 479 354 q 467 75 240 75 q 686 140 610 75 l 724 101 m 214 425 q 541 539 456 429 q 572 640 572 580 q 505 749 572 719 q 439 760 478 760 q 369 746 399 760 q 314 708 338 732 q 271 652 290 684 q 241 583 253 620 q 214 425 216 506 m 483 1093 l 607 1215 l 728 1093 l 607 971 l 483 1093 m 164 1093 l 288 1215 l 410 1093 l 288 971 l 164 1093 z "},"ì":{"ha":461,"x_min":40,"x_max":429,"o":"m 58 56 l 81 60 q 129 68 111 64 q 157 84 147 73 q 175 180 175 105 l 175 640 q 159 733 175 718 q 119 753 142 749 q 58 761 96 758 l 58 819 l 429 819 l 429 761 q 367 753 390 757 q 332 737 344 749 q 312 640 312 719 l 312 180 q 324 89 312 103 q 354 70 336 75 q 402 60 372 65 l 429 56 l 429 0 l 58 0 l 58 56 m 40 1177 l 176 1268 l 348 952 l 288 915 l 40 1177 z "},"í":{"ha":461,"x_min":58,"x_max":452,"o":"m 58 56 l 81 60 q 129 68 111 64 q 157 84 147 73 q 175 180 175 105 l 175 640 q 159 733 175 718 q 119 753 142 749 q 58 761 96 758 l 58 819 l 429 819 l 429 761 q 367 753 390 757 q 332 737 344 749 q 312 640 312 719 l 312 180 q 324 89 312 103 q 354 70 336 75 q 402 60 372 65 l 429 56 l 429 0 l 58 0 l 58 56 m 138 959 l 310 1275 l 452 1184 l 205 922 l 138 959 z "},"î":{"ha":461,"x_min":3,"x_max":484,"o":"m 58 56 l 81 60 q 129 68 111 64 q 157 84 147 73 q 175 180 175 105 l 175 640 q 159 733 175 718 q 119 753 142 749 q 58 761 96 758 l 58 819 l 429 819 l 429 761 q 367 753 390 757 q 332 737 344 749 q 312 640 312 719 l 312 180 q 324 89 312 103 q 354 70 336 75 q 402 60 372 65 l 429 56 l 429 0 l 58 0 l 58 56 m 3 954 l 157 1261 l 331 1261 l 484 954 l 427 925 l 243 1157 l 60 925 l 3 954 z "},"ï":{"ha":461,"x_min":-39,"x_max":526,"o":"m 58 56 l 81 60 q 129 68 111 64 q 157 84 147 73 q 175 180 175 105 l 175 640 q 159 733 175 718 q 119 753 142 749 q 58 761 96 758 l 58 819 l 429 819 l 429 761 q 367 753 390 757 q 332 737 344 749 q 312 640 312 719 l 312 180 q 324 89 312 103 q 354 70 336 75 q 402 60 372 65 l 429 56 l 429 0 l 58 0 l 58 56 m 280 1093 l 404 1215 l 526 1093 l 404 971 l 280 1093 m -39 1093 l 85 1215 l 207 1093 l 85 971 l -39 1093 z "},"ð":{"ha":926,"x_min":72,"x_max":825,"o":"m 215 1225 q 484 1137 369 1202 l 667 1226 l 706 1165 l 554 1091 q 809 656 758 941 q 825 466 825 568 q 798 271 825 363 q 720 115 770 179 q 443 -18 617 -18 q 170 113 276 -18 q 72 396 72 233 q 164 680 72 564 q 439 809 266 809 q 635 745 562 809 q 454 1034 579 947 l 243 932 l 205 994 l 389 1082 q 201 1156 307 1133 l 215 1225 m 370 72 q 459 58 403 58 q 559 89 515 58 q 628 176 604 120 q 670 482 670 273 q 543 719 670 662 q 444 736 503 736 q 342 707 385 736 q 273 631 298 678 q 227 394 227 545 q 370 72 227 136 z "},"ñ":{"ha":1043,"x_min":103,"x_max":998,"o":"m 357 678 q 578 882 418 801 q 758 745 695 819 q 879 388 858 625 q 886 231 886 307 q 888 127 886 155 q 900 86 891 100 q 926 68 909 73 q 960 61 943 64 q 984 58 977 58 q 998 56 991 58 l 998 0 l 627 0 l 627 56 q 689 65 666 61 q 724 82 712 70 q 744 191 744 102 l 744 270 q 736 485 744 425 q 718 584 729 545 q 688 658 707 623 q 571 786 650 723 q 357 428 357 654 l 357 198 q 370 91 357 109 q 403 68 383 73 q 456 58 422 63 l 474 56 l 474 0 l 103 0 l 103 56 q 114 58 107 58 q 137 61 120 58 q 173 68 155 63 q 202 84 192 73 q 219 176 219 102 l 219 660 q 203 735 219 722 q 165 754 188 749 q 103 761 142 758 l 103 819 l 357 819 l 357 678 m 311 975 q 307 1020 307 997 q 321 1073 307 1043 q 358 1124 335 1102 q 474 1170 407 1170 q 595 1118 534 1170 q 694 1067 657 1067 q 741 1082 726 1067 q 766 1147 770 1112 l 842 1147 q 846 1102 846 1124 q 832 1049 846 1079 q 794 998 818 1020 q 678 952 745 952 q 606 971 633 952 q 563 1003 578 990 q 533 1028 548 1017 q 475 1055 499 1055 q 436 1049 450 1055 q 410 1034 421 1044 q 387 975 383 1009 l 311 975 z "},"ò":{"ha":925,"x_min":82,"x_max":842,"o":"m 82 414 q 93 519 82 467 q 124 618 103 571 q 178 704 146 665 q 252 772 210 743 q 461 833 342 833 q 746 704 642 833 q 842 413 842 586 q 746 117 842 239 q 461 -16 642 -16 q 176 119 281 -16 q 82 414 82 241 m 382 74 q 462 59 416 59 q 543 74 508 59 q 602 114 577 88 q 644 174 627 140 q 671 248 661 208 q 689 387 689 318 q 685 498 689 456 q 671 579 681 541 q 644 650 661 617 q 602 708 627 684 q 463 760 548 760 q 255 575 302 760 q 237 413 237 505 q 382 74 237 136 m 258 1177 l 395 1268 l 566 952 l 506 915 l 258 1177 z "},"ó":{"ha":925,"x_min":82,"x_max":842,"o":"m 82 414 q 93 519 82 467 q 124 618 103 571 q 178 704 146 665 q 252 772 210 743 q 461 833 342 833 q 746 704 642 833 q 842 413 842 586 q 746 117 842 239 q 461 -16 642 -16 q 176 119 281 -16 q 82 414 82 241 m 382 74 q 462 59 416 59 q 543 74 508 59 q 602 114 577 88 q 644 174 627 140 q 671 248 661 208 q 689 387 689 318 q 685 498 689 456 q 671 579 681 541 q 644 650 661 617 q 602 708 627 684 q 463 760 548 760 q 255 575 302 760 q 237 413 237 505 q 382 74 237 136 m 357 959 l 528 1275 l 671 1184 l 423 922 l 357 959 z "},"ô":{"ha":925,"x_min":82,"x_max":842,"o":"m 82 414 q 93 519 82 467 q 124 618 103 571 q 178 704 146 665 q 252 772 210 743 q 461 833 342 833 q 746 704 642 833 q 842 413 842 586 q 746 117 842 239 q 461 -16 642 -16 q 176 119 281 -16 q 82 414 82 241 m 382 74 q 462 59 416 59 q 543 74 508 59 q 602 114 577 88 q 644 174 627 140 q 671 248 661 208 q 689 387 689 318 q 685 498 689 456 q 671 579 681 541 q 644 650 661 617 q 602 708 627 684 q 463 760 548 760 q 255 575 302 760 q 237 413 237 505 q 382 74 237 136 m 221 954 l 376 1261 l 549 1261 l 703 954 l 645 925 l 462 1157 l 279 925 l 221 954 z "},"õ":{"ha":925,"x_min":82,"x_max":842,"o":"m 82 414 q 93 519 82 467 q 124 618 103 571 q 178 704 146 665 q 252 772 210 743 q 461 833 342 833 q 746 704 642 833 q 842 413 842 586 q 746 117 842 239 q 461 -16 642 -16 q 176 119 281 -16 q 82 414 82 241 m 382 74 q 462 59 416 59 q 543 74 508 59 q 602 114 577 88 q 644 174 627 140 q 671 248 661 208 q 689 387 689 318 q 685 498 689 456 q 671 579 681 541 q 644 650 661 617 q 602 708 627 684 q 463 760 548 760 q 255 575 302 760 q 237 413 237 505 q 382 74 237 136 m 196 975 q 193 1020 193 997 q 207 1073 193 1043 q 243 1124 220 1102 q 359 1170 292 1170 q 481 1118 419 1170 q 580 1067 543 1067 q 627 1082 612 1067 q 651 1147 655 1112 l 728 1147 q 731 1102 731 1124 q 717 1049 731 1079 q 680 998 703 1020 q 564 952 630 952 q 491 971 519 952 q 448 1003 463 990 q 418 1028 433 1017 q 360 1055 385 1055 q 321 1049 336 1055 q 295 1034 307 1044 q 273 975 269 1009 l 196 975 z "},"ö":{"ha":925,"x_min":82,"x_max":842,"o":"m 82 414 q 93 519 82 467 q 124 618 103 571 q 178 704 146 665 q 252 772 210 743 q 461 833 342 833 q 746 704 642 833 q 842 413 842 586 q 746 117 842 239 q 461 -16 642 -16 q 176 119 281 -16 q 82 414 82 241 m 382 74 q 462 59 416 59 q 543 74 508 59 q 602 114 577 88 q 644 174 627 140 q 671 248 661 208 q 689 387 689 318 q 685 498 689 456 q 671 579 681 541 q 644 650 661 617 q 602 708 627 684 q 463 760 548 760 q 255 575 302 760 q 237 413 237 505 q 382 74 237 136 m 498 1093 l 623 1215 l 744 1093 l 623 971 l 498 1093 m 180 1093 l 304 1215 l 425 1093 l 304 971 l 180 1093 z "},"÷":{"ha":922,"x_min":67,"x_max":855,"o":"m 345 892 l 463 1008 l 579 892 l 463 773 l 345 892 m 94 623 l 855 623 l 827 510 l 67 510 l 94 623 m 463 349 l 579 233 l 463 115 l 345 233 l 463 349 z "},"ø":{"ha":925,"x_min":82,"x_max":842,"o":"m 461 -16 q 266 37 351 -16 l 182 -92 l 116 -50 l 205 86 q 90 323 115 176 q 82 417 82 368 q 93 519 82 467 q 124 618 103 571 q 178 704 146 665 q 252 772 210 743 q 458 833 342 833 q 661 779 575 833 l 759 928 l 824 887 l 721 730 q 842 413 842 610 q 746 117 842 239 q 461 -16 642 -16 m 609 701 q 463 760 554 760 q 255 575 302 760 q 237 431 237 505 q 273 190 237 276 l 609 701 m 319 118 q 463 59 374 59 q 671 248 622 59 q 689 395 689 318 q 654 629 689 547 l 319 118 z "},"ù":{"ha":923,"x_min":39,"x_max":882,"o":"m 461 -35 q 271 109 332 42 q 142 449 164 226 q 134 598 134 529 q 133 691 134 668 q 122 729 132 715 q 39 761 106 755 l 39 819 l 373 819 l 373 761 q 286 731 306 754 q 271 636 271 711 q 273 496 271 561 q 282 379 275 431 q 302 287 289 328 q 336 209 315 245 q 461 61 376 141 q 578 194 549 143 q 621 287 608 245 q 640 379 633 328 q 652 572 652 467 q 649 698 652 677 q 636 731 646 718 q 550 761 616 754 l 550 819 l 882 819 l 882 761 q 804 734 816 751 q 790 694 793 717 q 788 600 788 671 q 780 449 788 529 q 756 307 772 369 q 713 196 739 244 q 651 109 688 149 q 461 -35 590 42 m 257 1177 l 393 1268 l 565 952 l 505 915 l 257 1177 z "},"ú":{"ha":923,"x_min":39,"x_max":882,"o":"m 461 -35 q 271 109 332 42 q 142 449 164 226 q 134 598 134 529 q 133 691 134 668 q 122 729 132 715 q 39 761 106 755 l 39 819 l 373 819 l 373 761 q 286 731 306 754 q 271 636 271 711 q 273 496 271 561 q 282 379 275 431 q 302 287 289 328 q 336 209 315 245 q 461 61 376 141 q 578 194 549 143 q 621 287 608 245 q 640 379 633 328 q 652 572 652 467 q 649 698 652 677 q 636 731 646 718 q 550 761 616 754 l 550 819 l 882 819 l 882 761 q 804 734 816 751 q 790 694 793 717 q 788 600 788 671 q 780 449 788 529 q 756 307 772 369 q 713 196 739 244 q 651 109 688 149 q 461 -35 590 42 m 355 959 l 527 1275 l 669 1184 l 422 922 l 355 959 z "},"û":{"ha":923,"x_min":39,"x_max":882,"o":"m 461 -35 q 271 109 332 42 q 142 449 164 226 q 134 598 134 529 q 133 691 134 668 q 122 729 132 715 q 39 761 106 755 l 39 819 l 373 819 l 373 761 q 286 731 306 754 q 271 636 271 711 q 273 496 271 561 q 282 379 275 431 q 302 287 289 328 q 336 209 315 245 q 461 61 376 141 q 578 194 549 143 q 621 287 608 245 q 640 379 633 328 q 652 572 652 467 q 649 698 652 677 q 636 731 646 718 q 550 761 616 754 l 550 819 l 882 819 l 882 761 q 804 734 816 751 q 790 694 793 717 q 788 600 788 671 q 780 449 788 529 q 756 307 772 369 q 713 196 739 244 q 651 109 688 149 q 461 -35 590 42 m 220 954 l 374 1261 l 548 1261 l 701 954 l 644 925 l 460 1157 l 277 925 l 220 954 z "},"ü":{"ha":923,"x_min":39,"x_max":882,"o":"m 461 -35 q 271 109 332 42 q 142 449 164 226 q 134 598 134 529 q 133 691 134 668 q 122 729 132 715 q 39 761 106 755 l 39 819 l 373 819 l 373 761 q 286 731 306 754 q 271 636 271 711 q 273 496 271 561 q 282 379 275 431 q 302 287 289 328 q 336 209 315 245 q 461 61 376 141 q 578 194 549 143 q 621 287 608 245 q 640 379 633 328 q 652 572 652 467 q 649 698 652 677 q 636 731 646 718 q 550 761 616 754 l 550 819 l 882 819 l 882 761 q 804 734 816 751 q 790 694 793 717 q 788 600 788 671 q 780 449 788 529 q 756 307 772 369 q 713 196 739 244 q 651 109 688 149 q 461 -35 590 42 m 497 1093 l 621 1215 l 743 1093 l 621 971 l 497 1093 m 178 1093 l 302 1215 l 424 1093 l 302 971 l 178 1093 z "},"ý":{"ha":923,"x_min":34,"x_max":882,"o":"m 647 124 q 434 -62 570 5 q 254 75 317 0 q 133 431 154 195 q 126 587 126 513 q 123 688 126 661 q 110 731 119 716 q 82 752 100 747 q 34 761 64 758 l 34 819 l 376 819 l 376 761 l 359 759 q 310 750 328 755 q 283 734 292 746 q 268 628 268 713 l 268 549 q 272 370 268 446 q 294 235 277 294 q 440 33 328 122 q 648 392 648 161 l 648 621 q 636 729 648 713 q 605 750 623 745 q 557 759 587 755 l 541 761 l 541 819 l 882 819 l 882 762 l 880 761 q 807 736 821 755 q 786 616 786 705 l 786 313 q 700 -155 786 9 q 330 -398 595 -356 l 315 -327 q 555 -179 478 -287 q 647 124 631 -75 m 356 959 l 528 1275 l 670 1184 l 422 922 l 356 959 z "},"þ":{"ha":928,"x_min":68,"x_max":899,"o":"m 510 -20 q 323 -5 441 -20 l 323 -224 q 351 -308 323 -291 q 455 -328 371 -320 l 455 -384 l 75 -384 l 75 -328 l 77 -328 q 160 -310 145 -321 q 185 -224 185 -290 l 185 0 l 186 1000 q 161 1084 186 1065 q 68 1103 145 1096 l 68 1160 l 441 1160 l 441 1103 q 350 1085 365 1096 q 324 1000 324 1067 l 324 749 q 491 838 387 816 q 568 844 524 844 q 659 828 612 844 q 743 782 705 811 q 810 713 781 753 q 859 627 840 673 q 899 421 899 530 q 802 118 899 245 q 510 -20 695 -20 m 324 199 q 361 100 324 134 q 521 58 408 58 q 693 168 633 58 q 746 421 746 263 q 644 734 746 650 q 556 765 606 765 q 465 750 506 765 q 393 709 425 735 q 324 576 324 653 l 324 199 z "},"ÿ":{"ha":923,"x_min":34,"x_max":882,"o":"m 647 124 q 434 -62 570 5 q 254 75 317 0 q 133 431 154 195 q 126 587 126 513 q 123 688 126 661 q 110 731 119 716 q 82 752 100 747 q 34 761 64 758 l 34 819 l 376 819 l 376 761 l 359 759 q 310 750 328 755 q 283 734 292 746 q 268 628 268 713 l 268 549 q 272 370 268 446 q 294 235 277 294 q 440 33 328 122 q 648 392 648 161 l 648 621 q 636 729 648 713 q 605 750 623 745 q 557 759 587 755 l 541 761 l 541 819 l 882 819 l 882 762 l 880 761 q 807 736 821 755 q 786 616 786 705 l 786 313 q 700 -155 786 9 q 330 -398 595 -356 l 315 -327 q 555 -179 478 -287 q 647 124 631 -75 m 498 1093 l 622 1215 l 743 1093 l 622 971 l 498 1093 m 179 1093 l 303 1215 l 425 1093 l 303 971 l 179 1093 z "},"Ā":{"ha":1040,"x_min":31,"x_max":1009,"o":"m 31 56 q 119 80 109 70 q 130 103 130 90 q 131 142 131 117 l 130 212 l 130 249 q 221 783 130 608 q 394 987 279 895 q 519 1078 450 1031 l 519 1078 q 742 891 671 977 q 865 644 828 789 q 903 250 903 496 l 903 212 l 903 144 q 905 104 903 118 q 917 81 907 90 q 1009 56 930 70 l 1009 0 l 637 0 l 637 56 q 743 85 726 66 q 759 132 758 101 q 761 193 761 163 l 761 357 l 273 357 l 273 193 q 276 124 273 149 q 290 86 278 99 q 328 67 302 73 q 398 56 353 62 l 398 0 l 31 0 l 31 56 m 760 433 q 711 722 758 608 q 519 982 661 842 q 385 825 423 886 q 329 722 347 764 q 300 634 311 680 q 275 433 281 554 l 760 433 m 312 1318 l 726 1337 l 726 1213 l 312 1229 l 312 1318 z "},"ā":{"ha":922,"x_min":115,"x_max":882,"o":"m 302 693 q 291 645 291 672 q 317 578 291 617 l 271 551 q 155 618 191 564 q 142 665 142 636 q 165 726 142 694 q 232 781 189 758 q 468 833 326 833 q 756 699 700 833 q 774 606 774 656 l 774 180 q 789 86 774 102 q 825 65 804 70 q 882 57 846 60 l 882 0 l 714 0 q 600 -5 664 0 q 396 -18 467 -18 q 271 1 325 -18 q 182 52 216 20 q 115 205 115 112 q 232 392 115 307 q 637 502 373 496 l 637 621 q 449 762 637 762 q 302 693 342 762 m 637 431 l 638 431 l 637 432 l 637 431 m 637 431 q 270 205 270 410 q 379 66 270 98 q 464 56 413 56 q 550 62 515 56 q 605 83 586 68 q 631 124 625 98 q 637 191 637 150 l 637 431 m 241 1157 l 694 1177 l 694 1053 l 241 1068 l 241 1157 z "},"Ă":{"ha":1040,"x_min":31,"x_max":1009,"o":"m 31 56 q 119 80 109 70 q 130 103 130 90 q 131 142 131 117 l 130 212 l 130 249 q 221 783 130 608 q 394 987 279 895 q 519 1078 450 1031 l 519 1078 q 742 891 671 977 q 865 644 828 789 q 903 250 903 496 l 903 212 l 903 144 q 905 104 903 118 q 917 81 907 90 q 1009 56 930 70 l 1009 0 l 637 0 l 637 56 q 743 85 726 66 q 759 132 758 101 q 761 193 761 163 l 761 357 l 273 357 l 273 193 q 276 124 273 149 q 290 86 278 99 q 328 67 302 73 q 398 56 353 62 l 398 0 l 31 0 l 31 56 m 760 433 q 711 722 758 608 q 519 982 661 842 q 385 825 423 886 q 329 722 347 764 q 300 634 311 680 q 275 433 281 554 l 760 433 m 603 1126 q 522 1114 568 1114 q 438 1128 476 1114 q 370 1170 399 1143 q 306 1319 307 1230 l 376 1319 q 423 1248 385 1275 q 508 1221 461 1221 q 578 1230 555 1221 q 617 1252 602 1238 q 643 1284 633 1266 l 663 1319 l 732 1319 q 603 1126 722 1168 z "},"ă":{"ha":922,"x_min":115,"x_max":882,"o":"m 302 693 q 291 645 291 672 q 317 578 291 617 l 271 551 q 155 618 191 564 q 142 665 142 636 q 165 726 142 694 q 232 781 189 758 q 468 833 326 833 q 756 699 700 833 q 774 606 774 656 l 774 180 q 789 86 774 102 q 825 65 804 70 q 882 57 846 60 l 882 0 l 714 0 q 600 -5 664 0 q 396 -18 467 -18 q 271 1 325 -18 q 182 52 216 20 q 115 205 115 112 q 232 392 115 307 q 637 502 373 496 l 637 621 q 449 762 637 762 q 302 693 342 762 m 637 431 l 638 431 l 637 432 l 637 431 m 637 431 q 270 205 270 410 q 379 66 270 98 q 464 56 413 56 q 550 62 515 56 q 605 83 586 68 q 631 124 625 98 q 637 191 637 150 l 637 431 m 559 1023 q 465 1009 519 1009 q 373 1023 411 1009 q 309 1060 335 1038 q 269 1109 283 1082 q 245 1162 254 1137 q 231 1244 233 1202 l 302 1244 q 355 1152 313 1186 q 467 1118 397 1118 q 580 1152 537 1118 q 633 1244 623 1186 l 705 1244 q 559 1023 694 1072 z "},"Ą":{"ha":1040,"x_min":28,"x_max":1031,"o":"m 768 -216 q 861 -301 768 -301 q 969 -273 911 -301 l 992 -326 q 843 -380 924 -366 q 795 -385 817 -385 q 674 -349 718 -385 q 629 -245 629 -313 q 808 0 629 -113 l 652 0 l 652 56 q 760 85 741 66 q 775 132 773 101 q 777 193 777 163 l 777 357 l 283 357 l 283 193 q 286 124 283 149 q 300 86 288 99 q 338 67 313 73 q 408 56 363 62 l 408 0 l 28 0 l 28 56 q 122 80 109 71 q 138 103 135 90 q 141 142 141 117 l 140 212 l 140 248 q 232 783 140 609 q 407 987 292 897 q 532 1078 463 1031 l 532 1078 q 755 891 683 977 q 880 644 843 788 q 919 249 919 493 l 919 212 l 918 144 q 933 83 918 94 q 970 68 947 73 q 1031 56 993 63 l 1031 0 l 913 0 q 808 -104 850 -42 q 768 -216 768 -164 m 775 433 q 724 722 774 607 q 532 982 673 842 q 396 824 434 884 q 341 722 359 764 q 311 634 323 680 q 285 433 290 552 l 775 433 z "},"ą":{"ha":922,"x_min":115,"x_max":882,"o":"m 510 -245 q 717 0 510 -115 q 600 -5 664 0 q 396 -18 467 -18 q 271 1 325 -18 q 182 52 216 20 q 115 205 115 112 q 232 392 115 307 q 637 502 373 496 l 637 621 q 449 762 637 762 q 302 693 342 762 q 291 645 291 672 q 317 578 291 617 l 271 551 q 155 618 191 564 q 142 665 142 636 q 165 726 142 694 q 232 781 189 758 q 468 833 326 833 q 756 699 700 833 q 774 606 774 656 l 774 180 q 789 86 774 102 q 825 65 804 70 q 882 57 846 60 l 882 0 q 770 -38 829 0 q 684 -124 720 -71 q 648 -216 648 -176 q 669 -279 648 -257 q 741 -301 690 -301 q 850 -273 792 -301 l 873 -326 q 724 -380 806 -366 q 668 -385 698 -385 q 607 -375 637 -385 q 555 -347 576 -366 q 510 -245 510 -311 m 637 431 q 270 205 270 410 q 379 66 270 98 q 464 56 413 56 q 550 62 515 56 q 605 83 586 68 q 631 124 625 98 q 637 191 637 150 l 637 431 z "},"Ć":{"ha":1038,"x_min":81,"x_max":1025,"o":"m 871 694 q 874 758 874 734 q 864 845 874 809 q 827 904 853 880 q 765 945 800 928 q 615 978 692 978 q 484 959 538 978 q 390 906 431 939 q 321 827 350 873 q 275 730 293 782 q 241 507 241 630 q 332 217 241 339 q 507 96 396 132 q 623 78 563 78 q 727 85 684 78 q 808 107 770 92 q 948 198 884 136 l 982 153 q 834 29 930 75 q 605 -17 739 -17 q 213 144 357 -17 q 81 512 81 292 q 141 772 81 650 q 449 1031 237 968 q 581 1052 522 1052 q 668 1049 641 1052 q 718 1041 695 1046 q 758 1029 740 1036 l 793 1018 q 886 998 852 998 q 961 1053 920 998 l 1025 1053 l 936 694 l 871 694 m 397 1147 l 703 1336 l 781 1188 l 418 1086 l 397 1147 z "},"ć":{"ha":810,"x_min":58,"x_max":743,"o":"m 456 71 q 704 158 591 71 l 743 121 q 522 -7 663 24 q 433 -16 477 -16 q 153 114 257 -16 q 58 412 58 235 q 155 716 58 596 q 435 844 259 844 q 603 810 522 844 q 621 804 615 804 q 673 859 665 815 l 726 859 l 726 568 l 670 568 q 446 772 633 772 q 264 661 325 772 q 212 411 212 566 q 373 84 212 146 q 456 71 409 71 m 334 959 l 505 1275 l 648 1184 l 400 922 l 334 959 z "},"Ĉ":{"ha":1038,"x_min":81,"x_max":1025,"o":"m 871 694 q 874 758 874 734 q 864 845 874 809 q 827 904 853 880 q 765 945 800 928 q 615 978 692 978 q 484 959 538 978 q 390 906 431 939 q 321 827 350 873 q 275 730 293 782 q 241 507 241 630 q 332 217 241 339 q 507 96 396 132 q 623 78 563 78 q 727 85 684 78 q 808 107 770 92 q 948 198 884 136 l 982 153 q 834 29 930 75 q 605 -17 739 -17 q 213 144 357 -17 q 81 512 81 292 q 141 772 81 650 q 449 1031 237 968 q 581 1052 522 1052 q 668 1049 641 1052 q 718 1041 695 1046 q 758 1029 740 1036 l 793 1018 q 886 998 852 998 q 961 1053 920 998 l 1025 1053 l 936 694 l 871 694 m 361 1146 l 526 1337 l 652 1337 l 816 1146 l 772 1103 l 589 1219 l 405 1103 l 361 1146 z "},"ĉ":{"ha":810,"x_min":58,"x_max":743,"o":"m 456 71 q 704 158 591 71 l 743 121 q 522 -7 663 24 q 433 -16 477 -16 q 153 114 257 -16 q 58 412 58 235 q 155 716 58 596 q 435 844 259 844 q 603 810 522 844 q 621 804 615 804 q 673 859 665 815 l 726 859 l 726 568 l 670 568 q 446 772 633 772 q 264 661 325 772 q 212 411 212 566 q 373 84 212 146 q 456 71 409 71 m 198 954 l 353 1261 l 526 1261 l 680 954 l 622 925 l 439 1157 l 256 925 l 198 954 z "},"Ċ":{"ha":1038,"x_min":81,"x_max":1025,"o":"m 871 694 q 874 758 874 734 q 864 845 874 809 q 827 904 853 880 q 765 945 800 928 q 615 978 692 978 q 484 959 538 978 q 390 906 431 939 q 321 827 350 873 q 275 730 293 782 q 241 507 241 630 q 332 217 241 339 q 507 96 396 132 q 623 78 563 78 q 727 85 684 78 q 808 107 770 92 q 948 198 884 136 l 982 153 q 834 29 930 75 q 605 -17 739 -17 q 213 144 357 -17 q 81 512 81 292 q 141 772 81 650 q 449 1031 237 968 q 581 1052 522 1052 q 668 1049 641 1052 q 718 1041 695 1046 q 758 1029 740 1036 l 793 1018 q 886 998 852 998 q 961 1053 920 998 l 1025 1053 l 936 694 l 871 694 m 467 1216 l 590 1337 l 711 1216 l 590 1094 l 467 1216 z "},"ċ":{"ha":810,"x_min":58,"x_max":743,"o":"m 456 71 q 704 158 591 71 l 743 121 q 522 -7 663 24 q 433 -16 477 -16 q 153 114 257 -16 q 58 412 58 235 q 155 716 58 596 q 435 844 259 844 q 603 810 522 844 q 621 804 615 804 q 673 859 665 815 l 726 859 l 726 568 l 670 568 q 446 772 633 772 q 264 661 325 772 q 212 411 212 566 q 373 84 212 146 q 456 71 409 71 m 317 1120 l 440 1241 l 561 1120 l 440 998 l 317 1120 z "},"Č":{"ha":1038,"x_min":81,"x_max":1025,"o":"m 871 694 q 874 758 874 734 q 864 845 874 809 q 827 904 853 880 q 765 945 800 928 q 615 978 692 978 q 484 959 538 978 q 390 906 431 939 q 321 827 350 873 q 275 730 293 782 q 241 507 241 630 q 332 217 241 339 q 507 96 396 132 q 623 78 563 78 q 727 85 684 78 q 808 107 770 92 q 948 198 884 136 l 982 153 q 834 29 930 75 q 605 -17 739 -17 q 213 144 357 -17 q 81 512 81 292 q 141 772 81 650 q 449 1031 237 968 q 581 1052 522 1052 q 668 1049 641 1052 q 718 1041 695 1046 q 758 1029 740 1036 l 793 1018 q 886 998 852 998 q 961 1053 920 998 l 1025 1053 l 936 694 l 871 694 m 361 1294 l 404 1337 l 595 1221 q 774 1337 595 1221 l 817 1294 l 659 1103 l 534 1103 l 361 1294 z "},"č":{"ha":810,"x_min":58,"x_max":743,"o":"m 456 71 q 704 158 591 71 l 743 121 q 522 -7 663 24 q 433 -16 477 -16 q 153 114 257 -16 q 58 412 58 235 q 155 716 58 596 q 435 844 259 844 q 603 810 522 844 q 621 804 615 804 q 673 859 665 815 l 726 859 l 726 568 l 670 568 q 446 772 633 772 q 264 661 325 772 q 212 411 212 566 q 373 84 212 146 q 456 71 409 71 m 202 1232 l 260 1261 l 443 1029 l 626 1261 l 684 1232 l 530 925 l 357 925 l 202 1232 z "},"Ď":{"ha":1042,"x_min":43,"x_max":1017,"o":"m 241 1038 l 295 1038 q 354 1039 326 1038 l 403 1042 q 504 1047 477 1047 q 871 929 736 1047 q 1017 554 1017 802 q 881 142 1017 296 q 492 -17 741 -17 q 376 -12 428 -17 l 290 -3 q 241 1 257 1 l 43 0 l 43 56 q 105 67 82 62 q 140 84 128 72 q 161 180 161 104 l 161 861 q 144 952 161 937 q 105 971 128 967 q 43 979 82 975 l 43 1038 l 241 1038 m 298 147 q 433 66 298 87 q 509 60 473 60 q 845 355 784 60 q 865 571 865 452 q 837 767 865 690 q 759 890 809 843 q 484 979 665 979 q 317 939 369 979 q 298 901 298 924 l 298 147 m 309 1294 l 352 1337 l 543 1221 q 722 1337 543 1221 l 765 1294 l 606 1103 l 481 1103 l 309 1294 z "},"ď":{"ha":1154,"x_min":102,"x_max":1141,"o":"m 652 783 q 231 1165 547 1095 l 245 1225 q 713 962 556 1179 q 854 477 854 766 q 751 116 854 249 q 473 -16 647 -16 q 200 118 306 -16 q 102 411 102 241 q 193 705 102 583 q 469 839 294 839 q 652 783 576 839 m 700 460 q 481 766 700 766 q 303 655 359 766 q 257 409 257 566 q 370 91 257 177 q 478 59 412 59 q 589 90 545 59 q 658 174 633 120 q 700 460 700 267 m 1014 1160 l 1135 1038 q 1096 846 1141 962 q 957 614 1046 714 l 905 650 q 974 822 956 723 q 979 875 979 850 q 963 950 979 922 q 891 1038 941 989 l 1014 1160 z "},"Đ":{"ha":1040,"x_min":5,"x_max":1030,"o":"m 241 1038 l 295 1038 q 354 1039 326 1038 l 403 1042 q 504 1047 477 1047 q 880 929 742 1047 q 1030 554 1030 802 q 891 142 1030 294 q 492 -17 747 -17 q 376 -12 428 -17 l 290 -3 q 241 1 257 1 l 43 0 l 43 56 q 105 67 82 62 q 140 84 128 72 q 161 180 161 104 l 161 519 l 5 519 l 24 604 l 161 604 l 161 861 q 144 952 161 937 q 105 971 128 967 q 43 979 82 975 l 43 1038 l 241 1038 m 298 147 q 433 66 298 87 q 509 60 473 60 q 857 355 795 60 q 878 571 878 452 q 849 767 878 690 q 769 890 821 843 q 484 979 671 979 q 317 939 369 979 q 298 901 298 924 l 298 604 l 530 604 l 510 519 l 298 519 l 298 147 z "},"đ":{"ha":924,"x_min":85,"x_max":916,"o":"m 129 209 q 118 234 129 209 q 96 312 107 258 q 85 420 85 366 q 96 527 85 475 q 125 626 106 579 q 174 713 144 673 q 241 782 203 753 q 427 844 322 844 q 613 789 528 844 q 660 749 640 771 l 660 923 l 496 923 l 515 1006 l 660 1006 q 635 1084 659 1068 q 543 1103 617 1096 l 543 1160 l 916 1160 l 916 1103 q 859 1097 882 1100 q 823 1084 837 1094 q 798 1006 798 1067 l 916 1006 l 897 923 l 798 923 l 798 169 q 813 87 798 103 q 852 66 829 72 q 916 56 876 60 l 916 0 l 739 0 q 684 -3 715 0 l 618 -9 q 459 -20 515 -20 q 351 -3 404 -20 q 257 45 299 15 q 183 118 215 76 q 129 209 151 160 m 361 88 q 464 58 403 58 q 563 70 525 58 q 623 100 602 81 q 660 199 660 134 l 660 576 q 591 709 660 653 q 433 765 523 765 q 279 654 331 765 q 238 421 238 563 q 361 88 238 174 z "},"Ē":{"ha":1040,"x_min":73,"x_max":975,"o":"m 609 71 q 932 198 812 71 l 966 153 q 697 -5 876 30 q 581 -17 641 -17 q 369 24 463 -17 q 209 135 275 65 q 73 492 73 279 q 197 878 73 715 q 412 1031 280 987 q 535 1053 478 1053 q 620 1049 593 1053 q 669 1040 648 1046 q 708 1028 691 1035 q 746 1015 726 1022 q 836 996 802 996 q 909 1052 869 996 l 975 1052 l 884 692 l 820 692 q 823 766 823 745 q 813 845 823 810 q 777 903 802 879 q 718 945 752 928 q 565 979 648 979 q 423 945 482 979 q 323 854 363 912 q 231 554 246 744 l 669 554 l 650 477 l 229 477 q 334 201 236 319 q 609 71 441 71 m 344 1318 l 758 1337 l 758 1213 l 344 1229 l 344 1318 z "},"ē":{"ha":810,"x_min":68,"x_max":724,"o":"m 724 101 q 446 -14 631 -14 q 165 102 267 -14 q 68 398 68 214 q 176 711 68 587 q 451 833 283 833 q 651 779 579 833 q 720 639 720 728 q 608 446 720 524 q 216 352 479 354 q 467 75 240 75 q 686 140 610 75 l 724 101 m 214 425 q 541 539 456 429 q 572 640 572 580 q 505 749 572 719 q 439 760 478 760 q 369 746 399 760 q 314 708 338 732 q 271 652 290 684 q 241 583 253 620 q 214 425 216 506 m 220 1157 l 673 1177 l 673 1053 l 220 1068 l 220 1157 z "},"Ĕ":{"ha":1040,"x_min":73,"x_max":975,"o":"m 609 71 q 932 198 812 71 l 966 153 q 697 -5 876 30 q 581 -17 641 -17 q 369 24 463 -17 q 209 135 275 65 q 73 492 73 279 q 197 878 73 715 q 412 1031 280 987 q 535 1053 478 1053 q 620 1049 593 1053 q 669 1040 648 1046 q 708 1028 691 1035 q 746 1015 726 1022 q 836 996 802 996 q 909 1052 869 996 l 975 1052 l 884 692 l 820 692 q 823 766 823 745 q 813 845 823 810 q 777 903 802 879 q 718 945 752 928 q 565 979 648 979 q 423 945 482 979 q 323 854 363 912 q 231 554 246 744 l 669 554 l 650 477 l 229 477 q 334 201 236 319 q 609 71 441 71 m 635 1126 q 554 1114 600 1114 q 470 1128 508 1114 q 402 1170 431 1143 q 338 1319 339 1230 l 408 1319 q 455 1248 417 1275 q 540 1221 493 1221 q 610 1230 587 1221 q 649 1252 633 1238 q 675 1284 665 1266 l 694 1319 l 764 1319 q 635 1126 754 1168 z "},"ĕ":{"ha":810,"x_min":68,"x_max":724,"o":"m 724 101 q 446 -14 631 -14 q 165 102 267 -14 q 68 398 68 214 q 176 711 68 587 q 451 833 283 833 q 651 779 579 833 q 720 639 720 728 q 608 446 720 524 q 216 352 479 354 q 467 75 240 75 q 686 140 610 75 l 724 101 m 214 425 q 541 539 456 429 q 572 640 572 580 q 505 749 572 719 q 439 760 478 760 q 369 746 399 760 q 314 708 338 732 q 271 652 290 684 q 241 583 253 620 q 214 425 216 506 m 538 1023 q 444 1009 498 1009 q 352 1023 390 1009 q 288 1060 314 1038 q 248 1109 262 1082 q 224 1162 233 1137 q 210 1244 212 1202 l 281 1244 q 334 1152 292 1186 q 446 1118 376 1118 q 559 1152 516 1118 q 612 1244 602 1186 l 684 1244 q 538 1023 673 1072 z "},"Ė":{"ha":1040,"x_min":73,"x_max":975,"o":"m 609 71 q 932 198 812 71 l 966 153 q 697 -5 876 30 q 581 -17 641 -17 q 369 24 463 -17 q 209 135 275 65 q 73 492 73 279 q 197 878 73 715 q 412 1031 280 987 q 535 1053 478 1053 q 620 1049 593 1053 q 669 1040 648 1046 q 708 1028 691 1035 q 746 1015 726 1022 q 836 996 802 996 q 909 1052 869 996 l 975 1052 l 884 692 l 820 692 q 823 766 823 745 q 813 845 823 810 q 777 903 802 879 q 718 945 752 928 q 565 979 648 979 q 423 945 482 979 q 323 854 363 912 q 231 554 246 744 l 669 554 l 650 477 l 229 477 q 334 201 236 319 q 609 71 441 71 m 429 1216 l 552 1337 l 673 1216 l 552 1094 l 429 1216 z "},"ė":{"ha":810,"x_min":68,"x_max":724,"o":"m 724 101 q 446 -14 631 -14 q 165 102 267 -14 q 68 398 68 214 q 176 711 68 587 q 451 833 283 833 q 651 779 579 833 q 720 639 720 728 q 608 446 720 524 q 216 352 479 354 q 467 75 240 75 q 686 140 610 75 l 724 101 m 214 425 q 541 539 456 429 q 572 640 572 580 q 505 749 572 719 q 439 760 478 760 q 369 746 399 760 q 314 708 338 732 q 271 652 290 684 q 241 583 253 620 q 214 425 216 506 m 324 1120 l 448 1241 l 568 1120 l 448 998 l 324 1120 z "},"Ę":{"ha":1040,"x_min":66,"x_max":981,"o":"m 674 -5 q 551 -17 616 -17 q 418 2 486 -17 q 294 54 350 20 q 196 135 239 88 q 125 239 153 182 q 66 492 66 353 q 193 878 66 716 q 414 1031 279 987 q 541 1053 483 1053 q 627 1049 600 1053 q 676 1040 654 1046 q 715 1028 698 1035 q 753 1015 732 1022 q 842 996 808 996 q 916 1052 876 996 l 981 1052 l 891 692 l 827 692 q 830 766 830 745 q 820 845 830 810 q 784 903 809 879 q 724 945 759 928 q 584 979 655 979 q 468 961 513 979 q 386 913 422 943 q 322 842 350 883 q 275 753 294 800 q 227 554 237 661 l 688 554 l 670 477 l 225 477 q 321 201 232 317 q 595 71 422 71 q 745 91 686 71 q 939 198 846 125 l 973 153 q 905 99 942 127 l 830 43 q 705 -68 743 -24 q 635 -216 635 -150 q 656 -279 635 -257 q 727 -301 677 -301 q 836 -273 778 -301 l 859 -326 q 710 -380 791 -366 q 655 -385 684 -385 q 595 -375 625 -385 q 543 -347 564 -366 q 496 -245 496 -309 q 674 -5 496 -127 z "},"ę":{"ha":810,"x_min":68,"x_max":724,"o":"m 503 -6 q 446 -14 476 -14 q 165 102 267 -14 q 68 398 68 214 q 176 711 68 587 q 451 833 283 833 q 651 779 579 833 q 720 639 720 728 q 608 446 720 524 q 216 352 479 354 q 467 75 240 75 q 686 140 610 75 l 724 101 q 667 49 696 73 l 608 1 q 516 -87 541 -53 q 469 -216 469 -151 q 490 -279 469 -257 q 562 -301 511 -301 q 671 -273 612 -301 l 694 -326 q 545 -380 626 -366 q 496 -385 519 -385 q 375 -348 420 -385 q 331 -245 331 -311 q 503 -6 331 -123 m 214 425 q 541 539 456 429 q 572 640 572 580 q 505 749 572 719 q 439 760 478 760 q 369 746 399 760 q 314 708 338 732 q 271 652 290 684 q 241 583 253 620 q 214 425 216 506 z "},"Ě":{"ha":1040,"x_min":73,"x_max":975,"o":"m 609 71 q 932 198 812 71 l 966 153 q 697 -5 876 30 q 581 -17 641 -17 q 369 24 463 -17 q 209 135 275 65 q 73 492 73 279 q 197 878 73 715 q 412 1031 280 987 q 535 1053 478 1053 q 620 1049 593 1053 q 669 1040 648 1046 q 708 1028 691 1035 q 746 1015 726 1022 q 836 996 802 996 q 909 1052 869 996 l 975 1052 l 884 692 l 820 692 q 823 766 823 745 q 813 845 823 810 q 777 903 802 879 q 718 945 752 928 q 565 979 648 979 q 423 945 482 979 q 323 854 363 912 q 231 554 246 744 l 669 554 l 650 477 l 229 477 q 334 201 236 319 q 609 71 441 71 m 323 1294 l 366 1337 l 557 1221 q 736 1337 557 1221 l 779 1294 l 621 1103 l 496 1103 l 323 1294 z "},"ě":{"ha":810,"x_min":68,"x_max":724,"o":"m 724 101 q 446 -14 631 -14 q 165 102 267 -14 q 68 398 68 214 q 176 711 68 587 q 451 833 283 833 q 651 779 579 833 q 720 639 720 728 q 608 446 720 524 q 216 352 479 354 q 467 75 240 75 q 686 140 610 75 l 724 101 m 214 425 q 541 539 456 429 q 572 640 572 580 q 505 749 572 719 q 439 760 478 760 q 369 746 399 760 q 314 708 338 732 q 271 652 290 684 q 241 583 253 620 q 214 425 216 506 m 210 1232 l 267 1261 l 450 1029 l 633 1261 l 691 1232 l 538 925 l 364 925 l 210 1232 z "},"Ĝ":{"ha":1153,"x_min":65,"x_max":1079,"o":"m 873 39 q 599 -18 760 -18 q 199 148 345 -18 q 65 516 65 301 q 199 884 65 734 q 606 1052 347 1052 q 765 1029 690 1052 l 804 1018 q 902 998 868 998 q 977 1053 936 998 l 1042 1053 l 951 707 l 887 707 l 890 746 q 890 780 890 763 q 841 905 890 864 q 691 970 785 952 q 589 979 647 979 q 473 959 530 979 q 373 907 415 940 q 302 828 330 873 q 258 732 275 783 q 227 516 227 640 q 311 213 227 340 q 596 64 410 64 q 869 142 783 64 l 861 340 q 827 437 859 417 q 694 461 802 454 l 694 519 l 1079 519 l 1079 461 q 1045 453 1059 457 q 1023 437 1031 449 q 1004 340 1007 416 l 975 -263 l 890 -263 l 873 39 m 381 1146 l 545 1337 l 671 1337 l 836 1146 l 792 1103 l 608 1219 l 425 1103 l 381 1146 z "},"ĝ":{"ha":925,"x_min":67,"x_max":886,"o":"m 631 77 q 419 -16 543 -16 q 153 111 248 -16 q 67 399 67 224 q 161 699 67 577 q 457 833 266 833 q 570 829 511 833 q 711 820 683 820 l 886 820 l 886 762 q 793 740 809 757 q 773 703 777 724 q 770 650 770 682 l 770 35 q 673 -264 770 -142 q 390 -398 568 -398 q 218 -357 301 -398 l 245 -284 q 376 -307 303 -307 q 498 -278 448 -307 q 578 -201 548 -248 q 631 33 631 -113 l 631 77 m 221 399 q 425 59 221 59 q 572 116 513 59 q 631 252 631 172 l 631 621 q 609 713 631 690 q 454 760 566 760 q 221 399 221 760 m 214 954 l 368 1261 l 542 1261 l 695 954 l 637 925 l 454 1157 l 271 925 l 214 954 z "},"Ğ":{"ha":1153,"x_min":65,"x_max":1079,"o":"m 873 39 q 599 -18 760 -18 q 199 148 345 -18 q 65 516 65 301 q 199 884 65 734 q 606 1052 347 1052 q 765 1029 690 1052 l 804 1018 q 902 998 868 998 q 977 1053 936 998 l 1042 1053 l 951 707 l 887 707 l 890 746 q 890 780 890 763 q 841 905 890 864 q 691 970 785 952 q 589 979 647 979 q 473 959 530 979 q 373 907 415 940 q 302 828 330 873 q 258 732 275 783 q 227 516 227 640 q 311 213 227 340 q 596 64 410 64 q 869 142 783 64 l 861 340 q 827 437 859 417 q 694 461 802 454 l 694 519 l 1079 519 l 1079 461 q 1045 453 1059 457 q 1023 437 1031 449 q 1004 340 1007 416 l 975 -263 l 890 -263 l 873 39 m 692 1126 q 611 1114 657 1114 q 527 1128 566 1114 q 460 1170 489 1143 q 395 1319 397 1230 l 465 1319 q 513 1248 475 1275 q 598 1221 551 1221 q 668 1230 645 1221 q 707 1252 691 1238 q 732 1284 722 1266 l 752 1319 l 822 1319 q 692 1126 812 1168 z "},"ğ":{"ha":925,"x_min":67,"x_max":886,"o":"m 631 77 q 419 -16 543 -16 q 153 111 248 -16 q 67 399 67 224 q 161 699 67 577 q 457 833 266 833 q 570 829 511 833 q 711 820 683 820 l 886 820 l 886 762 q 793 740 809 757 q 773 703 777 724 q 770 650 770 682 l 770 35 q 673 -264 770 -142 q 390 -398 568 -398 q 218 -357 301 -398 l 245 -284 q 376 -307 303 -307 q 498 -278 448 -307 q 578 -201 548 -248 q 631 33 631 -113 l 631 77 m 221 399 q 425 59 221 59 q 572 116 513 59 q 631 252 631 172 l 631 621 q 609 713 631 690 q 454 760 566 760 q 221 399 221 760 m 546 1023 q 452 1009 507 1009 q 360 1023 398 1009 q 296 1060 322 1038 q 256 1109 271 1082 q 233 1162 241 1137 q 218 1244 220 1202 l 289 1244 q 342 1152 300 1186 q 454 1118 385 1118 q 567 1152 524 1118 q 621 1244 610 1186 l 692 1244 q 546 1023 682 1072 z "},"Ġ":{"ha":1153,"x_min":65,"x_max":1079,"o":"m 873 39 q 599 -18 760 -18 q 199 148 345 -18 q 65 516 65 301 q 199 884 65 734 q 606 1052 347 1052 q 765 1029 690 1052 l 804 1018 q 902 998 868 998 q 977 1053 936 998 l 1042 1053 l 951 707 l 887 707 l 890 746 q 890 780 890 763 q 841 905 890 864 q 691 970 785 952 q 589 979 647 979 q 473 959 530 979 q 373 907 415 940 q 302 828 330 873 q 258 732 275 783 q 227 516 227 640 q 311 213 227 340 q 596 64 410 64 q 869 142 783 64 l 861 340 q 827 437 859 417 q 694 461 802 454 l 694 519 l 1079 519 l 1079 461 q 1045 453 1059 457 q 1023 437 1031 449 q 1004 340 1007 416 l 975 -263 l 890 -263 l 873 39 m 486 1216 l 610 1337 l 730 1216 l 610 1094 l 486 1216 z "},"ġ":{"ha":925,"x_min":67,"x_max":886,"o":"m 631 77 q 419 -16 543 -16 q 153 111 248 -16 q 67 399 67 224 q 161 699 67 577 q 457 833 266 833 q 570 829 511 833 q 711 820 683 820 l 886 820 l 886 762 q 793 740 809 757 q 773 703 777 724 q 770 650 770 682 l 770 35 q 673 -264 770 -142 q 390 -398 568 -398 q 218 -357 301 -398 l 245 -284 q 376 -307 303 -307 q 498 -278 448 -307 q 578 -201 548 -248 q 631 33 631 -113 l 631 77 m 221 399 q 425 59 221 59 q 572 116 513 59 q 631 252 631 172 l 631 621 q 609 713 631 690 q 454 760 566 760 q 221 399 221 760 m 332 1120 l 456 1241 l 576 1120 l 456 998 l 332 1120 z "},"Ģ":{"ha":1153,"x_min":65,"x_max":1079,"o":"m 873 39 q 599 -18 760 -18 q 199 148 345 -18 q 65 516 65 301 q 199 884 65 734 q 606 1052 347 1052 q 765 1029 690 1052 l 804 1018 q 902 998 868 998 q 977 1053 936 998 l 1042 1053 l 951 707 l 887 707 l 890 746 q 890 780 890 763 q 841 905 890 864 q 691 970 785 952 q 589 979 647 979 q 473 959 530 979 q 373 907 415 940 q 302 828 330 873 q 258 732 275 783 q 227 516 227 640 q 311 213 227 340 q 596 64 410 64 q 869 142 783 64 l 861 340 q 827 437 859 417 q 694 461 802 454 l 694 519 l 1079 519 l 1079 461 q 1045 453 1059 457 q 1023 437 1031 449 q 1004 340 1007 416 l 975 -263 l 890 -263 l 873 39 m 607 -63 l 709 -166 q 618 -353 709 -278 q 538 -399 586 -380 l 510 -349 q 551 -315 534 -334 q 568 -274 568 -296 q 565 -241 568 -252 q 554 -219 562 -231 q 506 -163 542 -200 l 607 -63 z "},"ģ":{"ha":925,"x_min":67,"x_max":886,"o":"m 631 77 q 419 -16 543 -16 q 153 111 248 -16 q 67 399 67 224 q 161 699 67 577 q 457 833 266 833 q 570 829 511 833 q 711 820 683 820 l 886 820 l 886 762 q 793 740 809 757 q 773 703 777 724 q 770 650 770 682 l 770 35 q 673 -264 770 -142 q 390 -398 568 -398 q 218 -357 301 -398 l 245 -284 q 376 -307 303 -307 q 498 -278 448 -307 q 578 -201 548 -248 q 631 33 631 -113 l 631 77 m 221 399 q 425 59 221 59 q 572 116 513 59 q 631 252 631 172 l 631 621 q 609 713 631 690 q 454 760 566 760 q 221 399 221 760 m 476 964 l 374 1067 q 465 1254 374 1179 q 545 1299 497 1281 l 573 1249 q 532 1215 549 1234 q 515 1175 515 1196 q 518 1142 515 1153 q 529 1120 522 1131 q 577 1063 541 1101 l 476 964 z "},"Ĥ":{"ha":1152,"x_min":71,"x_max":1080,"o":"m 76 56 q 137 67 115 62 q 170 84 159 72 q 184 118 181 96 q 186 180 186 140 l 186 859 q 171 951 186 936 q 132 971 155 966 q 71 979 109 975 l 71 1038 l 439 1038 l 439 979 q 377 971 400 975 q 342 956 354 967 q 322 859 322 938 l 322 576 l 827 576 l 827 859 q 811 951 827 937 q 772 971 795 966 q 711 979 749 975 l 711 1038 l 1080 1038 l 1080 979 q 1019 971 1042 975 q 984 956 996 967 q 964 859 964 937 l 964 180 q 967 118 964 140 q 982 85 970 96 q 1017 68 994 73 q 1080 56 1040 62 l 1080 0 l 711 0 l 711 56 q 772 67 749 62 q 807 84 795 72 q 827 180 827 104 l 827 499 l 322 499 l 322 180 q 337 88 322 103 q 376 68 353 73 q 439 56 399 62 l 439 0 l 76 0 l 76 56 m 348 1146 l 512 1337 l 638 1337 l 802 1146 l 759 1103 l 575 1219 l 391 1103 l 348 1146 z "},"ĥ":{"ha":1041,"x_min":102,"x_max":1000,"o":"m 417 954 l 572 1261 l 745 1261 l 899 954 l 841 925 l 658 1157 l 475 925 l 417 954 m 357 678 q 583 882 418 798 q 762 744 701 819 q 883 388 862 622 q 890 230 890 306 q 892 127 890 154 q 903 86 895 100 q 929 68 912 73 q 962 61 945 64 q 986 58 979 58 q 1000 56 993 58 l 1000 0 l 631 0 l 631 56 q 693 65 670 61 q 728 82 716 70 q 748 191 748 102 l 748 271 q 741 485 748 425 q 722 585 733 546 q 692 658 711 623 q 577 786 656 722 q 427 659 476 724 q 357 428 357 566 l 357 198 q 360 125 357 151 q 375 85 363 99 q 410 67 387 72 q 475 56 433 62 l 475 0 l 102 0 l 102 56 l 104 56 q 167 66 144 61 q 201 83 190 71 q 219 177 219 102 l 219 999 q 203 1089 219 1074 q 164 1108 187 1104 q 102 1116 141 1113 l 102 1173 l 357 1173 l 357 678 z "},"Ħ":{"ha":1152,"x_min":71,"x_max":1080,"o":"m 76 56 q 137 67 115 62 q 170 84 159 72 q 184 118 181 96 q 186 180 186 140 l 186 713 l 82 713 l 82 798 l 186 798 l 186 859 q 171 951 186 936 q 132 971 155 966 q 71 979 109 975 l 71 1038 l 441 1038 l 441 979 q 379 971 402 975 q 344 956 356 967 q 324 859 324 938 l 324 798 l 826 798 l 826 859 q 810 951 826 937 q 771 971 794 966 q 709 979 748 975 l 709 1038 l 1080 1038 l 1080 979 q 1019 971 1042 975 q 984 956 996 967 q 964 859 964 937 l 964 798 l 1058 798 l 1058 713 l 964 713 l 964 180 q 967 118 964 140 q 982 85 970 96 q 1017 68 994 73 q 1080 56 1040 62 l 1080 0 l 709 0 l 709 56 q 770 67 747 62 q 806 84 793 72 q 826 180 826 104 l 826 499 l 324 499 l 324 180 q 339 88 324 103 q 378 68 355 73 q 441 56 401 62 l 441 0 l 76 0 l 76 56 m 826 576 l 826 713 l 324 713 l 324 576 l 826 576 z "},"ħ":{"ha":1041,"x_min":102,"x_max":1000,"o":"m 357 678 q 583 882 418 798 q 762 744 701 819 q 883 388 862 622 q 890 230 890 306 q 892 127 890 154 q 903 86 895 100 q 929 68 912 73 q 962 61 945 64 q 986 58 979 58 q 1000 56 993 58 l 1000 0 l 631 0 l 631 56 q 693 65 670 61 q 728 82 716 70 q 748 191 748 102 l 748 271 q 741 485 748 425 q 722 585 733 546 q 692 658 711 623 q 577 786 656 722 q 427 659 476 724 q 357 428 357 566 l 357 198 q 360 125 357 151 q 375 85 363 99 q 410 67 387 72 q 475 56 433 62 l 475 0 l 102 0 l 102 56 l 104 56 q 167 66 144 61 q 201 83 190 71 q 219 177 219 102 l 219 937 l 102 937 l 121 1020 l 219 1020 q 195 1096 218 1078 q 102 1116 178 1109 l 102 1173 l 475 1173 l 475 1116 q 416 1109 439 1112 q 381 1096 394 1105 q 357 1020 359 1080 l 523 1020 l 503 937 l 357 937 l 357 678 z "},"Ĩ":{"ha":575,"x_min":52,"x_max":529,"o":"m 104 56 l 106 56 l 127 60 q 202 82 189 68 q 222 180 222 104 l 222 859 q 205 951 222 937 q 166 971 189 966 q 104 979 143 975 l 104 1038 l 475 1038 l 475 979 q 414 971 437 975 q 379 956 391 967 q 359 859 359 937 l 359 180 q 371 89 359 104 q 401 70 383 74 q 450 60 419 65 l 475 56 l 475 0 l 104 0 l 104 56 m 179 1223 q 115 1164 125 1223 l 52 1164 q 106 1291 56 1242 q 214 1337 153 1337 q 321 1299 255 1337 q 401 1267 375 1267 q 466 1327 455 1267 l 529 1327 q 475 1200 525 1251 q 366 1154 427 1154 q 262 1192 328 1154 l 220 1213 q 179 1223 199 1223 z "},"ĩ":{"ha":461,"x_min":-26,"x_max":513,"o":"m 58 56 l 81 60 q 129 68 111 64 q 157 84 147 73 q 175 180 175 105 l 175 640 q 159 733 175 718 q 119 753 142 749 q 58 761 96 758 l 58 819 l 429 819 l 429 761 q 367 753 390 757 q 332 737 344 749 q 312 640 312 719 l 312 180 q 324 89 312 103 q 354 70 336 75 q 402 60 372 65 l 429 56 l 429 0 l 58 0 l 58 56 m -22 975 q -26 1020 -26 997 q -12 1073 -26 1043 q 25 1124 2 1102 q 141 1170 74 1170 q 262 1118 201 1170 q 361 1067 324 1067 q 408 1082 393 1067 q 433 1147 437 1112 l 509 1147 q 513 1102 513 1124 q 499 1049 513 1079 q 461 998 485 1020 q 345 952 412 952 q 273 971 300 952 q 230 1003 245 990 q 200 1028 215 1017 q 142 1055 166 1055 q 103 1049 117 1055 q 77 1034 88 1044 q 54 975 50 1009 l -22 975 z "},"Ī":{"ha":575,"x_min":83,"x_max":497,"o":"m 104 56 l 106 56 l 127 60 q 202 82 189 68 q 222 180 222 104 l 222 859 q 205 951 222 937 q 166 971 189 966 q 104 979 143 975 l 104 1038 l 475 1038 l 475 979 q 414 971 437 975 q 379 956 391 967 q 359 859 359 937 l 359 180 q 371 89 359 104 q 401 70 383 74 q 450 60 419 65 l 475 56 l 475 0 l 104 0 l 104 56 m 83 1318 l 497 1337 l 497 1213 l 83 1229 l 83 1318 z "},"ī":{"ha":461,"x_min":17,"x_max":471,"o":"m 58 56 l 81 60 q 129 68 111 64 q 157 84 147 73 q 175 180 175 105 l 175 640 q 159 733 175 718 q 119 753 142 749 q 58 761 96 758 l 58 819 l 429 819 l 429 761 q 367 753 390 757 q 332 737 344 749 q 312 640 312 719 l 312 180 q 324 89 312 103 q 354 70 336 75 q 402 60 372 65 l 429 56 l 429 0 l 58 0 l 58 56 m 17 1157 l 471 1177 l 471 1053 l 17 1068 l 17 1157 z "},"Ĭ":{"ha":575,"x_min":77,"x_max":504,"o":"m 104 56 l 106 56 l 127 60 q 202 82 189 68 q 222 180 222 104 l 222 859 q 205 951 222 937 q 166 971 189 966 q 104 979 143 975 l 104 1038 l 475 1038 l 475 979 q 414 971 437 975 q 379 956 391 967 q 359 859 359 937 l 359 180 q 371 89 359 104 q 401 70 383 74 q 450 60 419 65 l 475 56 l 475 0 l 104 0 l 104 56 m 374 1126 q 293 1114 339 1114 q 209 1128 248 1114 q 142 1170 171 1143 q 77 1319 79 1230 l 147 1319 q 195 1248 157 1275 q 280 1221 233 1221 q 350 1230 327 1221 q 389 1252 373 1238 q 414 1284 404 1266 l 434 1319 l 504 1319 q 374 1126 494 1168 z "},"ĭ":{"ha":461,"x_min":7,"x_max":481,"o":"m 58 56 l 81 60 q 129 68 111 64 q 157 84 147 73 q 175 180 175 105 l 175 640 q 159 733 175 718 q 119 753 142 749 q 58 761 96 758 l 58 819 l 429 819 l 429 761 q 367 753 390 757 q 332 737 344 749 q 312 640 312 719 l 312 180 q 324 89 312 103 q 354 70 336 75 q 402 60 372 65 l 429 56 l 429 0 l 58 0 l 58 56 m 335 1023 q 241 1009 296 1009 q 149 1023 187 1009 q 85 1060 111 1038 q 45 1109 60 1082 q 22 1162 30 1137 q 7 1244 9 1202 l 78 1244 q 131 1152 89 1186 q 243 1118 174 1118 q 356 1152 313 1118 q 410 1244 399 1186 l 481 1244 q 335 1023 471 1072 z "},"Į":{"ha":575,"x_min":74,"x_max":475,"o":"m 212 -216 q 305 -301 212 -301 q 414 -273 355 -301 l 437 -326 q 288 -380 369 -366 q 239 -385 262 -385 q 118 -349 163 -385 q 74 -245 74 -313 q 252 0 74 -113 l 104 0 l 104 56 l 106 56 l 127 60 q 202 82 189 68 q 222 180 222 104 l 222 859 q 205 951 222 937 q 166 971 189 966 q 104 979 143 975 l 104 1038 l 475 1038 l 475 979 q 414 971 437 975 q 379 956 391 967 q 359 859 359 937 l 359 180 q 371 89 359 104 q 401 70 383 74 q 450 60 419 65 l 475 56 l 475 0 l 357 0 q 252 -104 294 -42 q 212 -216 212 -164 z "},"į":{"ha":461,"x_min":30,"x_max":429,"o":"m 114 1090 l 237 1211 l 358 1090 l 237 967 l 114 1090 m 168 -216 q 261 -301 168 -301 q 370 -273 311 -301 l 393 -326 q 243 -380 325 -366 q 195 -385 218 -385 q 74 -349 119 -385 q 30 -245 30 -313 q 208 0 30 -113 l 58 0 l 58 56 l 81 60 q 129 68 111 64 q 157 84 147 73 q 175 180 175 105 l 175 640 q 159 733 175 718 q 119 753 142 749 q 58 761 96 758 l 58 819 l 429 819 l 429 761 q 367 753 390 757 q 332 737 344 749 q 312 640 312 719 l 312 180 q 324 89 312 103 q 354 70 336 75 q 402 60 372 65 l 429 56 l 429 0 l 313 0 q 209 -104 250 -42 q 168 -216 168 -164 z "},"İ":{"ha":575,"x_min":104,"x_max":475,"o":"m 104 56 l 106 56 l 127 60 q 202 82 189 68 q 222 180 222 104 l 222 859 q 205 951 222 937 q 166 971 189 966 q 104 979 143 975 l 104 1038 l 475 1038 l 475 979 q 414 971 437 975 q 379 956 391 967 q 359 859 359 937 l 359 180 q 371 89 359 104 q 401 70 383 74 q 450 60 419 65 l 475 56 l 475 0 l 104 0 l 104 56 m 168 1216 l 291 1337 l 412 1216 l 291 1094 l 168 1216 z "},"ı":{"ha":461,"x_min":58,"x_max":429,"o":"m 58 56 l 81 60 q 129 68 111 64 q 157 84 147 73 q 175 180 175 105 l 175 640 q 159 733 175 718 q 119 753 142 749 q 58 761 96 758 l 58 819 l 429 819 l 429 761 q 367 753 390 757 q 332 737 344 749 q 312 640 312 719 l 312 180 q 324 89 312 103 q 354 70 336 75 q 402 60 372 65 l 429 56 l 429 0 l 58 0 l 58 56 z "},"Ĳ":{"ha":1153,"x_min":104,"x_max":1040,"o":"m 104 56 l 106 56 l 127 60 q 202 82 189 68 q 222 180 222 104 l 222 859 q 205 951 222 937 q 166 971 189 966 q 104 979 143 975 l 104 1038 l 475 1038 l 475 979 q 414 971 437 975 q 379 956 391 967 q 359 859 359 937 l 359 180 q 371 89 359 104 q 401 70 383 74 q 450 60 419 65 l 475 56 l 475 0 l 104 0 l 104 56 m 772 859 q 743 956 772 935 q 703 971 728 968 q 642 979 678 975 l 642 1038 l 1040 1038 l 1040 979 q 974 971 1000 975 q 935 956 949 967 q 910 859 910 937 l 910 291 q 891 14 910 100 q 849 -122 872 -72 q 790 -217 826 -173 q 589 -383 723 -300 l 553 -337 q 686 -184 652 -241 q 735 -84 720 -127 q 758 11 750 -41 q 772 266 772 94 l 772 859 z "},"ĳ":{"ha":1040,"x_min":96,"x_max":958,"o":"m 643 1103 l 766 1224 l 887 1103 l 766 981 l 643 1103 m 152 1103 l 275 1224 l 397 1103 l 275 981 l 152 1103 m 374 -332 q 705 160 705 -252 l 705 655 q 682 739 705 720 q 587 762 665 754 l 587 819 l 958 819 l 958 762 q 897 753 920 758 q 862 738 874 749 q 842 641 842 719 l 842 247 q 741 -187 842 -34 q 387 -398 632 -353 l 374 -332 m 96 56 q 106 58 99 58 q 130 61 113 58 q 165 68 147 63 q 194 84 184 73 q 213 180 213 106 l 213 641 q 197 734 213 719 q 157 754 180 749 q 96 762 134 758 l 96 819 l 467 819 l 467 762 q 406 753 429 758 q 370 738 382 749 q 350 641 350 719 l 350 180 q 362 89 350 104 q 392 70 374 74 q 441 60 410 65 l 467 56 l 467 0 l 96 0 l 96 56 z "},"Ĵ":{"ha":463,"x_min":-28,"x_max":521,"o":"m 192 859 q 163 956 192 935 q 123 971 148 968 q 61 979 98 975 l 61 1038 l 460 1038 l 460 979 q 394 971 419 975 q 354 956 368 967 q 330 859 330 937 l 330 291 q 311 14 330 100 q 269 -122 292 -72 q 210 -217 245 -173 q 9 -383 142 -300 l -28 -337 q 105 -184 71 -241 q 155 -84 140 -127 q 178 11 170 -41 q 192 266 192 94 l 192 859 m 66 1146 l 231 1337 l 357 1337 l 521 1146 l 477 1103 l 294 1219 l 110 1103 l 66 1146 z "},"ĵ":{"ha":461,"x_min":-37,"x_max":486,"o":"m 183 655 q 161 739 183 721 q 66 761 143 753 l 66 819 l 437 819 l 437 761 q 376 753 399 757 q 340 737 353 749 q 320 640 320 718 l 320 210 q 301 -49 320 24 q 259 -162 282 -122 q 201 -239 236 -203 q 0 -383 146 -293 l -37 -337 l -7 -309 q 28 -274 6 -295 q 76 -227 51 -253 q 119 -175 100 -201 q 149 -120 137 -149 q 170 -52 161 -90 q 183 157 183 18 l 183 655 m 4 954 l 159 1261 l 332 1261 l 486 954 l 428 925 l 245 1157 l 62 925 l 4 954 z "},"Ķ":{"ha":1040,"x_min":69,"x_max":1097,"o":"m 619 979 l 619 1038 l 970 1038 l 970 979 q 865 929 909 971 q 834 896 850 915 l 559 536 l 1097 -165 l 1050 -204 l 394 491 l 672 861 q 720 947 720 916 q 619 979 720 979 m 69 56 l 93 60 q 167 82 155 68 q 183 118 180 96 q 186 180 186 140 l 186 859 q 171 951 186 937 q 131 971 155 966 q 69 979 108 975 l 69 1038 l 441 1038 l 441 979 q 379 971 402 975 q 343 956 355 968 q 328 922 331 945 q 324 859 324 900 l 324 180 q 338 89 324 104 q 372 70 352 74 q 427 60 392 65 l 456 56 l 456 0 l 69 0 l 69 56 m 581 -63 l 683 -166 q 593 -353 683 -278 q 513 -399 560 -380 l 484 -349 q 525 -315 508 -334 q 543 -274 543 -296 q 539 -241 543 -252 q 528 -219 536 -231 q 480 -163 516 -200 l 581 -63 z "},"ķ":{"ha":925,"x_min":54,"x_max":943,"o":"m 54 56 l 77 60 q 152 82 139 68 q 171 180 171 104 l 171 982 q 155 1074 171 1059 q 116 1094 139 1090 q 54 1102 93 1099 l 54 1160 l 426 1160 l 426 1102 q 364 1094 387 1098 q 329 1078 341 1090 q 309 982 309 1060 l 309 180 q 321 89 309 103 q 352 70 334 74 q 400 60 370 65 l 426 56 l 426 0 l 54 0 l 54 56 m 356 441 l 576 654 l 594 670 q 611 686 603 678 l 626 703 q 641 729 641 719 q 634 746 641 740 q 615 755 627 753 q 562 761 596 761 l 562 820 l 922 820 l 922 765 q 734 677 809 753 l 527 467 l 943 -112 l 897 -151 l 356 441 m 497 -63 l 599 -166 q 509 -353 599 -278 q 429 -399 476 -380 l 400 -349 q 441 -315 424 -334 q 458 -274 458 -296 q 455 -241 458 -252 q 444 -219 452 -231 q 396 -163 432 -200 l 497 -63 z "},"ĸ":{"ha":925,"x_min":54,"x_max":943,"o":"m 594 670 q 611 686 603 678 l 626 703 q 641 729 641 719 q 634 746 641 740 q 615 755 627 753 q 562 761 596 761 l 562 820 l 922 820 l 922 765 q 734 677 812 752 l 527 467 l 943 -112 l 897 -151 l 356 441 l 594 670 m 54 56 l 77 60 q 152 82 139 68 q 171 180 171 104 l 171 642 q 155 734 171 718 q 116 754 139 749 q 54 762 93 758 l 54 819 l 408 819 l 408 762 q 329 739 342 755 q 312 702 315 724 q 309 642 309 680 l 309 180 q 321 89 309 103 q 352 70 334 74 q 400 60 370 65 l 426 56 l 426 0 l 54 0 l 54 56 z "},"Ĺ":{"ha":925,"x_min":50,"x_max":905,"o":"m 50 57 q 153 80 136 65 q 172 113 169 94 q 175 159 175 131 l 175 880 q 158 951 175 937 q 116 970 141 965 q 50 979 92 975 l 50 1038 l 446 1038 l 446 979 q 343 962 363 975 q 319 930 324 948 q 313 882 313 912 l 313 142 q 354 85 313 98 q 474 75 386 75 q 610 77 562 75 q 692 86 658 79 q 748 108 726 94 q 787 147 770 123 q 842 296 810 183 l 905 296 l 853 -53 l 795 -53 q 778 -14 793 -28 q 740 0 764 0 l 50 0 l 50 57 m 286 1147 l 592 1336 l 669 1188 l 307 1086 l 286 1147 z "},"ĺ":{"ha":465,"x_min":57,"x_max":452,"o":"m 60 56 l 84 60 q 132 68 113 64 q 160 84 150 73 q 178 180 178 105 l 178 860 q 161 952 178 937 q 122 972 145 968 q 60 980 99 977 l 60 1038 l 315 1038 l 315 180 q 338 87 315 109 q 419 61 355 70 l 452 56 l 452 0 l 60 0 l 60 56 m 57 1149 l 363 1337 l 441 1190 l 79 1088 l 57 1149 z "},"Ļ":{"ha":925,"x_min":50,"x_max":905,"o":"m 50 57 q 153 80 136 65 q 172 113 169 94 q 175 159 175 131 l 175 880 q 158 951 175 937 q 116 970 141 965 q 50 979 92 975 l 50 1038 l 446 1038 l 446 979 q 343 962 363 975 q 319 930 324 948 q 313 882 313 912 l 313 142 q 354 85 313 98 q 474 75 386 75 q 610 77 562 75 q 692 86 658 79 q 748 108 726 94 q 787 147 770 123 q 842 296 810 183 l 905 296 l 853 -53 l 795 -53 q 778 -14 793 -28 q 740 0 764 0 l 50 0 l 50 57 m 476 -63 l 578 -166 q 488 -353 578 -278 q 408 -399 455 -380 l 379 -349 q 420 -315 403 -334 q 437 -274 437 -296 q 434 -241 437 -252 q 423 -219 431 -231 q 375 -163 411 -200 l 476 -63 z "},"ļ":{"ha":465,"x_min":60,"x_max":452,"o":"m 60 56 l 84 60 q 132 68 113 64 q 160 84 150 73 q 178 180 178 105 l 178 996 q 161 1088 178 1073 q 122 1108 145 1103 q 60 1116 99 1112 l 60 1173 l 315 1173 l 315 180 q 338 87 315 109 q 419 61 355 70 l 452 56 l 452 0 l 60 0 l 60 56 m 254 -63 l 356 -166 q 266 -353 356 -278 q 186 -399 233 -380 l 157 -349 q 198 -315 181 -334 q 216 -274 216 -296 q 212 -241 216 -252 q 201 -219 209 -231 q 153 -163 189 -200 l 254 -63 z "},"Ľ":{"ha":925,"x_min":50,"x_max":905,"o":"m 50 57 q 153 80 136 65 q 172 113 169 94 q 175 159 175 131 l 175 880 q 158 951 175 937 q 116 970 141 965 q 50 979 92 975 l 50 1038 l 446 1038 l 446 979 q 343 962 363 975 q 319 930 324 948 q 313 882 313 912 l 313 142 q 354 85 313 98 q 474 75 386 75 q 610 77 562 75 q 692 86 658 79 q 748 108 726 94 q 787 147 770 123 q 842 296 810 183 l 905 296 l 853 -53 l 795 -53 q 778 -14 793 -28 q 740 0 764 0 l 50 0 l 50 57 m 698 1160 l 819 1038 q 780 846 825 962 q 641 614 730 714 l 589 650 q 658 822 640 723 q 663 875 663 850 q 647 950 663 922 q 575 1038 625 989 l 698 1160 z "},"ľ":{"ha":692,"x_min":67,"x_max":672,"o":"m 67 56 l 91 60 q 138 68 120 64 q 167 84 157 73 q 184 180 184 105 l 184 996 q 168 1088 184 1073 q 129 1108 152 1103 q 67 1116 106 1112 l 67 1173 l 321 1173 l 321 180 q 345 87 321 109 q 426 61 361 70 l 458 56 l 458 0 l 67 0 l 67 56 m 545 1160 l 666 1038 q 627 846 672 962 q 488 614 577 714 l 436 650 q 505 822 488 723 q 510 875 510 850 q 494 950 510 922 q 422 1038 472 989 l 545 1160 z "},"Ŀ":{"ha":925,"x_min":50,"x_max":905,"o":"m 758 812 l 879 691 l 758 568 l 635 691 l 758 812 m 50 57 q 153 80 136 65 q 172 113 169 94 q 175 159 175 131 l 175 880 q 158 951 175 937 q 116 970 141 965 q 50 979 92 975 l 50 1038 l 446 1038 l 446 979 q 343 962 363 975 q 319 930 324 948 q 313 882 313 912 l 313 142 q 354 85 313 98 q 474 75 386 75 q 610 77 562 75 q 692 86 658 79 q 748 108 726 94 q 787 147 770 123 q 842 296 810 183 l 905 296 l 853 -53 l 795 -53 q 778 -14 793 -28 q 740 0 764 0 l 50 0 l 50 57 z "},"ŀ":{"ha":465,"x_min":60,"x_max":452,"o":"m 60 56 l 84 60 q 132 68 113 64 q 160 84 150 73 q 178 180 178 105 l 178 996 q 161 1088 178 1073 q 122 1108 145 1103 q 60 1116 99 1112 l 60 1173 l 315 1173 l 315 180 q 338 87 315 109 q 419 61 355 70 l 452 56 l 452 0 l 60 0 l 60 56 z "},"Ł":{"ha":918,"x_min":77,"x_max":944,"o":"m 89 57 q 191 80 175 65 q 211 113 208 94 q 214 159 214 131 l 214 433 l 103 374 l 77 454 l 214 528 l 214 880 q 197 951 214 937 q 155 970 180 965 q 89 979 130 975 l 89 1038 l 484 1038 l 484 979 q 382 962 401 975 q 357 930 363 948 q 352 882 352 912 l 352 604 l 728 808 l 753 727 l 352 509 l 352 142 q 392 85 352 98 q 512 75 425 75 q 648 77 600 75 q 730 86 696 79 q 787 108 764 94 q 825 147 809 123 q 881 296 848 183 l 944 296 l 892 -53 l 833 -53 q 817 -14 831 -28 q 779 0 802 0 l 89 0 l 89 57 z "},"ł":{"ha":465,"x_min":14,"x_max":475,"o":"m 60 56 l 84 60 q 132 68 113 64 q 160 84 150 73 q 178 180 178 105 l 178 567 l 39 488 l 14 568 l 178 663 l 178 996 q 161 1088 178 1073 q 122 1108 145 1103 q 60 1116 99 1112 l 60 1173 l 315 1173 l 315 741 l 451 819 l 475 739 l 315 646 l 315 180 q 338 87 315 109 q 419 61 355 70 l 452 56 l 452 0 l 60 0 l 60 56 z "},"Ń":{"ha":1155,"x_min":31,"x_max":1113,"o":"m 31 56 l 61 60 q 136 79 121 70 q 161 142 161 96 l 161 1057 l 219 1077 l 886 237 l 886 873 q 859 958 886 938 q 755 980 839 972 l 755 1038 l 1113 1038 l 1113 980 q 1053 972 1077 976 q 1015 958 1029 968 q 989 875 989 940 l 989 -16 l 937 -32 l 264 814 l 264 163 q 292 85 264 105 q 356 64 311 71 q 410 56 401 58 l 410 0 l 31 0 l 31 56 m 380 1147 l 686 1336 l 764 1188 l 401 1086 l 380 1147 z "},"ń":{"ha":1043,"x_min":103,"x_max":998,"o":"m 357 678 q 578 882 418 801 q 758 745 695 819 q 879 388 858 625 q 886 231 886 307 q 888 127 886 155 q 900 86 891 100 q 926 68 909 73 q 960 61 943 64 q 984 58 977 58 q 998 56 991 58 l 998 0 l 627 0 l 627 56 q 689 65 666 61 q 724 82 712 70 q 744 191 744 102 l 744 270 q 736 485 744 425 q 718 584 729 545 q 688 658 707 623 q 571 786 650 723 q 357 428 357 654 l 357 198 q 370 91 357 109 q 403 68 383 73 q 456 58 422 63 l 474 56 l 474 0 l 103 0 l 103 56 q 114 58 107 58 q 137 61 120 58 q 173 68 155 63 q 202 84 192 73 q 219 176 219 102 l 219 660 q 203 735 219 722 q 165 754 188 749 q 103 761 142 758 l 103 819 l 357 819 l 357 678 m 471 959 l 643 1275 l 785 1184 l 538 922 l 471 959 z "},"Ņ":{"ha":1155,"x_min":31,"x_max":1113,"o":"m 31 56 l 61 60 q 136 79 121 70 q 161 142 161 96 l 161 1057 l 219 1077 l 886 237 l 886 873 q 859 958 886 938 q 755 980 839 972 l 755 1038 l 1113 1038 l 1113 980 q 1053 972 1077 976 q 1015 958 1029 968 q 989 875 989 940 l 989 -16 l 937 -32 l 264 814 l 264 163 q 292 85 264 105 q 356 64 311 71 q 410 56 401 58 l 410 0 l 31 0 l 31 56 m 570 -63 l 672 -166 q 582 -353 672 -278 q 502 -399 549 -380 l 473 -349 q 514 -315 497 -334 q 532 -274 532 -296 q 528 -241 532 -252 q 517 -219 525 -231 q 469 -163 505 -200 l 570 -63 z "},"ņ":{"ha":1043,"x_min":103,"x_max":998,"o":"m 357 678 q 578 882 418 801 q 758 745 695 819 q 879 388 858 625 q 886 231 886 307 q 888 127 886 155 q 900 86 891 100 q 926 68 909 73 q 960 61 943 64 q 984 58 977 58 q 998 56 991 58 l 998 0 l 627 0 l 627 56 q 689 65 666 61 q 724 82 712 70 q 744 191 744 102 l 744 270 q 736 485 744 425 q 718 584 729 545 q 688 658 707 623 q 571 786 650 723 q 357 428 357 654 l 357 198 q 370 91 357 109 q 403 68 383 73 q 456 58 422 63 l 474 56 l 474 0 l 103 0 l 103 56 q 114 58 107 58 q 137 61 120 58 q 173 68 155 63 q 202 84 192 73 q 219 176 219 102 l 219 660 q 203 735 219 722 q 165 754 188 749 q 103 761 142 758 l 103 819 l 357 819 l 357 678 m 559 -63 l 661 -166 q 571 -353 661 -278 q 491 -399 538 -380 l 463 -349 q 504 -315 486 -334 q 521 -274 521 -296 q 517 -241 521 -252 q 507 -219 514 -231 q 458 -163 494 -200 l 559 -63 z "},"Ň":{"ha":1155,"x_min":31,"x_max":1113,"o":"m 31 56 l 61 60 q 136 79 121 70 q 161 142 161 96 l 161 1057 l 219 1077 l 886 237 l 886 873 q 859 958 886 938 q 755 980 839 972 l 755 1038 l 1113 1038 l 1113 980 q 1053 972 1077 976 q 1015 958 1029 968 q 989 875 989 940 l 989 -16 l 937 -32 l 264 814 l 264 163 q 292 85 264 105 q 356 64 311 71 q 410 56 401 58 l 410 0 l 31 0 l 31 56 m 344 1294 l 387 1337 l 578 1221 q 757 1337 578 1221 l 800 1294 l 642 1103 l 517 1103 l 344 1294 z "},"ň":{"ha":1043,"x_min":103,"x_max":998,"o":"m 357 678 q 578 882 418 801 q 758 745 695 819 q 879 388 858 625 q 886 231 886 307 q 888 127 886 155 q 900 86 891 100 q 926 68 909 73 q 960 61 943 64 q 984 58 977 58 q 998 56 991 58 l 998 0 l 627 0 l 627 56 q 689 65 666 61 q 724 82 712 70 q 744 191 744 102 l 744 270 q 736 485 744 425 q 718 584 729 545 q 688 658 707 623 q 571 786 650 723 q 357 428 357 654 l 357 198 q 370 91 357 109 q 403 68 383 73 q 456 58 422 63 l 474 56 l 474 0 l 103 0 l 103 56 q 114 58 107 58 q 137 61 120 58 q 173 68 155 63 q 202 84 192 73 q 219 176 219 102 l 219 660 q 203 735 219 722 q 165 754 188 749 q 103 761 142 758 l 103 819 l 357 819 l 357 678 m 340 1232 l 397 1261 l 581 1029 l 764 1261 l 821 1232 l 668 925 l 494 925 l 340 1232 z "},"Ŋ":{"ha":1155,"x_min":31,"x_max":1113,"o":"m 31 56 l 61 60 q 136 79 121 70 q 161 142 161 96 l 161 1057 l 219 1077 l 886 237 l 886 873 q 859 958 886 938 q 755 980 839 972 l 755 1038 l 1113 1038 l 1113 980 q 1053 972 1077 976 q 1015 958 1029 968 q 989 875 989 940 l 989 227 q 890 -193 989 -45 q 537 -398 782 -355 l 524 -332 q 830 -83 755 -279 q 863 58 854 -19 l 264 814 l 264 163 q 292 85 264 105 q 356 64 311 71 q 410 56 401 58 l 410 0 l 31 0 l 31 56 z "},"ŋ":{"ha":1043,"x_min":103,"x_max":884,"o":"m 357 678 q 578 882 418 801 q 807 671 737 798 q 884 295 884 531 l 884 247 q 784 -187 884 -35 q 431 -398 675 -354 l 418 -332 q 729 -19 670 -271 q 749 160 748 62 l 749 287 l 749 308 q 718 595 749 503 q 571 786 682 699 q 357 428 357 654 l 357 198 q 370 91 357 109 q 403 68 383 73 q 456 58 422 63 l 474 56 l 474 0 l 103 0 l 103 56 q 114 58 107 58 q 137 61 120 58 q 173 68 155 63 q 202 84 192 73 q 219 176 219 102 l 219 660 q 203 735 219 722 q 165 754 188 749 q 103 761 142 758 l 103 819 l 357 819 l 357 678 z "},"Ō":{"ha":1155,"x_min":81,"x_max":1074,"o":"m 81 513 q 94 645 81 579 q 135 771 108 711 q 204 882 163 831 q 300 971 245 933 q 577 1052 417 1052 q 951 882 814 1052 q 1074 513 1074 729 q 951 148 1074 294 q 577 -14 815 -14 q 203 149 338 -14 q 81 513 81 297 m 243 546 q 243 502 243 546 q 249 401 243 457 q 270 295 255 346 q 309 200 284 244 q 370 123 333 156 q 578 55 450 55 q 888 294 817 55 q 915 513 915 387 q 697 960 915 879 q 578 979 646 979 q 270 731 339 979 q 243 546 243 635 m 370 1318 l 785 1337 l 785 1213 l 370 1229 l 370 1318 z "},"ō":{"ha":925,"x_min":82,"x_max":842,"o":"m 82 414 q 93 519 82 467 q 124 618 103 571 q 178 704 146 665 q 252 772 210 743 q 461 833 342 833 q 746 704 642 833 q 842 413 842 586 q 746 117 842 239 q 461 -16 642 -16 q 176 119 281 -16 q 82 414 82 241 m 382 74 q 462 59 416 59 q 543 74 508 59 q 602 114 577 88 q 644 174 627 140 q 671 248 661 208 q 689 387 689 318 q 685 498 689 456 q 671 579 681 541 q 644 650 661 617 q 602 708 627 684 q 463 760 548 760 q 255 575 302 760 q 237 413 237 505 q 382 74 237 136 m 235 1157 l 689 1177 l 689 1053 l 235 1068 l 235 1157 z "},"Ŏ":{"ha":1155,"x_min":81,"x_max":1074,"o":"m 81 513 q 94 645 81 579 q 135 771 108 711 q 204 882 163 831 q 300 971 245 933 q 577 1052 417 1052 q 951 882 814 1052 q 1074 513 1074 729 q 951 148 1074 294 q 577 -14 815 -14 q 203 149 338 -14 q 81 513 81 297 m 243 546 q 243 502 243 546 q 249 401 243 457 q 270 295 255 346 q 309 200 284 244 q 370 123 333 156 q 578 55 450 55 q 888 294 817 55 q 915 513 915 387 q 697 960 915 879 q 578 979 646 979 q 270 731 339 979 q 243 546 243 635 m 661 1126 q 580 1114 626 1114 q 496 1128 534 1114 q 429 1170 458 1143 q 364 1319 366 1230 l 434 1319 q 481 1248 444 1275 q 567 1221 519 1221 q 637 1230 614 1221 q 675 1252 660 1238 q 701 1284 691 1266 l 721 1319 l 791 1319 q 661 1126 781 1168 z "},"ŏ":{"ha":925,"x_min":82,"x_max":842,"o":"m 82 414 q 93 519 82 467 q 124 618 103 571 q 178 704 146 665 q 252 772 210 743 q 461 833 342 833 q 746 704 642 833 q 842 413 842 586 q 746 117 842 239 q 461 -16 642 -16 q 176 119 281 -16 q 82 414 82 241 m 382 74 q 462 59 416 59 q 543 74 508 59 q 602 114 577 88 q 644 174 627 140 q 671 248 661 208 q 689 387 689 318 q 685 498 689 456 q 671 579 681 541 q 644 650 661 617 q 602 708 627 684 q 463 760 548 760 q 255 575 302 760 q 237 413 237 505 q 382 74 237 136 m 553 1023 q 460 1009 514 1009 q 368 1023 406 1009 q 304 1060 330 1038 q 263 1109 278 1082 q 240 1162 248 1137 q 225 1244 228 1202 l 296 1244 q 350 1152 307 1186 q 462 1118 392 1118 q 574 1152 532 1118 q 628 1244 617 1186 l 699 1244 q 553 1023 689 1072 z "},"Ő":{"ha":1155,"x_min":81,"x_max":1074,"o":"m 81 513 q 94 645 81 579 q 135 771 108 711 q 204 882 163 831 q 300 971 245 933 q 577 1052 417 1052 q 951 882 814 1052 q 1074 513 1074 729 q 951 148 1074 294 q 577 -14 815 -14 q 203 149 338 -14 q 81 513 81 297 m 243 546 q 243 502 243 546 q 249 401 243 457 q 270 295 255 346 q 309 200 284 244 q 370 123 333 156 q 578 55 450 55 q 888 294 817 55 q 915 513 915 387 q 697 960 915 879 q 578 979 646 979 q 270 731 339 979 q 243 546 243 635 m 572 1147 l 777 1336 l 849 1245 l 610 1104 l 572 1147 m 305 1147 l 510 1336 l 582 1245 l 342 1104 l 305 1147 z "},"ő":{"ha":925,"x_min":82,"x_max":842,"o":"m 82 414 q 93 519 82 467 q 124 618 103 571 q 178 704 146 665 q 252 772 210 743 q 461 833 342 833 q 746 704 642 833 q 842 413 842 586 q 746 117 842 239 q 461 -16 642 -16 q 176 119 281 -16 q 82 414 82 241 m 382 74 q 462 59 416 59 q 543 74 508 59 q 602 114 577 88 q 644 174 627 140 q 671 248 661 208 q 689 387 689 318 q 685 498 689 456 q 671 579 681 541 q 644 650 661 617 q 602 708 627 684 q 463 760 548 760 q 255 575 302 760 q 237 413 237 505 q 382 74 237 136 m 521 959 l 681 1275 l 800 1207 l 587 922 l 521 959 m 219 959 l 379 1275 l 498 1207 l 286 922 l 219 959 z "},"Œ":{"ha":1613,"x_min":76,"x_max":1538,"o":"m 1359 745 q 1373 858 1373 822 q 1365 912 1373 893 q 1337 943 1356 932 q 1208 962 1303 962 l 928 962 l 928 554 l 1312 554 l 1294 477 l 928 477 l 928 76 l 1137 76 q 1283 86 1242 76 q 1350 110 1324 96 q 1396 147 1375 123 q 1474 288 1436 192 l 1538 288 l 1474 0 l 851 0 q 766 -4 811 0 l 681 -11 q 543 -18 598 -18 q 417 3 488 -18 q 292 61 347 24 q 196 149 237 98 q 129 262 155 200 q 76 514 76 384 q 106 740 76 644 q 197 907 136 836 q 573 1060 330 1060 q 694 1053 623 1060 q 854 1038 828 1038 l 1495 1038 l 1424 745 l 1359 745 m 791 935 q 574 987 704 987 q 243 652 277 987 q 237 534 237 595 q 243 415 237 474 q 263 303 249 356 q 301 205 277 250 q 363 127 326 160 q 575 58 443 58 q 791 113 707 58 l 791 935 z "},"œ":{"ha":1503,"x_min":90,"x_max":1385,"o":"m 1385 101 q 1107 -14 1293 -14 q 841 96 943 -14 q 787 174 809 130 q 575 -3 717 38 q 467 -16 527 -16 q 353 1 406 -16 q 258 48 300 18 q 185 119 216 78 q 132 208 153 159 q 90 413 90 302 q 186 704 90 586 q 469 833 290 833 q 739 716 639 833 q 792 638 770 681 q 1010 819 867 779 q 1118 833 1059 833 q 1228 819 1178 833 q 1312 779 1278 804 q 1381 639 1381 728 q 1270 446 1381 524 q 878 352 1140 354 q 1021 98 894 161 q 1128 75 1066 75 q 1347 140 1271 75 l 1385 101 m 876 425 q 1124 473 1023 427 q 1242 640 1242 528 q 1167 749 1242 718 q 1100 760 1139 760 q 1030 746 1061 760 q 975 708 1000 732 q 932 652 951 684 q 902 583 914 620 q 876 425 877 506 m 390 74 q 470 59 425 59 q 551 74 516 59 q 610 114 585 88 q 652 174 635 140 q 679 248 669 208 q 697 387 697 318 q 693 498 697 456 q 679 579 689 541 q 652 650 669 617 q 610 708 635 684 q 471 760 556 760 q 263 575 310 760 q 245 413 245 505 q 390 74 245 136 z "},"Ŕ":{"ha":1040,"x_min":62,"x_max":1090,"o":"m 726 751 q 505 979 726 979 q 322 892 341 979 q 317 839 317 867 l 317 180 q 321 118 317 140 q 338 85 325 96 q 378 69 352 73 q 448 60 404 64 l 485 56 l 485 -1 l 62 -1 l 62 56 l 85 59 q 133 67 115 63 q 161 84 151 72 q 179 180 179 104 l 179 866 q 164 948 179 932 q 125 970 149 964 q 62 979 102 976 l 62 1038 l 238 1038 q 340 1043 277 1038 q 533 1053 464 1053 q 674 1029 603 1053 q 791 966 745 1006 q 880 759 880 888 q 822 578 880 662 q 628 441 756 483 l 1090 -193 l 1039 -231 l 446 434 l 475 494 l 527 494 q 663 557 608 494 q 726 751 726 631 m 281 1147 l 588 1336 l 665 1188 l 303 1086 l 281 1147 z "},"ŕ":{"ha":810,"x_min":95,"x_max":743,"o":"m 568 573 q 606 684 606 610 q 571 742 606 721 q 482 759 542 759 q 353 675 353 759 l 353 159 q 359 111 353 130 q 385 81 365 92 q 548 56 420 60 l 548 0 l 95 0 l 95 56 l 96 56 q 192 79 176 64 q 212 113 208 94 q 216 165 216 132 l 216 635 q 201 726 216 709 q 165 751 186 744 q 110 762 144 758 l 110 819 l 250 819 q 369 823 334 819 q 425 827 404 826 q 524 833 486 833 q 603 827 562 833 q 675 806 644 821 q 743 705 743 773 q 699 602 743 650 q 605 543 656 557 l 568 573 m 314 959 l 486 1275 l 628 1184 l 380 922 l 314 959 z "},"Ŗ":{"ha":1040,"x_min":62,"x_max":1090,"o":"m 726 751 q 505 979 726 979 q 322 892 341 979 q 317 839 317 867 l 317 180 q 321 118 317 140 q 338 85 325 96 q 378 69 352 73 q 448 60 404 64 l 485 56 l 485 -1 l 62 -1 l 62 56 l 85 59 q 133 67 115 63 q 161 84 151 72 q 179 180 179 104 l 179 866 q 164 948 179 932 q 125 970 149 964 q 62 979 102 976 l 62 1038 l 238 1038 q 340 1043 277 1038 q 533 1053 464 1053 q 674 1029 603 1053 q 791 966 745 1006 q 880 759 880 888 q 822 578 880 662 q 628 441 756 483 l 1090 -193 l 1039 -231 l 446 434 l 475 494 l 527 494 q 663 557 608 494 q 726 751 726 631 m 538 -63 l 640 -166 q 549 -353 640 -278 q 469 -399 517 -380 l 441 -349 q 482 -315 465 -334 q 499 -274 499 -296 q 496 -241 499 -252 q 485 -219 492 -231 q 437 -163 473 -200 l 538 -63 z "},"ŗ":{"ha":810,"x_min":95,"x_max":743,"o":"m 568 573 q 606 684 606 610 q 571 742 606 721 q 482 759 542 759 q 353 675 353 759 l 353 159 q 359 111 353 130 q 385 81 365 92 q 548 56 420 60 l 548 0 l 95 0 l 95 56 l 96 56 q 192 79 176 64 q 212 113 208 94 q 216 165 216 132 l 216 635 q 201 726 216 709 q 165 751 186 744 q 110 762 144 758 l 110 819 l 250 819 q 369 823 334 819 q 425 827 404 826 q 524 833 486 833 q 603 827 562 833 q 675 806 644 821 q 743 705 743 773 q 699 602 743 650 q 605 543 656 557 l 568 573 m 287 -63 l 389 -166 q 298 -353 389 -278 q 218 -399 266 -380 l 190 -349 q 231 -315 214 -334 q 248 -274 248 -296 q 245 -241 248 -252 q 234 -219 241 -231 q 186 -163 222 -200 l 287 -63 z "},"Ř":{"ha":1040,"x_min":62,"x_max":1090,"o":"m 726 751 q 505 979 726 979 q 322 892 341 979 q 317 839 317 867 l 317 180 q 321 118 317 140 q 338 85 325 96 q 378 69 352 73 q 448 60 404 64 l 485 56 l 485 -1 l 62 -1 l 62 56 l 85 59 q 133 67 115 63 q 161 84 151 72 q 179 180 179 104 l 179 866 q 164 948 179 932 q 125 970 149 964 q 62 979 102 976 l 62 1038 l 238 1038 q 340 1043 277 1038 q 533 1053 464 1053 q 674 1029 603 1053 q 791 966 745 1006 q 880 759 880 888 q 822 578 880 662 q 628 441 756 483 l 1090 -193 l 1039 -231 l 446 434 l 475 494 l 527 494 q 663 557 608 494 q 726 751 726 631 m 245 1294 l 289 1337 l 480 1221 q 659 1337 480 1221 l 702 1294 l 543 1103 l 418 1103 l 245 1294 z "},"ř":{"ha":810,"x_min":95,"x_max":743,"o":"m 568 573 q 606 684 606 610 q 571 742 606 721 q 482 759 542 759 q 353 675 353 759 l 353 159 q 359 111 353 130 q 385 81 365 92 q 548 56 420 60 l 548 0 l 95 0 l 95 56 l 96 56 q 192 79 176 64 q 212 113 208 94 q 216 165 216 132 l 216 635 q 201 726 216 709 q 165 751 186 744 q 110 762 144 758 l 110 819 l 250 819 q 369 823 334 819 q 425 827 404 826 q 524 833 486 833 q 603 827 562 833 q 675 806 644 821 q 743 705 743 773 q 699 602 743 650 q 605 543 656 557 l 568 573 m 182 1232 l 240 1261 l 423 1029 l 606 1261 l 664 1232 l 511 925 l 337 925 l 182 1232 z "},"Ś":{"ha":925,"x_min":93,"x_max":861,"o":"m 634 773 q 665 853 665 815 q 650 912 665 890 q 608 949 634 935 q 465 980 553 980 q 334 937 386 980 q 281 825 281 894 q 349 691 281 747 q 433 636 383 663 q 671 510 617 541 q 768 444 726 480 q 861 269 861 366 q 748 49 861 123 q 477 -16 648 -16 q 225 42 342 -16 q 110 144 144 83 q 93 213 93 175 q 110 280 93 251 q 151 331 126 310 q 250 381 196 371 l 286 338 q 257 280 261 303 q 254 228 254 256 q 272 166 254 199 q 321 109 290 134 q 485 54 391 54 q 697 157 648 54 q 713 236 713 191 q 688 316 713 281 q 624 377 663 350 q 536 426 585 404 q 426 481 488 449 q 310 549 365 513 q 218 623 254 585 q 147 793 147 697 q 245 983 147 912 q 484 1052 338 1052 q 711 1008 619 1052 q 807 886 807 962 q 742 767 807 814 q 684 740 719 750 l 634 773 m 300 1147 l 606 1336 l 684 1188 l 321 1086 l 300 1147 z "},"ś":{"ha":807,"x_min":109,"x_max":750,"o":"m 549 606 q 575 679 575 646 q 537 735 575 711 q 446 760 498 760 q 364 751 393 760 q 316 724 336 741 q 277 635 277 691 q 390 511 277 568 q 445 484 422 494 q 663 370 616 407 q 729 299 709 333 q 750 215 750 265 q 722 121 750 165 q 648 46 694 77 q 423 -16 555 -16 q 209 34 300 -16 q 111 170 109 87 q 153 258 113 219 q 241 304 190 292 l 271 269 q 245 184 245 237 q 294 100 245 137 q 432 59 348 59 q 565 97 517 59 q 614 199 614 135 q 489 330 614 273 q 428 357 452 347 q 398 370 404 367 q 365 385 392 372 q 293 422 337 397 q 216 477 250 448 q 145 620 145 541 q 232 777 145 718 q 452 833 315 833 q 626 791 557 833 q 695 686 695 749 q 658 614 695 647 q 588 578 625 587 l 549 606 m 337 959 l 509 1275 l 651 1184 l 404 922 l 337 959 z "},"Ŝ":{"ha":925,"x_min":93,"x_max":861,"o":"m 634 773 q 665 853 665 815 q 650 912 665 890 q 608 949 634 935 q 465 980 553 980 q 334 937 386 980 q 281 825 281 894 q 349 691 281 747 q 433 636 383 663 q 671 510 617 541 q 768 444 726 480 q 861 269 861 366 q 748 49 861 123 q 477 -16 648 -16 q 225 42 342 -16 q 110 144 144 83 q 93 213 93 175 q 110 280 93 251 q 151 331 126 310 q 250 381 196 371 l 286 338 q 257 280 261 303 q 254 228 254 256 q 272 166 254 199 q 321 109 290 134 q 485 54 391 54 q 697 157 648 54 q 713 236 713 191 q 688 316 713 281 q 624 377 663 350 q 536 426 585 404 q 426 481 488 449 q 310 549 365 513 q 218 623 254 585 q 147 793 147 697 q 245 983 147 912 q 484 1052 338 1052 q 711 1008 619 1052 q 807 886 807 962 q 742 767 807 814 q 684 740 719 750 l 634 773 m 264 1146 l 429 1337 l 555 1337 l 719 1146 l 675 1103 l 492 1219 l 308 1103 l 264 1146 z "},"ŝ":{"ha":807,"x_min":109,"x_max":750,"o":"m 549 606 q 575 679 575 646 q 537 735 575 711 q 446 760 498 760 q 364 751 393 760 q 316 724 336 741 q 277 635 277 691 q 390 511 277 568 q 445 484 422 494 q 663 370 616 407 q 729 299 709 333 q 750 215 750 265 q 722 121 750 165 q 648 46 694 77 q 423 -16 555 -16 q 209 34 300 -16 q 111 170 109 87 q 153 258 113 219 q 241 304 190 292 l 271 269 q 245 184 245 237 q 294 100 245 137 q 432 59 348 59 q 565 97 517 59 q 614 199 614 135 q 489 330 614 273 q 428 357 452 347 q 398 370 404 367 q 365 385 392 372 q 293 422 337 397 q 216 477 250 448 q 145 620 145 541 q 232 777 145 718 q 452 833 315 833 q 626 791 557 833 q 695 686 695 749 q 658 614 695 647 q 588 578 625 587 l 549 606 m 201 954 l 356 1261 l 530 1261 l 683 954 l 625 925 l 442 1157 l 259 925 l 201 954 z "},"Ş":{"ha":925,"x_min":93,"x_max":861,"o":"m 516 -238 q 374 -149 516 -149 l 427 -14 q 203 54 298 -2 q 93 212 93 120 q 151 331 93 281 q 250 381 196 371 l 286 338 q 257 280 261 303 q 254 228 254 256 q 272 166 254 199 q 321 109 290 134 q 485 54 391 54 q 697 157 648 54 q 713 236 713 191 q 688 316 713 281 q 624 377 663 350 q 536 426 585 404 q 426 481 488 449 q 310 549 365 513 q 218 623 254 585 q 147 793 147 697 q 245 983 147 912 q 484 1052 338 1052 q 711 1008 619 1052 q 807 886 807 962 q 742 767 807 814 q 684 740 719 750 l 634 773 q 665 853 665 815 q 650 912 665 890 q 608 949 634 935 q 465 980 553 980 q 334 937 386 980 q 281 825 281 894 q 349 691 281 747 q 433 636 383 663 q 671 510 617 541 q 768 444 726 480 q 861 269 861 366 q 758 56 861 130 q 507 -16 666 -9 l 480 -86 q 602 -119 551 -85 q 656 -216 656 -155 q 614 -311 656 -266 q 469 -390 562 -366 q 422 -398 443 -397 l 383 -342 q 480 -300 445 -327 q 516 -238 516 -273 z "},"ş":{"ha":807,"x_min":109,"x_max":750,"o":"m 463 -238 q 321 -149 463 -149 l 374 -14 q 190 45 265 -3 q 111 170 109 96 q 153 258 113 219 q 241 304 190 292 l 271 269 q 245 184 245 237 q 294 100 245 137 q 432 59 348 59 q 565 97 517 59 q 614 199 614 135 q 489 330 614 273 q 428 357 452 347 q 398 370 404 367 q 365 385 392 372 q 293 422 337 397 q 216 477 250 448 q 145 620 145 541 q 232 777 145 718 q 452 833 315 833 q 626 791 557 833 q 695 686 695 749 q 658 614 695 647 q 588 578 625 587 l 549 606 q 575 679 575 646 q 537 735 575 711 q 446 760 498 760 q 364 751 393 760 q 316 724 336 741 q 277 635 277 691 q 390 511 277 568 q 445 484 422 494 q 663 370 616 407 q 729 299 709 333 q 750 217 750 265 q 726 126 750 168 q 660 54 701 84 q 454 -15 578 -6 l 427 -86 q 549 -119 498 -85 q 604 -216 604 -155 q 562 -311 604 -266 q 416 -390 509 -366 q 369 -398 390 -397 l 330 -342 q 428 -300 392 -327 q 463 -238 463 -273 z "},"Š":{"ha":925,"x_min":93,"x_max":861,"o":"m 634 773 q 665 853 665 815 q 650 912 665 890 q 608 949 634 935 q 465 980 553 980 q 334 937 386 980 q 281 825 281 894 q 349 691 281 747 q 433 636 383 663 q 671 510 617 541 q 768 444 726 480 q 861 269 861 366 q 748 49 861 123 q 477 -16 648 -16 q 225 42 342 -16 q 110 144 144 83 q 93 213 93 175 q 110 280 93 251 q 151 331 126 310 q 250 381 196 371 l 286 338 q 257 280 261 303 q 254 228 254 256 q 272 166 254 199 q 321 109 290 134 q 485 54 391 54 q 697 157 648 54 q 713 236 713 191 q 688 316 713 281 q 624 377 663 350 q 536 426 585 404 q 426 481 488 449 q 310 549 365 513 q 218 623 254 585 q 147 793 147 697 q 245 983 147 912 q 484 1052 338 1052 q 711 1008 619 1052 q 807 886 807 962 q 742 767 807 814 q 684 740 719 750 l 634 773 m 264 1294 l 307 1337 l 498 1221 q 677 1337 498 1221 l 720 1294 l 562 1103 l 437 1103 l 264 1294 z "},"š":{"ha":807,"x_min":109,"x_max":750,"o":"m 549 606 q 575 679 575 646 q 537 735 575 711 q 446 760 498 760 q 364 751 393 760 q 316 724 336 741 q 277 635 277 691 q 390 511 277 568 q 445 484 422 494 q 663 370 616 407 q 729 299 709 333 q 750 215 750 265 q 722 121 750 165 q 648 46 694 77 q 423 -16 555 -16 q 209 34 300 -16 q 111 170 109 87 q 153 258 113 219 q 241 304 190 292 l 271 269 q 245 184 245 237 q 294 100 245 137 q 432 59 348 59 q 565 97 517 59 q 614 199 614 135 q 489 330 614 273 q 428 357 452 347 q 398 370 404 367 q 365 385 392 372 q 293 422 337 397 q 216 477 250 448 q 145 620 145 541 q 232 777 145 718 q 452 833 315 833 q 626 791 557 833 q 695 686 695 749 q 658 614 695 647 q 588 578 625 587 l 549 606 m 205 1232 l 263 1261 l 446 1029 l 629 1261 l 687 1232 l 534 925 l 360 925 l 205 1232 z "},"Ţ":{"ha":1040,"x_min":34,"x_max":989,"o":"m 852 746 q 867 858 867 823 q 858 914 867 894 q 830 945 850 934 q 701 966 796 966 l 587 966 l 587 182 q 591 121 587 143 q 614 87 596 99 q 669 71 633 76 q 768 59 705 65 l 768 0 l 273 0 l 273 59 q 415 85 393 71 q 443 121 437 99 q 449 182 449 143 l 449 966 l 319 966 q 142 846 197 966 q 109 768 125 810 l 100 747 l 34 747 l 110 1038 l 989 1038 l 918 746 l 852 746 m 518 -63 l 620 -166 q 530 -353 620 -278 q 450 -399 497 -380 l 421 -349 q 462 -315 445 -334 q 479 -274 479 -296 q 476 -241 479 -252 q 465 -219 473 -231 q 417 -163 453 -200 l 518 -63 z "},"ţ":{"ha":581,"x_min":82,"x_max":580,"o":"m 108 56 q 156 68 138 63 q 183 85 174 73 q 198 187 198 105 l 198 736 l 82 736 l 82 799 q 196 828 181 813 l 195 828 q 222 919 210 848 q 236 1023 233 989 l 334 1063 l 334 819 l 580 819 l 580 736 l 334 736 l 334 189 q 343 109 334 126 q 366 83 353 92 q 403 71 380 75 q 539 63 440 64 l 539 0 l 108 0 l 108 56 m 330 -63 l 431 -166 q 341 -353 431 -278 q 261 -399 309 -380 l 233 -349 q 274 -315 256 -334 q 291 -274 291 -296 q 288 -241 291 -252 q 277 -219 284 -231 q 229 -163 264 -200 l 330 -63 z "},"Ť":{"ha":1040,"x_min":34,"x_max":989,"o":"m 852 746 q 867 858 867 823 q 858 914 867 894 q 830 945 850 934 q 701 966 796 966 l 587 966 l 587 182 q 591 121 587 143 q 614 87 596 99 q 669 71 633 76 q 768 59 705 65 l 768 0 l 273 0 l 273 59 q 415 85 393 71 q 443 121 437 99 q 449 182 449 143 l 449 966 l 319 966 q 142 846 197 966 q 109 768 125 810 l 100 747 l 34 747 l 110 1038 l 989 1038 l 918 746 l 852 746 m 284 1294 l 328 1337 l 519 1221 q 697 1337 519 1221 l 741 1294 l 582 1103 l 457 1103 l 284 1294 z "},"ť":{"ha":925,"x_min":140,"x_max":922,"o":"m 165 56 q 214 68 196 63 q 241 85 232 73 q 256 187 256 105 l 256 736 l 140 736 l 140 799 q 254 828 239 813 l 253 828 q 279 919 268 848 q 294 1023 291 989 l 392 1063 l 392 819 l 637 819 l 637 736 l 392 736 l 392 189 q 401 109 392 126 q 424 83 410 92 q 460 71 437 75 q 597 63 498 64 l 597 0 l 165 0 l 165 56 m 795 1160 l 916 1038 q 878 846 922 962 q 739 614 827 714 l 686 650 q 755 822 738 723 q 760 875 760 850 q 745 950 760 922 q 673 1038 722 989 l 795 1160 z "},"Ŧ":{"ha":1040,"x_min":45,"x_max":979,"o":"m 843 746 q 857 858 857 823 q 849 914 857 894 q 821 945 840 934 q 692 966 787 966 l 587 966 l 587 565 l 868 565 l 868 480 l 587 480 l 587 182 q 591 121 587 143 q 614 87 596 99 q 669 71 633 76 q 768 59 705 65 l 768 0 l 273 0 l 273 59 q 415 85 393 71 q 443 121 437 99 q 449 182 449 143 l 449 480 l 157 480 l 157 565 l 449 565 l 449 966 l 330 966 q 153 846 208 966 q 119 768 136 810 l 111 747 l 45 747 l 121 1038 l 979 1038 l 908 746 l 843 746 z "},"ŧ":{"ha":581,"x_min":82,"x_max":580,"o":"m 108 56 q 156 68 138 63 q 183 85 174 73 q 198 187 198 105 l 198 480 l 82 480 l 82 565 l 198 565 l 198 736 l 82 736 l 82 799 q 196 828 181 813 l 195 828 q 222 919 210 848 q 236 1023 233 989 l 334 1063 l 334 819 l 580 819 l 580 736 l 334 736 l 334 565 l 578 565 l 578 480 l 334 480 l 334 189 q 343 109 334 126 q 366 83 353 92 q 403 71 380 75 q 539 63 440 64 l 539 0 l 108 0 l 108 56 z "},"Ũ":{"ha":1153,"x_min":37,"x_max":1115,"o":"m 584 -32 q 323 159 410 66 q 178 423 222 266 q 133 850 133 584 q 122 945 133 928 q 37 979 104 972 l 37 1038 l 385 1038 l 385 979 q 296 949 317 972 q 276 838 276 928 q 279 660 276 749 q 294 501 283 572 q 326 375 305 431 q 380 269 346 319 q 584 65 440 180 q 783 269 724 179 q 863 500 843 361 q 877 864 877 604 q 861 945 877 928 q 768 979 836 972 l 768 1038 l 1115 1038 l 1115 979 q 1034 948 1050 970 q 1020 822 1020 928 q 1009 611 1020 716 q 977 423 999 506 q 919 276 954 340 q 836 159 884 212 q 584 -32 753 67 m 473 1223 q 409 1164 420 1223 l 346 1164 q 400 1291 350 1242 q 509 1337 448 1337 q 616 1299 549 1337 q 696 1267 669 1267 q 760 1327 749 1267 l 823 1327 q 769 1200 819 1251 q 661 1154 722 1154 q 557 1192 622 1154 l 514 1213 q 473 1223 493 1223 z "},"ũ":{"ha":923,"x_min":39,"x_max":882,"o":"m 461 -35 q 271 109 332 42 q 142 449 164 226 q 134 598 134 529 q 133 691 134 668 q 122 729 132 715 q 39 761 106 755 l 39 819 l 373 819 l 373 761 q 286 731 306 754 q 271 636 271 711 q 273 496 271 561 q 282 379 275 431 q 302 287 289 328 q 336 209 315 245 q 461 61 376 141 q 578 194 549 143 q 621 287 608 245 q 640 379 633 328 q 652 572 652 467 q 649 698 652 677 q 636 731 646 718 q 550 761 616 754 l 550 819 l 882 819 l 882 761 q 804 734 816 751 q 790 694 793 717 q 788 600 788 671 q 780 449 788 529 q 756 307 772 369 q 713 196 739 244 q 651 109 688 149 q 461 -35 590 42 m 195 975 q 191 1020 191 997 q 205 1073 191 1043 q 242 1124 219 1102 q 358 1170 291 1170 q 479 1118 418 1170 q 578 1067 541 1067 q 625 1082 610 1067 q 650 1147 654 1112 l 726 1147 q 730 1102 730 1124 q 716 1049 730 1079 q 678 998 702 1020 q 562 952 629 952 q 490 971 517 952 q 447 1003 462 990 q 417 1028 432 1017 q 359 1055 383 1055 q 320 1049 334 1055 q 294 1034 305 1044 q 271 975 267 1009 l 195 975 z "},"Ū":{"ha":1153,"x_min":37,"x_max":1115,"o":"m 584 -32 q 323 159 410 66 q 178 423 222 266 q 133 850 133 584 q 122 945 133 928 q 37 979 104 972 l 37 1038 l 385 1038 l 385 979 q 296 949 317 972 q 276 838 276 928 q 279 660 276 749 q 294 501 283 572 q 326 375 305 431 q 380 269 346 319 q 584 65 440 180 q 783 269 724 179 q 863 500 843 361 q 877 864 877 604 q 861 945 877 928 q 768 979 836 972 l 768 1038 l 1115 1038 l 1115 979 q 1034 948 1050 970 q 1020 822 1020 928 q 1009 611 1020 716 q 977 423 999 506 q 919 276 954 340 q 836 159 884 212 q 584 -32 753 67 m 378 1318 l 792 1337 l 792 1213 l 378 1229 l 378 1318 z "},"ū":{"ha":923,"x_min":39,"x_max":882,"o":"m 461 -35 q 271 109 332 42 q 142 449 164 226 q 134 598 134 529 q 133 691 134 668 q 122 729 132 715 q 39 761 106 755 l 39 819 l 373 819 l 373 761 q 286 731 306 754 q 271 636 271 711 q 273 496 271 561 q 282 379 275 431 q 302 287 289 328 q 336 209 315 245 q 461 61 376 141 q 578 194 549 143 q 621 287 608 245 q 640 379 633 328 q 652 572 652 467 q 649 698 652 677 q 636 731 646 718 q 550 761 616 754 l 550 819 l 882 819 l 882 761 q 804 734 816 751 q 790 694 793 717 q 788 600 788 671 q 780 449 788 529 q 756 307 772 369 q 713 196 739 244 q 651 109 688 149 q 461 -35 590 42 m 234 1157 l 688 1177 l 688 1053 l 234 1068 l 234 1157 z "},"Ŭ":{"ha":1153,"x_min":37,"x_max":1115,"o":"m 584 -32 q 323 159 410 66 q 178 423 222 266 q 133 850 133 584 q 122 945 133 928 q 37 979 104 972 l 37 1038 l 385 1038 l 385 979 q 296 949 317 972 q 276 838 276 928 q 279 660 276 749 q 294 501 283 572 q 326 375 305 431 q 380 269 346 319 q 584 65 440 180 q 783 269 724 179 q 863 500 843 361 q 877 864 877 604 q 861 945 877 928 q 768 979 836 972 l 768 1038 l 1115 1038 l 1115 979 q 1034 948 1050 970 q 1020 822 1020 928 q 1009 611 1020 716 q 977 423 999 506 q 919 276 954 340 q 836 159 884 212 q 584 -32 753 67 m 669 1126 q 588 1114 633 1114 q 504 1128 542 1114 q 436 1170 465 1143 q 372 1319 373 1230 l 441 1319 q 489 1248 451 1275 q 574 1221 527 1221 q 644 1230 621 1221 q 683 1252 667 1238 q 709 1284 699 1266 l 728 1319 l 798 1319 q 669 1126 788 1168 z "},"ŭ":{"ha":923,"x_min":39,"x_max":882,"o":"m 461 -35 q 271 109 332 42 q 142 449 164 226 q 134 598 134 529 q 133 691 134 668 q 122 729 132 715 q 39 761 106 755 l 39 819 l 373 819 l 373 761 q 286 731 306 754 q 271 636 271 711 q 273 496 271 561 q 282 379 275 431 q 302 287 289 328 q 336 209 315 245 q 461 61 376 141 q 578 194 549 143 q 621 287 608 245 q 640 379 633 328 q 652 572 652 467 q 649 698 652 677 q 636 731 646 718 q 550 761 616 754 l 550 819 l 882 819 l 882 761 q 804 734 816 751 q 790 694 793 717 q 788 600 788 671 q 780 449 788 529 q 756 307 772 369 q 713 196 739 244 q 651 109 688 149 q 461 -35 590 42 m 552 1023 q 458 1009 513 1009 q 366 1023 404 1009 q 302 1060 328 1038 q 262 1109 277 1082 q 239 1162 247 1137 q 224 1244 227 1202 l 295 1244 q 348 1152 306 1186 q 460 1118 391 1118 q 573 1152 530 1118 q 627 1244 616 1186 l 698 1244 q 552 1023 688 1072 z "},"Ů":{"ha":1153,"x_min":37,"x_max":1115,"o":"m 584 -32 q 323 159 410 66 q 178 423 222 266 q 133 850 133 584 q 122 945 133 928 q 37 979 104 972 l 37 1038 l 385 1038 l 385 979 q 296 949 317 972 q 276 838 276 928 q 279 660 276 749 q 294 501 283 572 q 326 375 305 431 q 380 269 346 319 q 584 65 440 180 q 783 269 724 179 q 863 500 843 361 q 877 864 877 604 q 861 945 877 928 q 768 979 836 972 l 768 1038 l 1115 1038 l 1115 979 q 1034 948 1050 970 q 1020 822 1020 928 q 1009 611 1020 716 q 977 423 999 506 q 919 276 954 340 q 836 159 884 212 q 584 -32 753 67 m 585 1004 q 454 1050 508 1004 q 399 1169 399 1097 q 454 1289 399 1241 q 585 1337 508 1337 q 716 1289 662 1337 q 770 1169 770 1241 q 716 1050 770 1097 q 585 1004 662 1004 m 519 1105 q 525 1100 519 1105 q 549 1089 532 1095 q 585 1083 566 1083 q 621 1089 604 1083 q 651 1105 638 1095 q 678 1158 678 1128 q 671 1202 678 1187 q 651 1229 664 1218 q 595 1253 624 1253 q 549 1246 566 1253 q 519 1229 532 1240 q 492 1176 492 1204 q 499 1132 492 1148 q 519 1105 507 1116 z "},"ů":{"ha":923,"x_min":39,"x_max":882,"o":"m 461 -35 q 271 109 332 42 q 142 449 164 226 q 134 598 134 529 q 133 691 134 668 q 122 729 132 715 q 39 761 106 755 l 39 819 l 373 819 l 373 761 q 286 731 306 754 q 271 636 271 711 q 273 496 271 561 q 282 379 275 431 q 302 287 289 328 q 336 209 315 245 q 461 61 376 141 q 578 194 549 143 q 621 287 608 245 q 640 379 633 328 q 652 572 652 467 q 649 698 652 677 q 636 731 646 718 q 550 761 616 754 l 550 819 l 882 819 l 882 761 q 804 734 816 751 q 790 694 793 717 q 788 600 788 671 q 780 449 788 529 q 756 307 772 369 q 713 196 739 244 q 651 109 688 149 q 461 -35 590 42 m 460 922 q 325 966 378 922 q 265 1097 265 1015 q 325 1226 265 1179 q 460 1270 380 1270 q 597 1226 541 1270 q 656 1097 656 1180 q 597 966 656 1015 q 460 922 542 922 m 460 989 q 530 1009 507 989 q 572 1094 572 1045 q 538 1172 572 1142 q 460 1198 507 1198 q 358 1139 386 1198 q 349 1094 349 1120 q 358 1048 349 1067 q 382 1016 368 1029 q 460 989 413 989 z "},"Ű":{"ha":1153,"x_min":37,"x_max":1115,"o":"m 584 -32 q 323 159 410 66 q 178 423 222 266 q 133 850 133 584 q 122 945 133 928 q 37 979 104 972 l 37 1038 l 385 1038 l 385 979 q 296 949 317 972 q 276 838 276 928 q 279 660 276 749 q 294 501 283 572 q 326 375 305 431 q 380 269 346 319 q 584 65 440 180 q 783 269 724 179 q 863 500 843 361 q 877 864 877 604 q 861 945 877 928 q 768 979 836 972 l 768 1038 l 1115 1038 l 1115 979 q 1034 948 1050 970 q 1020 822 1020 928 q 1009 611 1020 716 q 977 423 999 506 q 919 276 954 340 q 836 159 884 212 q 584 -32 753 67 m 580 1147 l 785 1336 l 857 1245 l 617 1104 l 580 1147 m 313 1147 l 517 1336 l 589 1245 l 350 1104 l 313 1147 z "},"ű":{"ha":923,"x_min":39,"x_max":882,"o":"m 461 -35 q 271 109 332 42 q 142 449 164 226 q 134 598 134 529 q 133 691 134 668 q 122 729 132 715 q 39 761 106 755 l 39 819 l 373 819 l 373 761 q 286 731 306 754 q 271 636 271 711 q 273 496 271 561 q 282 379 275 431 q 302 287 289 328 q 336 209 315 245 q 461 61 376 141 q 578 194 549 143 q 621 287 608 245 q 640 379 633 328 q 652 572 652 467 q 649 698 652 677 q 636 731 646 718 q 550 761 616 754 l 550 819 l 882 819 l 882 761 q 804 734 816 751 q 790 694 793 717 q 788 600 788 671 q 780 449 788 529 q 756 307 772 369 q 713 196 739 244 q 651 109 688 149 q 461 -35 590 42 m 519 959 l 680 1275 l 798 1207 l 586 922 l 519 959 m 218 959 l 378 1275 l 496 1207 l 284 922 l 218 959 z "},"Ų":{"ha":1153,"x_min":35,"x_max":1112,"o":"m 734 -273 l 758 -326 q 608 -380 690 -366 q 551 -385 583 -385 q 488 -374 520 -385 q 434 -342 456 -363 q 388 -232 388 -300 q 535 -5 388 -111 q 301 179 379 88 q 171 439 210 287 q 130 850 130 596 q 119 945 130 928 q 35 979 102 972 l 35 1038 l 382 1038 l 382 979 q 293 949 314 972 q 273 838 273 928 q 277 660 273 749 q 291 501 280 572 q 323 375 302 431 q 377 269 343 319 q 581 65 437 180 q 780 269 721 179 q 860 500 840 361 q 874 864 874 604 q 859 945 874 928 q 766 979 833 972 l 766 1038 l 1112 1038 l 1112 979 q 1031 948 1047 970 q 1017 826 1017 928 q 1008 626 1017 725 q 980 447 999 526 q 930 304 960 367 q 859 189 901 241 q 644 6 785 98 q 532 -152 553 -52 q 526 -201 526 -180 q 532 -241 526 -223 q 549 -273 538 -259 q 625 -301 574 -301 q 734 -273 676 -301 z "},"ų":{"ha":923,"x_min":39,"x_max":882,"o":"m 618 -273 l 641 -326 q 492 -380 573 -366 q 435 -385 466 -385 q 372 -374 404 -385 q 317 -342 340 -363 q 271 -232 271 -300 q 416 -7 271 -114 q 252 130 308 62 q 141 460 160 244 q 134 602 134 536 q 133 691 134 668 q 122 729 132 715 q 39 761 106 755 l 39 819 l 373 819 l 373 761 q 286 731 306 754 q 271 636 271 711 q 273 496 271 561 q 282 379 275 431 q 302 287 289 328 q 336 209 315 245 q 461 61 376 141 q 578 194 549 143 q 621 287 608 245 q 640 379 633 328 q 652 572 652 467 q 649 698 652 677 q 636 731 646 718 q 550 761 616 754 l 550 819 l 882 819 l 882 761 q 804 734 816 751 q 790 694 793 717 q 788 606 788 671 q 782 467 788 541 q 763 334 776 393 q 729 229 749 275 q 681 144 709 182 q 534 11 630 76 q 416 -151 442 -51 q 410 -201 410 -179 q 416 -241 410 -223 q 433 -273 422 -259 q 508 -301 457 -301 q 618 -273 559 -301 z "},"Ŵ":{"ha":1508,"x_min":56,"x_max":1451,"o":"m 481 42 q 620 250 578 156 q 680 639 676 376 q 682 805 682 726 q 679 908 682 883 q 666 948 676 934 q 576 979 648 972 l 576 1038 l 931 1038 l 931 979 q 873 968 895 974 q 841 947 852 962 q 825 822 825 925 q 826 628 825 720 q 835 467 828 537 q 854 341 842 396 q 890 239 867 287 q 1026 42 929 155 q 1156 253 1118 159 q 1209 653 1207 384 q 1210 820 1210 744 q 1208 918 1210 897 q 1196 951 1206 939 q 1104 979 1178 972 l 1104 1038 l 1451 1038 l 1451 979 q 1364 950 1380 973 q 1352 822 1352 930 q 1345 606 1352 713 q 1322 415 1338 500 q 1282 263 1307 330 q 1221 141 1257 196 q 1026 -54 1154 39 q 754 334 821 125 q 481 -54 677 108 q 286 141 351 42 q 161 606 181 300 q 155 800 155 713 q 153 911 155 887 q 141 948 151 935 q 56 979 125 969 l 56 1038 l 404 1038 l 404 979 q 311 951 330 972 q 298 918 300 939 q 296 820 296 897 q 297 653 296 744 q 303 490 298 562 q 319 361 308 418 q 351 253 330 304 q 481 42 387 161 m 526 1146 l 690 1337 l 817 1337 l 981 1146 l 937 1103 l 753 1219 l 570 1103 l 526 1146 z "},"ŵ":{"ha":1390,"x_min":43,"x_max":1347,"o":"m 452 41 q 564 176 537 125 q 602 269 591 228 q 618 361 613 311 q 627 551 627 436 q 625 692 627 666 q 611 733 622 718 q 579 753 601 747 q 522 762 558 759 l 522 819 l 869 819 l 869 762 q 811 752 833 758 q 779 734 790 747 q 762 623 762 713 q 764 466 762 533 q 773 348 766 399 q 792 256 780 296 q 823 180 804 216 q 939 41 858 119 q 1057 194 1021 123 q 1101 347 1093 268 q 1114 568 1114 457 q 1112 700 1114 678 q 1099 734 1109 721 q 1007 762 1081 755 l 1007 819 l 1347 819 l 1347 762 q 1264 736 1280 753 q 1248 621 1248 716 q 1241 445 1248 526 q 1220 300 1235 364 q 1182 185 1205 236 q 1124 94 1158 135 q 939 -55 1062 19 q 804 53 849 4 q 696 217 729 136 q 614 83 658 130 q 452 -55 541 2 q 267 94 328 19 q 149 445 168 213 q 142 598 142 526 q 140 693 142 669 q 128 731 138 718 q 43 762 113 753 l 43 819 l 383 819 l 383 762 q 290 731 309 756 q 276 636 276 712 q 278 493 276 559 q 285 372 279 426 q 302 276 291 319 q 334 194 314 233 q 452 41 370 122 m 454 954 l 609 1261 l 783 1261 l 936 954 l 878 925 l 695 1157 l 512 925 l 454 954 z "},"Ŷ":{"ha":1038,"x_min":52,"x_max":985,"o":"m 890 851 q 587 347 890 484 l 587 180 q 591 118 587 140 q 609 85 595 96 q 651 68 623 73 q 727 56 679 62 l 727 0 l 311 0 l 311 56 q 424 82 406 67 q 447 118 442 96 q 451 180 451 140 l 451 347 q 147 851 147 481 q 146 909 147 886 q 136 947 144 932 q 52 979 119 972 l 52 1038 l 399 1038 l 399 979 q 306 949 329 972 q 283 870 283 926 q 286 767 283 813 q 295 680 288 722 q 318 602 303 639 q 359 530 334 564 q 519 406 414 460 q 720 602 673 486 q 751 743 748 672 q 754 854 754 813 q 749 916 754 895 q 731 949 744 936 q 639 979 708 972 l 639 1038 l 985 1038 l 985 979 q 905 948 921 970 q 890 851 890 928 m 292 1146 l 456 1337 l 582 1337 l 746 1146 l 703 1103 l 519 1219 l 335 1103 l 292 1146 z "},"ŷ":{"ha":923,"x_min":34,"x_max":882,"o":"m 647 124 q 434 -62 570 5 q 254 75 317 0 q 133 431 154 195 q 126 587 126 513 q 123 688 126 661 q 110 731 119 716 q 82 752 100 747 q 34 761 64 758 l 34 819 l 376 819 l 376 761 l 359 759 q 310 750 328 755 q 283 734 292 746 q 268 628 268 713 l 268 549 q 272 370 268 446 q 294 235 277 294 q 440 33 328 122 q 648 392 648 161 l 648 621 q 636 729 648 713 q 605 750 623 745 q 557 759 587 755 l 541 761 l 541 819 l 882 819 l 882 762 l 880 761 q 807 736 821 755 q 786 616 786 705 l 786 313 q 700 -155 786 9 q 330 -398 595 -356 l 315 -327 q 555 -179 478 -287 q 647 124 631 -75 m 220 954 l 375 1261 l 549 1261 l 702 954 l 644 925 l 461 1157 l 278 925 l 220 954 z "},"Ÿ":{"ha":1038,"x_min":52,"x_max":985,"o":"m 890 851 q 587 347 890 484 l 587 180 q 591 118 587 140 q 609 85 595 96 q 651 68 623 73 q 727 56 679 62 l 727 0 l 311 0 l 311 56 q 424 82 406 67 q 447 118 442 96 q 451 180 451 140 l 451 347 q 147 851 147 481 q 146 909 147 886 q 136 947 144 932 q 52 979 119 972 l 52 1038 l 399 1038 l 399 979 q 306 949 329 972 q 283 870 283 926 q 286 767 283 813 q 295 680 288 722 q 318 602 303 639 q 359 530 334 564 q 519 406 414 460 q 720 602 673 486 q 751 743 748 672 q 754 854 754 813 q 749 916 754 895 q 731 949 744 936 q 639 979 708 972 l 639 1038 l 985 1038 l 985 979 q 905 948 921 970 q 890 851 890 928 m 555 1216 l 680 1337 l 801 1216 l 680 1093 l 555 1216 m 237 1216 l 361 1337 l 482 1216 l 361 1093 l 237 1216 z "},"Ź":{"ha":925,"x_min":41,"x_max":898,"o":"m 691 956 l 308 956 q 184 913 223 956 q 152 860 165 891 q 124 787 139 829 l 109 747 l 41 747 l 132 1093 l 195 1093 q 204 1051 193 1064 q 237 1038 216 1038 l 873 1038 l 888 998 l 264 83 l 623 83 q 776 133 735 83 q 809 200 798 159 q 832 299 821 241 l 898 299 l 855 -53 l 789 -53 q 760 -3 789 -16 q 743 0 751 0 l 74 0 l 58 41 l 691 956 m 302 1147 l 608 1336 l 686 1188 l 323 1086 l 302 1147 z "},"ź":{"ha":809,"x_min":75,"x_max":785,"o":"m 682 -35 q 633 0 677 0 l 90 0 l 75 43 l 579 736 l 333 736 q 213 694 252 736 q 180 646 194 675 l 153 583 l 85 583 l 156 854 l 220 854 q 276 819 227 819 l 754 819 l 769 777 l 271 83 l 524 83 q 662 119 622 83 q 720 233 692 146 l 785 233 l 749 -35 l 682 -35 m 336 959 l 508 1275 l 650 1184 l 403 922 l 336 959 z "},"Ż":{"ha":925,"x_min":41,"x_max":898,"o":"m 691 956 l 308 956 q 184 913 223 956 q 152 860 165 891 q 124 787 139 829 l 109 747 l 41 747 l 132 1093 l 195 1093 q 204 1051 193 1064 q 237 1038 216 1038 l 873 1038 l 888 998 l 264 83 l 623 83 q 776 133 735 83 q 809 200 798 159 q 832 299 821 241 l 898 299 l 855 -53 l 789 -53 q 760 -3 789 -16 q 743 0 751 0 l 74 0 l 58 41 l 691 956 m 372 1216 l 495 1337 l 616 1216 l 495 1094 l 372 1216 z "},"ż":{"ha":809,"x_min":75,"x_max":785,"o":"m 682 -35 q 633 0 677 0 l 90 0 l 75 43 l 579 736 l 333 736 q 213 694 252 736 q 180 646 194 675 l 153 583 l 85 583 l 156 854 l 220 854 q 276 819 227 819 l 754 819 l 769 777 l 271 83 l 524 83 q 662 119 622 83 q 720 233 692 146 l 785 233 l 749 -35 l 682 -35 m 319 1120 l 443 1241 l 564 1120 l 443 998 l 319 1120 z "},"Ž":{"ha":925,"x_min":41,"x_max":898,"o":"m 691 956 l 308 956 q 184 913 223 956 q 152 860 165 891 q 124 787 139 829 l 109 747 l 41 747 l 132 1093 l 195 1093 q 204 1051 193 1064 q 237 1038 216 1038 l 873 1038 l 888 998 l 264 83 l 623 83 q 776 133 735 83 q 809 200 798 159 q 832 299 821 241 l 898 299 l 855 -53 l 789 -53 q 760 -3 789 -16 q 743 0 751 0 l 74 0 l 58 41 l 691 956 m 266 1294 l 309 1337 l 500 1221 q 679 1337 500 1221 l 722 1294 l 564 1103 l 439 1103 l 266 1294 z "},"ž":{"ha":809,"x_min":75,"x_max":785,"o":"m 682 -35 q 633 0 677 0 l 90 0 l 75 43 l 579 736 l 333 736 q 213 694 252 736 q 180 646 194 675 l 153 583 l 85 583 l 156 854 l 220 854 q 276 819 227 819 l 754 819 l 769 777 l 271 83 l 524 83 q 662 119 622 83 q 720 233 692 146 l 785 233 l 749 -35 l 682 -35 m 205 1232 l 262 1261 l 446 1029 l 629 1261 l 686 1232 l 533 925 l 359 925 l 205 1232 z "},"ƒ":{"ha":579,"x_min":78,"x_max":638,"o":"m 201 736 l 87 736 l 96 800 q 186 822 166 809 q 212 847 205 834 q 220 878 218 859 l 225 916 q 345 1165 247 1091 q 600 1231 431 1231 l 638 1231 l 628 1158 l 591 1147 q 431 1089 478 1128 q 364 947 376 1043 l 347 819 l 570 819 l 560 736 l 338 736 l 215 -231 l 78 -231 l 201 736 z "},"Ǽ":{"ha":1505,"x_min":66,"x_max":1501,"o":"m 925 528 q 941 212 941 382 l 941 76 l 1130 76 q 1263 86 1225 76 q 1323 110 1301 96 q 1366 147 1346 123 q 1437 288 1403 193 l 1501 288 l 1452 0 l 681 0 l 681 56 q 788 85 770 66 q 803 132 802 101 q 805 193 805 163 l 805 330 l 312 330 l 312 193 q 317 112 312 130 q 329 86 321 94 q 351 72 337 77 q 437 56 376 63 l 437 0 l 66 0 l 66 56 l 113 66 q 162 87 152 74 q 176 116 172 100 q 181 238 181 141 q 190 435 181 335 q 219 618 199 536 q 270 767 239 701 q 344 888 300 833 q 571 1078 426 993 l 572 1078 q 630 1038 614 1049 l 1473 1038 l 1402 746 l 1337 746 q 1351 858 1351 823 q 1342 912 1351 893 q 1314 943 1334 932 q 1185 962 1281 962 l 718 962 q 886 715 836 871 q 915 606 902 665 l 1290 606 l 1272 528 l 925 528 m 804 406 q 758 733 802 614 q 572 983 707 869 q 374 735 430 865 q 313 406 321 612 l 804 406 m 741 1147 l 1047 1336 l 1124 1188 l 762 1086 l 741 1147 z "},"ǽ":{"ha":1388,"x_min":96,"x_max":1301,"o":"m 1301 96 q 1019 -14 1213 -14 q 726 125 825 -14 q 575 18 680 56 q 397 -14 488 -14 q 251 6 305 -14 q 162 57 197 25 q 96 212 96 118 q 216 396 96 313 q 635 502 361 496 l 635 621 q 588 728 635 688 q 436 767 541 767 q 290 694 329 767 q 278 645 278 672 q 304 578 278 617 l 258 551 q 142 618 179 564 q 130 665 130 636 q 153 726 130 694 q 220 781 177 758 q 456 833 313 833 q 741 713 669 833 q 866 801 790 770 q 1018 833 943 833 q 1141 820 1093 833 q 1223 782 1189 806 q 1297 646 1297 730 q 1185 449 1297 530 q 789 352 1054 354 q 849 171 789 259 q 1050 61 922 61 q 1263 134 1177 61 l 1301 96 m 789 425 q 1118 550 1029 429 q 1149 654 1149 593 q 1076 755 1149 726 q 1004 766 1050 766 q 915 738 957 766 q 844 662 872 709 q 789 425 789 568 m 283 313 q 250 224 250 273 q 263 146 250 176 q 301 97 277 117 q 436 54 353 54 q 576 107 519 54 q 635 244 635 161 l 635 431 q 283 313 366 416 m 645 959 l 817 1275 l 959 1184 l 711 922 l 645 959 z "},"Ș":{"ha":925,"x_min":93,"x_max":861,"o":"m 634 773 q 665 853 665 815 q 650 912 665 890 q 608 949 634 935 q 465 980 553 980 q 334 937 386 980 q 281 825 281 894 q 349 691 281 747 q 433 636 383 663 q 671 510 617 541 q 768 444 726 480 q 861 269 861 366 q 748 49 861 123 q 477 -16 648 -16 q 225 42 342 -16 q 110 144 144 83 q 93 213 93 175 q 110 280 93 251 q 151 331 126 310 q 250 381 196 371 l 286 338 q 257 280 261 303 q 254 228 254 256 q 272 166 254 199 q 321 109 290 134 q 485 54 391 54 q 697 157 648 54 q 713 236 713 191 q 688 316 713 281 q 624 377 663 350 q 536 426 585 404 q 426 481 488 449 q 310 549 365 513 q 218 623 254 585 q 147 793 147 697 q 245 983 147 912 q 484 1052 338 1052 q 711 1008 619 1052 q 807 886 807 962 q 742 767 807 814 q 684 740 719 750 l 634 773 m 473 -63 l 575 -166 q 485 -353 575 -278 q 405 -399 452 -380 l 376 -349 q 417 -315 400 -334 q 435 -274 435 -296 q 431 -241 435 -252 q 420 -219 428 -231 q 372 -163 408 -200 l 473 -63 z "},"ș":{"ha":807,"x_min":109,"x_max":750,"o":"m 549 606 q 575 679 575 646 q 537 735 575 711 q 446 760 498 760 q 364 751 393 760 q 316 724 336 741 q 277 635 277 691 q 390 511 277 568 q 445 484 422 494 q 663 370 616 407 q 729 299 709 333 q 750 215 750 265 q 722 121 750 165 q 648 46 694 77 q 423 -16 555 -16 q 209 34 300 -16 q 111 170 109 87 q 153 258 113 219 q 241 304 190 292 l 271 269 q 245 184 245 237 q 294 100 245 137 q 432 59 348 59 q 565 97 517 59 q 614 199 614 135 q 489 330 614 273 q 428 357 452 347 q 398 370 404 367 q 365 385 392 372 q 293 422 337 397 q 216 477 250 448 q 145 620 145 541 q 232 777 145 718 q 452 833 315 833 q 626 791 557 833 q 695 686 695 749 q 658 614 695 647 q 588 578 625 587 l 549 606 m 420 -63 l 522 -166 q 432 -353 522 -278 q 352 -399 399 -380 l 323 -349 q 365 -315 347 -334 q 382 -274 382 -296 q 378 -241 382 -252 q 368 -219 375 -231 q 319 -163 355 -200 l 420 -63 z "},"ȷ":{"ha":461,"x_min":-37,"x_max":437,"o":"m 183 655 q 161 739 183 721 q 66 761 143 753 l 66 819 l 437 819 l 437 761 q 376 753 399 757 q 340 737 353 749 q 320 640 320 718 l 320 210 q 301 -49 320 24 q 259 -162 282 -122 q 201 -239 236 -203 q 0 -383 146 -293 l -37 -337 l -7 -309 q 28 -274 6 -295 q 76 -227 51 -253 q 119 -175 100 -201 q 149 -120 137 -149 q 170 -52 161 -90 q 183 157 183 18 l 183 655 z "},"ˆ":{"ha":806,"x_min":168,"x_max":650,"o":"m 168 954 l 323 1261 l 496 1261 l 650 954 l 592 925 l 409 1157 l 226 925 l 168 954 z "},"ˇ":{"ha":819,"x_min":172,"x_max":654,"o":"m 172 1232 l 230 1261 l 413 1029 l 596 1261 l 654 1232 l 500 925 l 327 925 l 172 1232 z "},"˘":{"ha":806,"x_min":165,"x_max":640,"o":"m 494 1023 q 400 1009 454 1009 q 308 1023 346 1009 q 244 1060 270 1038 q 203 1109 218 1082 q 180 1162 189 1137 q 165 1244 168 1202 l 237 1244 q 290 1152 248 1186 q 402 1118 332 1118 q 515 1152 472 1118 q 568 1244 557 1186 l 640 1244 q 494 1023 629 1072 z "},"˙":{"ha":415,"x_min":85,"x_max":330,"o":"m 85 1120 l 209 1241 l 330 1120 l 209 998 l 85 1120 z "},"˚":{"ha":692,"x_min":150,"x_max":541,"o":"m 345 922 q 210 966 263 922 q 150 1097 150 1015 q 210 1226 150 1179 q 345 1270 264 1270 q 481 1226 426 1270 q 541 1097 541 1180 q 481 966 541 1015 q 345 922 427 922 m 345 989 q 415 1009 392 989 q 457 1094 457 1045 q 422 1172 457 1142 q 345 1198 392 1198 q 243 1139 271 1198 q 234 1094 234 1120 q 243 1048 234 1067 q 267 1016 252 1029 q 345 989 298 989 z "},"˛":{"ha":691,"x_min":168,"x_max":531,"o":"m 307 -216 q 399 -301 307 -301 q 508 -273 450 -301 l 531 -326 q 382 -380 463 -366 q 334 -385 356 -385 q 213 -349 257 -385 q 168 -245 168 -313 q 368 -5 168 -116 q 494 52 429 28 l 512 9 q 365 -95 425 -27 q 307 -216 307 -159 z "},"˜":{"ha":810,"x_min":136,"x_max":674,"o":"m 139 975 q 136 1020 136 997 q 150 1073 136 1043 q 186 1124 163 1102 q 302 1170 235 1170 q 424 1118 362 1170 q 523 1067 486 1067 q 570 1082 555 1067 q 594 1147 598 1112 l 671 1147 q 674 1102 674 1124 q 660 1049 674 1079 q 623 998 646 1020 q 507 952 573 952 q 434 971 462 952 q 391 1003 406 990 q 361 1028 376 1017 q 303 1055 328 1055 q 264 1049 279 1055 q 238 1034 250 1044 q 216 975 212 1009 l 139 975 z "},"˝":{"ha":693,"x_min":103,"x_max":684,"o":"m 405 959 l 565 1275 l 684 1207 l 471 922 l 405 959 m 103 959 l 263 1275 l 382 1207 l 170 922 l 103 959 z "},"Δ":{"ha":1038,"x_min":18,"x_max":1020,"o":"m 18 59 q 77 81 62 64 q 98 116 91 98 q 487 1078 98 116 l 536 1077 l 915 151 q 949 90 934 104 q 1020 59 974 65 l 1020 0 l 18 0 l 18 59 m 789 104 l 497 852 l 214 104 l 789 104 z "},"Ω":{"ha":1155,"x_min":46,"x_max":1109,"o":"m 256 608 q 495 172 256 288 l 495 -1 l 121 -1 l 46 258 l 115 258 q 163 161 144 184 q 256 118 200 118 l 427 118 l 427 132 q 186 330 273 208 q 96 608 96 454 q 201 905 96 782 q 580 1052 326 1052 q 959 905 833 1052 q 1064 610 1064 781 q 868 218 1064 376 q 729 132 806 169 l 729 118 l 900 118 q 1017 201 977 118 q 1041 258 1029 227 l 1109 258 l 1034 -1 l 661 -1 l 661 171 q 907 609 907 284 q 893 760 907 706 q 857 850 878 813 q 799 916 835 888 q 581 977 720 977 q 260 689 283 977 q 256 608 256 646 z "},"π":{"ha":1154,"x_min":131,"x_max":1023,"o":"m 131 56 l 155 60 q 202 68 184 64 q 231 84 220 73 q 248 180 248 105 l 248 640 q 232 733 248 718 q 193 753 216 749 q 131 761 170 758 l 131 819 l 1023 819 l 1023 761 q 961 753 984 757 q 926 737 938 749 q 906 640 906 719 l 906 180 q 918 89 906 103 q 948 70 930 75 q 996 60 966 65 l 1023 56 l 1023 0 l 652 0 l 652 56 l 675 60 q 723 68 705 64 q 751 84 741 73 q 769 180 769 105 l 769 734 l 385 734 l 385 180 q 397 89 385 103 q 428 70 410 75 q 475 60 446 65 l 502 56 l 502 0 l 131 0 l 131 56 z "},"Ḃ":{"ha":1038,"x_min":62,"x_max":967,"o":"m 62 56 q 156 80 140 63 q 176 116 172 96 q 179 169 179 136 l 179 869 q 164 949 179 934 q 125 970 149 964 q 62 979 102 975 l 62 1038 l 238 1038 q 338 1042 283 1038 q 518 1051 441 1051 q 669 1035 596 1051 q 789 989 743 1019 q 880 823 880 931 q 776 605 880 685 q 694 562 741 578 q 950 398 896 528 q 967 301 967 357 q 942 185 967 245 q 863 80 916 125 q 530 -20 745 -20 q 412 -14 477 -20 q 238 0 294 0 l 62 0 l 62 56 m 317 198 q 350 100 317 130 q 533 58 397 58 q 757 127 688 58 q 814 283 814 184 q 705 487 814 428 q 623 512 664 509 q 560 517 583 515 l 514 519 q 468 522 490 521 q 425 524 445 523 l 425 588 l 565 597 q 695 674 654 606 q 727 810 727 726 q 682 930 727 890 q 496 979 628 979 q 321 894 338 979 q 317 840 317 869 l 317 198 m 339 1216 l 463 1337 l 583 1216 l 463 1094 l 339 1216 z "},"ḃ":{"ha":924,"x_min":68,"x_max":899,"o":"m 491 1120 l 614 1241 l 735 1120 l 614 998 l 491 1120 m 68 56 q 163 80 146 63 q 182 116 179 96 q 186 169 186 136 l 186 1000 q 161 1084 186 1065 q 68 1103 145 1096 l 68 1160 l 441 1160 l 441 1103 q 350 1085 365 1096 q 324 1000 324 1067 l 324 749 q 491 838 387 816 q 568 844 524 844 q 659 828 612 844 q 743 782 705 811 q 810 713 781 753 q 859 627 840 673 q 899 421 899 530 q 802 118 899 245 q 632 -3 735 32 q 532 -20 580 -20 q 401 -14 469 -20 q 245 0 275 0 l 68 0 l 68 56 m 324 199 q 361 100 324 134 q 521 58 408 58 q 693 168 633 58 q 746 421 746 263 q 644 734 746 650 q 556 765 606 765 q 465 750 506 765 q 393 709 425 735 q 324 576 324 653 l 324 199 z "},"Ḋ":{"ha":1042,"x_min":43,"x_max":1017,"o":"m 241 1038 l 295 1038 q 354 1039 326 1038 l 403 1042 q 504 1047 477 1047 q 871 929 736 1047 q 1017 554 1017 802 q 881 142 1017 296 q 492 -17 741 -17 q 376 -12 428 -17 l 290 -3 q 241 1 257 1 l 43 0 l 43 56 q 105 67 82 62 q 140 84 128 72 q 161 180 161 104 l 161 861 q 144 952 161 937 q 105 971 128 967 q 43 979 82 975 l 43 1038 l 241 1038 m 298 147 q 433 66 298 87 q 509 60 473 60 q 845 355 784 60 q 865 571 865 452 q 837 767 865 690 q 759 890 809 843 q 484 979 665 979 q 317 939 369 979 q 298 901 298 924 l 298 147 m 414 1216 l 538 1337 l 659 1216 l 538 1094 l 414 1216 z "},"ḋ":{"ha":924,"x_min":29,"x_max":859,"o":"m 186 1120 l 309 1241 l 430 1120 l 309 998 l 186 1120 m 683 0 q 556 -10 653 0 q 403 -20 458 -20 q 295 -3 348 -20 q 201 45 243 15 q 126 118 159 76 q 73 209 94 160 q 29 421 29 308 q 117 713 29 593 q 371 844 214 844 q 556 789 472 844 q 604 749 583 771 l 604 1000 q 579 1084 604 1067 q 487 1103 563 1096 l 487 1160 l 859 1160 l 859 1103 q 768 1084 783 1096 q 742 1000 742 1065 l 742 169 q 757 87 742 103 q 796 66 772 72 q 859 56 819 60 l 859 0 l 683 0 m 304 88 q 408 58 347 58 q 507 70 469 58 q 567 100 545 81 q 604 199 604 134 l 604 576 q 534 709 604 653 q 377 765 467 765 q 224 654 275 765 q 182 421 182 563 q 304 88 182 174 z "},"Ḟ":{"ha":925,"x_min":58,"x_max":908,"o":"m 772 746 q 787 858 787 823 q 778 912 787 893 q 750 943 770 932 q 621 962 717 962 l 313 962 l 313 571 l 717 571 l 699 494 l 313 494 l 313 180 q 318 118 313 140 q 342 85 323 96 q 399 68 361 73 q 503 56 437 62 l 503 0 l 58 0 l 58 56 q 120 67 97 62 q 155 84 143 72 q 176 180 176 104 l 176 859 q 159 951 176 937 q 120 971 143 966 q 58 979 97 975 l 58 1038 l 908 1038 l 837 746 l 772 746 m 361 1216 l 484 1337 l 605 1216 l 484 1094 l 361 1216 z "},"ḟ":{"ha":579,"x_min":66,"x_max":607,"o":"m 66 58 q 160 77 143 63 q 181 110 177 92 q 185 157 185 128 l 185 580 l 72 580 l 72 643 q 160 665 142 652 q 182 690 178 677 q 186 721 186 703 l 186 736 q 274 986 186 912 q 521 1052 352 1052 l 607 1052 l 606 979 l 524 968 q 370 910 414 950 q 321 768 321 865 l 321 663 l 551 663 l 551 580 l 323 580 l 323 171 q 328 115 323 136 q 351 83 334 94 q 491 58 378 66 l 491 0 l 66 0 l 66 58 m 198 1216 l 321 1337 l 442 1216 l 321 1094 l 198 1216 z "},"Ṁ":{"ha":1508,"x_min":21,"x_max":1487,"o":"m 21 56 q 98 72 82 65 q 130 113 124 84 l 328 1057 l 378 1057 l 753 229 l 1117 1057 l 1163 1057 l 1354 180 q 1394 81 1370 100 q 1430 65 1408 69 q 1487 56 1451 61 l 1487 0 l 1101 0 l 1101 56 q 1188 77 1173 68 q 1213 128 1213 90 q 1211 152 1213 138 l 1208 180 l 1099 749 l 753 -34 l 707 -34 l 355 749 l 238 138 q 236 114 236 125 q 242 92 236 102 q 263 75 248 81 q 367 56 292 62 l 367 0 l 21 0 l 21 56 m 623 1216 l 746 1337 l 867 1216 l 746 1094 l 623 1216 z "},"ṁ":{"ha":1501,"x_min":100,"x_max":1478,"o":"m 100 56 l 119 59 q 195 81 182 68 q 212 116 208 95 q 215 176 215 138 l 215 660 q 199 735 215 722 q 161 754 184 749 q 100 761 138 758 l 100 819 l 353 819 l 353 678 q 418 777 382 741 q 560 882 479 840 q 688 790 646 833 q 793 635 759 717 q 959 827 846 744 q 1040 883 996 855 q 1234 736 1168 812 q 1358 387 1338 618 q 1364 231 1364 306 q 1368 129 1364 156 q 1382 87 1372 102 q 1409 68 1392 73 q 1453 60 1426 64 l 1478 56 l 1478 0 l 1107 0 l 1107 56 q 1169 65 1146 61 q 1204 82 1192 70 q 1225 191 1225 102 l 1225 294 q 1192 582 1227 487 q 1040 787 1156 684 q 918 644 956 717 q 870 486 880 570 q 856 251 856 366 q 860 116 856 136 q 875 84 864 95 q 955 59 891 68 l 973 56 l 973 0 l 602 0 l 602 56 q 663 65 640 61 q 699 81 686 69 q 718 187 718 100 l 718 269 q 696 565 718 488 q 641 691 674 643 q 553 786 608 739 q 414 654 461 727 q 353 428 353 559 l 353 198 q 366 91 353 109 q 399 68 379 73 q 452 58 418 63 l 470 56 l 470 0 l 100 0 l 100 56 m 667 1120 l 790 1241 l 911 1120 l 790 998 l 667 1120 z "},"Ṗ":{"ha":923,"x_min":65,"x_max":855,"o":"m 419 439 q 496 434 448 434 q 586 454 545 434 q 652 511 627 475 q 702 711 702 582 q 670 895 702 835 q 497 979 625 979 q 324 902 340 979 q 319 850 319 878 l 319 179 q 323 118 319 140 q 341 85 328 96 q 381 69 355 73 q 451 60 407 64 l 488 56 l 488 0 l 65 0 l 65 56 q 75 57 68 57 q 99 60 82 58 q 135 67 117 62 q 164 84 153 72 q 182 179 182 105 l 182 866 q 167 947 182 932 q 129 969 152 963 q 65 979 105 975 l 65 1038 l 241 1038 q 373 1045 307 1038 q 525 1053 439 1053 q 678 1025 611 1053 q 785 951 745 998 q 855 719 855 869 q 775 472 855 567 q 503 363 683 363 q 408 376 462 363 l 419 439 m 352 1216 l 475 1337 l 596 1216 l 475 1094 l 352 1216 z "},"ṗ":{"ha":925,"x_min":45,"x_max":864,"o":"m 513 -16 q 300 75 387 -16 l 300 -224 q 328 -308 300 -291 q 432 -328 348 -320 l 432 -384 l 52 -384 l 52 -328 l 54 -328 q 137 -310 122 -321 q 162 -224 162 -290 l 162 650 q 147 732 162 717 q 108 754 132 748 q 45 763 85 760 l 45 819 l 221 819 q 316 823 263 819 q 483 833 425 833 q 596 816 541 833 q 694 770 651 800 q 770 700 738 741 q 823 612 802 660 q 864 420 864 518 q 843 247 864 322 q 779 113 822 171 q 513 -16 684 -16 m 711 403 q 477 761 711 761 q 305 674 320 761 q 300 621 300 649 l 300 248 q 359 114 300 168 q 496 59 420 59 q 611 90 572 59 q 673 170 651 121 q 711 403 711 255 m 353 1120 l 476 1241 l 597 1120 l 476 998 l 353 1120 z "},"Ṡ":{"ha":925,"x_min":93,"x_max":861,"o":"m 634 773 q 665 853 665 815 q 650 912 665 890 q 608 949 634 935 q 465 980 553 980 q 334 937 386 980 q 281 825 281 894 q 349 691 281 747 q 433 636 383 663 q 671 510 617 541 q 768 444 726 480 q 861 269 861 366 q 748 49 861 123 q 477 -16 648 -16 q 225 42 342 -16 q 110 144 144 83 q 93 213 93 175 q 110 280 93 251 q 151 331 126 310 q 250 381 196 371 l 286 338 q 257 280 261 303 q 254 228 254 256 q 272 166 254 199 q 321 109 290 134 q 485 54 391 54 q 697 157 648 54 q 713 236 713 191 q 688 316 713 281 q 624 377 663 350 q 536 426 585 404 q 426 481 488 449 q 310 549 365 513 q 218 623 254 585 q 147 793 147 697 q 245 983 147 912 q 484 1052 338 1052 q 711 1008 619 1052 q 807 886 807 962 q 742 767 807 814 q 684 740 719 750 l 634 773 m 370 1216 l 493 1337 l 614 1216 l 493 1094 l 370 1216 z "},"ṡ":{"ha":807,"x_min":109,"x_max":750,"o":"m 549 606 q 575 679 575 646 q 537 735 575 711 q 446 760 498 760 q 364 751 393 760 q 316 724 336 741 q 277 635 277 691 q 390 511 277 568 q 445 484 422 494 q 663 370 616 407 q 729 299 709 333 q 750 215 750 265 q 722 121 750 165 q 648 46 694 77 q 423 -16 555 -16 q 209 34 300 -16 q 111 170 109 87 q 153 258 113 219 q 241 304 190 292 l 271 269 q 245 184 245 237 q 294 100 245 137 q 432 59 348 59 q 565 97 517 59 q 614 199 614 135 q 489 330 614 273 q 428 357 452 347 q 398 370 404 367 q 365 385 392 372 q 293 422 337 397 q 216 477 250 448 q 145 620 145 541 q 232 777 145 718 q 452 833 315 833 q 626 791 557 833 q 695 686 695 749 q 658 614 695 647 q 588 578 625 587 l 549 606 m 320 1120 l 444 1241 l 564 1120 l 444 998 l 320 1120 z "},"Ṫ":{"ha":1040,"x_min":34,"x_max":989,"o":"m 852 746 q 867 858 867 823 q 858 914 867 894 q 830 945 850 934 q 701 966 796 966 l 587 966 l 587 182 q 591 121 587 143 q 614 87 596 99 q 669 71 633 76 q 768 59 705 65 l 768 0 l 273 0 l 273 59 q 415 85 393 71 q 443 121 437 99 q 449 182 449 143 l 449 966 l 319 966 q 142 846 197 966 q 109 768 125 810 l 100 747 l 34 747 l 110 1038 l 989 1038 l 918 746 l 852 746 m 390 1216 l 513 1337 l 634 1216 l 513 1094 l 390 1216 z "},"ṫ":{"ha":581,"x_min":82,"x_max":580,"o":"m 148 1216 l 271 1337 l 392 1216 l 271 1094 l 148 1216 m 108 56 q 156 68 138 63 q 183 85 174 73 q 198 187 198 105 l 198 736 l 82 736 l 82 799 q 196 828 181 813 l 195 828 q 222 919 210 848 q 236 1023 233 989 l 334 1022 l 334 819 l 580 819 l 580 736 l 334 736 l 334 189 q 343 109 334 126 q 366 83 353 92 q 403 71 380 75 q 539 63 440 64 l 539 0 l 108 0 l 108 56 z "}}}
